{
.appVersion = "3400";
.formatVersion = 3;
DisplayStrings = (
"A Á Ă Ǎ Â Ä Ȧ À Ā Ą Å Ǻ Ã Æ Ǽ Ǣ B Ḃ C Ć Č Ç Ḉ Ĉ Ċ D Ď Ḑ Đ Ḋ Ð E É Ĕ Ě Ȩ Ḝ Ê Ë Ė È Ē Ę Ẽ Ə F Ḟ G Ǵ Ğ Ǧ Ĝ Ģ Ġ Ḡ H Ħ Ȟ Ĥ Ḧ Ḣ I Ĳ Í Ĭ Ǐ Î Ï İ Ì Ī Į Ĩ J /Jacute  Ĵ K Ḱ Ǩ Ķ L Ĺ Ľ Ļ Ŀ Ł M N Ń Ň Ņ Ṅ Ǹ Ñ Ŋ O Ó Ŏ Ǒ Ô Ö Ȯ Ò Ő Ō Ǭ Ø Ǿ Õ Œ P Ṕ Ṗ Þ Q R Ŕ Ř Ŗ Ṙ S Ś Š Ş Ŝ Ș Ṡ ẞ T Ŧ Ť Ţ Ț Ṫ U Ú Ŭ Ǔ Û Ü Ù Ű Ū Ų Ů Ũ V Ṽ W Ẃ Ŵ Ẅ Ẇ Ẁ X Ẍ Ẋ Y Ý Ŷ Ÿ Ẏ Ỳ Ȳ Z Ź Ž Ż
a á ă ǎ â ä ȧ à ā ą å ǻ ã æ ǽ b ḃ c ć č ç ĉ ċ d ď ḑ đ ḋ ð e é ĕ ě ȩ ḝ ê ë ė è ē ę ẽ ǝ ə f ḟ g ǵ ğ ǧ ĝ ģ ġ ḡ h ħ ȟ ḩ ĥ ḧ ḣ i ı í ĭ ǐ î ï /idotaccent  ì ī į ĩ ĳ j ȷ /jacute  ĵ k ḱ ǩ ķ l ĺ ľ ļ ŀ ł m ḿ ṁ n ń ň ņ ṅ ǹ ñ ŋ o ó ŏ ǒ ô ö ȯ ò ő ō ǫ ǭ ø ǿ õ œ p ṕ ṗ þ q r ŕ ř ŗ ṙ s ś š ş ŝ ș ṡ ß t ŧ ť ţ ț u ú ŭ ǔ û ü ù ű ū ų ů ũ v ṽ w ẃ ŵ ẅ ẁ x ẍ ẋ y ý ŷ ÿ ẏ ỳ ȳ z ź ž ż",
"nfoßS&n",
"& Procter&Gamble
HẞƏ&M",
"AÆBÐEƏGŒRSẞðeəkœsßŧz"
);
axes = (
{
name = Weight;
tag = wght;
}
);
classes = (
{
automatic = 1;
code = "A Aacute Abreve Acircumflex Adieresis Agrave Amacron Aogonek Aring Aringacute Atilde AE AEacute B C Cacute Ccaron Ccedilla Ccircumflex Cdotaccent D Dcaron Dcroat Eth E Eacute Ebreve Ecaron Ecircumflex Edieresis Edotaccent Egrave Emacron Eogonek Schwa F G Gbreve Gcaron Gcircumflex Gcommaaccent Gdotaccent H Hbar Hcircumflex I IJ Iacute Ibreve Icircumflex Idieresis Idotaccent Igrave Imacron Iogonek Itilde J Jacute Jcircumflex K Kcommaaccent L Lacute Lcaron Lcommaaccent Ldot Lslash M N Nacute Ncaron Ncommaaccent Ntilde Eng O Oacute Obreve Ocircumflex Odieresis Ograve Ohungarumlaut Omacron Oslash Oslashacute Otilde OE P Thorn Q R Racute Rcaron Rcommaaccent S Sacute Scaron Scedilla Scircumflex Scommaaccent Germandbls T Tbar Tcaron Tcedilla Tcommaaccent U Uacute Ubreve Ucircumflex Udieresis Ugrave Uhungarumlaut Umacron Uogonek Uring Utilde V W Wacute Wcircumflex Wdieresis Wgrave X Y Yacute Ycircumflex Ydieresis Ygrave Z Zacute Zcaron Zdotaccent Delta Omega";
name = Uppercase;
}
);
customParameters = (
{
name = "Use Typo Metrics";
value = 1;
}
);

glyphs = (
{
glyphname = A;
lastChange = "2025-02-27 15:33:01 +0000";
layers = (
{
anchors = (
{
name = ogonek;
pos = (585,0);
},
{
name = top;
pos = (415,730);
}
);
layerId = "79167EE4-8C29-4BCE-A9E7-C1CFC4557E33";
shapes = (
{
closed = 1;
nodes = (
(0,0,l),
(425,686,l),
(409,695,l),
(569,0,l),
(603,0,l),
(435,730,l),
(400,730,l),
(-53,0,l)
);
},
{
closed = 1;
nodes = (
(524,221,l),
(533,271,l),
(124,271,l),
(115,221,l)
);
}
);
width = 656;
},
{
anchors = (
{
name = ogonek;
pos = (641,0);
},
{
name = top;
pos = (464,730);
}
);
background = {
shapes = (
{
closed = 1;
nodes = (
(203,0,l),
(532,558,l),
(480,558,l),
(589,0,l),
(690,0,l),
(548,730,l),
(376,730,l),
(-54,0,l)
);
},
{
closed = 1;
nodes = (
(567,165,l),
(586,261,l),
(287,261,l),
(268,165,l)
);
}
);
};
layerId = "41EDA971-A137-4972-81AF-7929AB7CAABF";
shapes = (
{
closed = 1;
nodes = (
(203,0,l),
(532,558,l),
(483,558,l),
(591,0,l),
(687,0,l),
(545,730,l),
(376,730,l),
(-54,0,l)
);
},
{
closed = 1;
nodes = (
(567,165,l),
(586,261,l),
(287,261,l),
(268,165,l)
);
}
);
width = 741;
},
{
anchors = (
{
name = ogonek;
pos = (585,0);
},
{
name = top;
pos = (415,730);
}
);
associatedMasterId = "79167EE4-8C29-4BCE-A9E7-C1CFC4557E33";
layerId = "6EB81C81-1EE7-40D6-9BDC-E333B20A2A07";
name = "3 févr. 25 à 17:30";
shapes = (
{
closed = 1;
nodes = (
(-3,0,l),
(422,686,l),
(408,695,l),
(568,0,l),
(603,0,l),
(435,730,l),
(400,730,l),
(-53,0,l)
);
},
{
closed = 1;
nodes = (
(524,221,l),
(533,271,l),
(124,271,l),
(115,221,l)
);
}
);
width = 656;
},
{
anchors = (
{
name = ogonek;
pos = (637,0);
},
{
name = top;
pos = (460,730);
}
);
associatedMasterId = "41EDA971-A137-4972-81AF-7929AB7CAABF";
layerId = "F9336C10-EDCF-40CF-9D1D-DA678FB6DF52";
name = "4 févr. 25 à 14:56";
shapes = (
{
closed = 1;
nodes = (
(195,0,l),
(524,558,l),
(474,558,l),
(583,0,l),
(686,0,l),
(544,730,l),
(376,730,l),
(-54,0,l)
);
},
{
closed = 1;
nodes = (
(559,165,l),
(578,261,l),
(283,261,l),
(264,165,l)
);
}
);
width = 740;
},
{
anchors = (
{
name = ogonek;
pos = (637,0);
},
{
name = top;
pos = (460,730);
}
);
associatedMasterId = "41EDA971-A137-4972-81AF-7929AB7CAABF";
layerId = "AC052BF0-EC61-49AE-B409-FAD61205326E";
name = "25 févr. 25 à 12:12";
shapes = (
{
closed = 1;
nodes = (
(199,0,l),
(528,558,l),
(476,558,l),
(585,0,l),
(686,0,l),
(544,730,l),
(372,730,l),
(-58,0,l)
);
},
{
closed = 1;
nodes = (
(563,165,l),
(582,261,l),
(283,261,l),
(264,165,l)
);
}
);
width = 740;
}
);
unicode = 65;
},
{
color = 3;
glyphname = AE;
lastChange = "2025-02-28 10:13:28 +0000";
layers = (
{
anchors = (
{
name = top;
pos = (765,730);
}
);
background = {
shapes = (
{
closed = 1;
nodes = (
(966,672,l),
(966,730,l),
(553,730,l),
(553,672,l)
);
},
{
closed = 1;
nodes = (
(559,0,l),
(559,730,l),
(527,730,l),
(527,0,l)
);
},
{
closed = 1;
nodes = (
(973,0,l),
(973,54,l),
(553,54,l),
(553,0,l)
);
},
{
closed = 1;
nodes = (
(886,313,l),
(886,363,l),
(550,363,l),
(550,313,l)
);
},
{
closed = 1;
nodes = (
(59,0,l),
(570,730,l),
(507,730,l),
(-5,0,l)
);
},
{
closed = 1;
nodes = (
(534,313,l),
(534,363,l),
(275,363,l),
(241,313,l)
);
}
);
};
layerId = "79167EE4-8C29-4BCE-A9E7-C1CFC4557E33";
shapes = (
{
closed = 1;
nodes = (
(1043,672,l),
(1055,730,l),
(642,730,l),
(630,672,l)
);
},
{
closed = 1;
nodes = (
(506,0,l),
(648,730,l),
(616,730,l),
(474,0,l)
);
},
{
closed = 1;
nodes = (
(920,0,l),
(930,54,l),
(510,54,l),
(500,0,l)
);
},
{
closed = 1;
nodes = (
(894,313,l),
(903,363,l),
(567,363,l),
(558,313,l)
);
},
{
closed = 1;
nodes = (
(6,0,l),
(659,730,l),
(601,730,l),
(-53,0,l)
);
},
{
closed = 1;
nodes = (
(542,313,l),
(551,363,l),
(292,363,l),
(249,313,l)
);
}
);
width = 1025;
},
{
anchors = (
{
name = top;
pos = (798,730);
}
);
layerId = "41EDA971-A137-4972-81AF-7929AB7CAABF";
shapes = (
{
closed = 1;
nodes = (
(236,0,l),
(855,730,l),
(560,730,l),
(-54,0,l)
);
},
{
closed = 1;
nodes = (
(583,189,l),
(602,289,l),
(366,289,l),
(347,189,l)
);
},
{
closed = 1;
nodes = (
(1026,0,l),
(1066,208,l),
(609,208,l),
(569,0,l)
);
},
{
closed = 1;
nodes = (
(627,0,l),
(769,730,l),
(673,730,l),
(531,0,l)
);
},
{
closed = 1;
nodes = (
(989,275,l),
(1009,375,l),
(678,375,l),
(658,275,l)
);
},
{
closed = 1;
nodes = (
(1106,450,l),
(1161,730,l),
(711,730,l),
(656,450,l)
);
}
);
width = 1112;
}
);
metricLeft = "=A";
metricRight = "=E";
unicode = 198;
},
{
color = 3;
glyphname = B;
lastChange = "2025-02-28 10:13:28 +0000";
layers = (
{
anchors = (
{
name = top;
pos = (394,730);
}
);
background = {
shapes = (
{
closed = 1;
nodes = (
(324,0,ls),
(504,0,o),
(562,115,o),
(562,222,cs),
(562,291,o),
(525,352,o),
(413,376,c),
(417,353,l),
(547,366,o),
(614,460,o),
(614,572,cs),
(614,674,o),
(537,730,o),
(370,730,cs),
(200,730,l),
(188,672,l),
(368,672,ls),
(518,672,o),
(578,626,o),
(578,549,cs),
(578,447,o),
(505,388,o),
(384,388,cs),
(140,388,l),
(130,338,l),
(312,338,ls),
(464,339,o),
(530,289,o),
(530,213,cs),
(530,125,o),
(471,54,o),
(338,54,cs),
(68,54,l),
(58,0,l)
);
},
{
closed = 1;
nodes = (
(76,0,l),
(218,730,l),
(186,730,l),
(44,0,l)
);
}
);
};
layerId = "79167EE4-8C29-4BCE-A9E7-C1CFC4557E33";
shapes = (
{
closed = 1;
nodes = (
(324,0,ls),
(504,0,o),
(562,115,o),
(562,216,cs),
(562,291,o),
(525,352,o),
(413,376,c),
(417,353,l),
(547,366,o),
(614,460,o),
(614,567,cs),
(614,674,o),
(537,730,o),
(370,730,cs),
(200,730,l),
(188,672,l),
(368,672,ls),
(518,672,o),
(578,626,o),
(578,549,cs),
(578,447,o),
(505,388,o),
(384,388,cs),
(140,388,l),
(130,338,l),
(312,338,ls),
(464,339,o),
(530,289,o),
(530,213,cs),
(530,125,o),
(471,54,o),
(338,54,cs),
(68,54,l),
(58,0,l)
);
},
{
closed = 1;
nodes = (
(76,0,l),
(218,730,l),
(186,730,l),
(44,0,l)
);
}
);
width = 634;
},
{
anchors = (
{
name = top;
pos = (417,730);
}
);
background = {
shapes = (
{
closed = 1;
nodes = (
(362,0,ls),
(516,0,o),
(607,82,o),
(607,209,cs),
(607,291,o),
(558,339,o),
(443,342,c),
(454,329,l),
(606,327,o),
(664,444,o),
(663,557,cs),
(662,663,o),
(591,730,o),
(446,730,cs),
(211,730,l),
(156,450,l),
(476,450,ls),
(514,450,o),
(530,439,o),
(530,421,cs),
(530,402,o),
(515,386,o),
(484,386,cs),
(159,386,l),
(140,286,l),
(452,286,ls),
(497,286,o),
(510,267,o),
(510,248,cs),
(510,224,o),
(488,208,o),
(451,208,cs),
(109,208,l),
(69,0,l)
);
},
{
closed = 1;
nodes = (
(112,0,l),
(254,730,l),
(158,730,l),
(16,0,l)
);
}
);
};
layerId = "41EDA971-A137-4972-81AF-7929AB7CAABF";
shapes = (
{
closed = 1;
nodes = (
(372,0,ls),
(524,0,o),
(607,83,o),
(607,209,cs),
(607,291,o),
(558,339,o),
(443,342,c),
(454,329,l),
(606,327,o),
(664,444,o),
(663,557,cs),
(662,670,o),
(593,730,o),
(426,730,cs),
(211,730,l),
(156,450,l),
(484,450,ls),
(517,450,o),
(530,439,o),
(530,421,cs),
(530,402,o),
(515,386,o),
(484,386,cs),
(159,386,l),
(140,286,l),
(460,286,ls),
(496,286,o),
(510,271,o),
(510,250,cs),
(510,224,o),
(488,208,o),
(451,208,cs),
(109,208,l),
(69,0,l)
);
},
{
closed = 1;
nodes = (
(112,0,l),
(254,730,l),
(158,730,l),
(16,0,l)
);
}
);
width = 645;
},
{
anchors = (
{
name = top;
pos = (414,730);
}
);
associatedMasterId = "79167EE4-8C29-4BCE-A9E7-C1CFC4557E33";
layerId = "EDF42B0B-3D90-4390-8401-FD9FD67415E8";
name = "3 févr. 25 à 17:41";
shapes = (
{
closed = 1;
nodes = (
(296,0,ls),
(451,0,o),
(537,67,o),
(561,190,cs),
(578,277,o),
(551,360,o),
(414,379,c),
(419,357,l),
(536,377,o),
(595,453,o),
(612,540,cs),
(636,663,o),
(579,730,o),
(426,730,cs),
(200,730,l),
(188,672,l),
(421,672,ls),
(552,672,o),
(595,618,o),
(578,530,cs),
(561,444,o),
(493,388,o),
(361,388,cs),
(140,388,l),
(130,338,l),
(368,338,ls),
(500,338,o),
(547,282,o),
(530,196,cs),
(513,110,o),
(445,54,o),
(314,54,cs),
(68,54,l),
(58,0,l)
);
},
{
closed = 1;
nodes = (
(76,0,l),
(218,730,l),
(186,730,l),
(44,0,l)
);
}
);
width = 634;
},
{
anchors = (
{
name = top;
pos = (417,730);
}
);
associatedMasterId = "41EDA971-A137-4972-81AF-7929AB7CAABF";
layerId = "5BE06FE6-D8CF-473C-B91F-94868799C74A";
name = "4 févr. 25 à 14:56";
shapes = (
{
closed = 1;
nodes = (
(341,0,ls),
(508,0,o),
(584,75,o),
(604,181,cs),
(624,281,o),
(588,338,o),
(458,345,c),
(455,329,l),
(570,339,o),
(635,390,o),
(659,515,cs),
(686,653,o),
(620,730,o),
(453,730,cs),
(211,730,l),
(156,450,l),
(491,450,ls),
(523,450,o),
(534,437,o),
(530,418,cs),
(527,399,o),
(510,386,o),
(479,386,cs),
(159,386,l),
(140,286,l),
(463,286,ls),
(502,286,o),
(514,269,o),
(510,246,cs),
(505,223,o),
(486,208,o),
(447,208,cs),
(109,208,l),
(69,0,l)
);
},
{
closed = 1;
nodes = (
(112,0,l),
(254,730,l),
(158,730,l),
(16,0,l)
);
}
);
width = 645;
},
{
anchors = (
{
name = top;
pos = (417,730);
}
);
associatedMasterId = "41EDA971-A137-4972-81AF-7929AB7CAABF";
layerId = "A7640DDB-5751-4D70-811D-D73AAD13E0E0";
name = "4 févr. 25 à 17:08";
shapes = (
{
closed = 1;
nodes = (
(362,0,ls),
(516,0,o),
(607,82,o),
(607,209,cs),
(607,291,o),
(558,339,o),
(443,342,c),
(454,329,l),
(606,327,o),
(664,444,o),
(663,557,cs),
(662,663,o),
(591,730,o),
(446,730,cs),
(211,730,l),
(156,450,l),
(476,450,ls),
(514,450,o),
(530,439,o),
(530,421,cs),
(530,402,o),
(515,386,o),
(484,386,cs),
(159,386,l),
(140,286,l),
(452,286,ls),
(497,286,o),
(510,267,o),
(510,248,cs),
(510,224,o),
(488,208,o),
(451,208,cs),
(109,208,l),
(69,0,l)
);
},
{
closed = 1;
nodes = (
(112,0,l),
(254,730,l),
(158,730,l),
(16,0,l)
);
}
);
width = 645;
}
);
metricLeft = "=H";
unicode = 66;
},
{
glyphname = C;
lastChange = "2025-02-27 15:33:01 +0000";
layers = (
{
anchors = (
{
name = bottom;
pos = (322,0);
},
{
name = top;
pos = (473,730);
}
);
background = {
shapes = (
{
closed = 1;
nodes = (
(454,-15,o),
(548,35,o),
(597,96,c),
(584,131,l),
(533,78,o),
(436,44,o),
(344,52,cs),
(149,69,o),
(61,185,o),
(101,387,cs),
(139,584,o),
(275,687,o),
(465,674,cs),
(547,668,o),
(623,632,o),
(659,575,c),
(687,614,l),
(657,676,o),
(593,728,o),
(476,735,cs),
(276,749,o),
(116,630,o),
(68,385,cs),
(27,171,o),
(101,11,o),
(332,-5,cs)
);
}
);
};
layerId = "79167EE4-8C29-4BCE-A9E7-C1CFC4557E33";
shapes = (
{
closed = 1;
nodes = (
(470,-6,o),
(552,39,o),
(597,96,c),
(584,131,l),
(538,82,o),
(455,50,o),
(365,50,cs),
(213,50,o),
(92,125,o),
(92,298,cs),
(92,508,o),
(213,675,o),
(436,675,cs),
(537,675,o),
(620,636,o),
(659,575,c),
(687,614,l),
(647,695,o),
(566,736,o),
(445,736,cs),
(166,736,o),
(57,474,o),
(57,288,cs),
(57,85,o),
(175,-6,o),
(355,-6,cs)
);
}
);
width = 655;
},
{
anchors = (
{
name = bottom;
pos = (294,0);
},
{
name = top;
pos = (450,730);
}
);
layerId = "41EDA971-A137-4972-81AF-7929AB7CAABF";
shapes = (
{
closed = 1;
nodes = (
(472,-16,o),
(559,28,o),
(614,100,c),
(594,254,l),
(533,219,o),
(456,203,o),
(351,203,cs),
(199,203,o),
(124,236,o),
(124,317,cs),
(124,406,o),
(211,456,o),
(385,456,cs),
(503,456,o),
(562,436,o),
(607,387,c),
(708,591,l),
(664,697,o),
(570,746,o),
(427,746,cs),
(183,746,o),
(43,543,o),
(43,287,cs),
(43,74,o),
(145,-16,o),
(341,-16,cs)
);
}
);
width = 660;
},
{
anchors = (
{
name = bottom;
pos = (321,0);
},
{
name = top;
pos = (472,730);
}
);
associatedMasterId = "79167EE4-8C29-4BCE-A9E7-C1CFC4557E33";
background = {
shapes = (
{
closed = 1;
nodes = (
(461,-26,o),
(556,18,o),
(602,76,c),
(590,112,l),
(541,62,o),
(441,36,o),
(347,56,cs),
(154,96,o),
(68,224,o),
(107,424,cs),
(145,619,o),
(279,707,o),
(467,670,cs),
(541,655,o),
(609,616,o),
(649,562,c),
(677,601,l),
(644,660,o),
(582,711,o),
(478,731,cs),
(280,769,o),
(122,668,o),
(75,425,cs),
(34,214,o),
(107,43,o),
(335,-1,cs)
);
}
);
};
layerId = "ABFDE25C-BA1C-44B7-881D-E3BDA99F4322";
name = "3 févr. 25 à 17:56";
shapes = (
{
closed = 1;
nodes = (
(448,-8,o),
(541,45,o),
(592,107,c),
(579,142,l),
(527,88,o),
(431,49,o),
(340,50,cs),
(144,53,o),
(56,162,o),
(96,366,cs),
(134,564,o),
(271,676,o),
(462,676,cs),
(549,676,o),
(630,641,o),
(664,583,c),
(691,621,l),
(663,686,o),
(598,738,o),
(474,738,cs),
(272,738,o),
(111,608,o),
(63,361,cs),
(21,146,o),
(96,-8,o),
(328,-8,cs)
);
}
);
width = 654;
},
{
anchors = (
{
name = bottom;
pos = (294,0);
},
{
name = top;
pos = (450,730);
}
);
associatedMasterId = "41EDA971-A137-4972-81AF-7929AB7CAABF";
background = {
shapes = (
{
closed = 0;
nodes = (
(627,97,l),
(575,277,l)
);
},
{
closed = 0;
nodes = (
(589,50,l),
(628,119,l)
);
},
{
closed = 0;
nodes = (
(543,241,l),
(588,272,l)
);
},
{
closed = 0;
nodes = (
(564,382,l),
(637,623,l)
);
},
{
closed = 0;
nodes = (
(583,390,l),
(521,432,l)
);
},
{
closed = 0;
nodes = (
(638,594,l),
(584,687,l)
);
}
);
};
layerId = "0DC6294F-6443-4B82-B35D-3ECEDC231105";
name = "4 févr. 25 à 15:02";
shapes = (
{
closed = 1;
nodes = (
(448,-15,o),
(546,34,o),
(607,110,c),
(591,265,l),
(521,223,o),
(449,203,o),
(346,203,cs),
(181,203,o),
(113,244,o),
(130,331,cs),
(146,413,o),
(228,456,o),
(400,456,cs),
(499,456,o),
(557,441,o),
(609,399,c),
(712,605,l),
(678,687,o),
(604,746,o),
(469,746,cs),
(272,746,o),
(101,633,o),
(47,353,cs),
(-6,84,o),
(112,-15,o),
(305,-15,cs)
);
}
);
width = 658;
},
{
anchors = (
{
name = bottom;
pos = (298,0);
},
{
name = top;
pos = (454,730);
}
);
associatedMasterId = "41EDA971-A137-4972-81AF-7929AB7CAABF";
background = {
shapes = (
{
closed = 1;
nodes = (
(164,-13,o),
(353,-13,cs),
(472,-13,o),
(557,28,o),
(611,95,c),
(596,251,l),
(538,219,o),
(478,203,o),
(400,203,cs),
(306,203,o),
(132,218,o),
(132,323,cs),
(132,418,o),
(235,458,o),
(345,458,cs),
(415,458,o),
(529,456,o),
(607,387,c),
(710,591,l),
(663,703,o),
(562,744,o),
(437,744,cs),
(144,744,o),
(40,474,o),
(40,291,cs),
(40,73,o)
);
}
);
};
layerId = "9CFB9009-89FA-4AD9-B20C-AB7AB3E30806";
name = "25 févr. 25 à 13:52";
shapes = (
{
closed = 1;
nodes = (
(472,-16,o),
(557,26,o),
(611,95,c),
(596,251,l),
(538,219,o),
(478,203,o),
(400,203,cs),
(238,203,o),
(132,240,o),
(132,323,cs),
(132,399,o),
(205,458,o),
(345,458,cs),
(473,458,o),
(548,438,o),
(607,387,c),
(710,591,l),
(666,697,o),
(572,746,o),
(437,746,cs),
(182,746,o),
(40,525,o),
(40,291,cs),
(40,71,o),
(164,-16,o),
(353,-16,cs)
);
}
);
width = 662;
},
{
associatedMasterId = "41EDA971-A137-4972-81AF-7929AB7CAABF";
background = {
anchors = (
{
name = bottom;
pos = (296,0);
},
{
name = top;
pos = (452,730);
}
);
};
layerId = "B16A39A7-9EC9-4114-9180-207436032038";
name = "25 févr. 25 à 14:02";
shapes = (
{
closed = 1;
nodes = (
(470,-16,o),
(555,26,o),
(609,95,c),
(594,251,l),
(533,219,o),
(456,203,o),
(351,203,cs),
(200,203,o),
(126,238,o),
(126,317,cs),
(126,408,o),
(212,456,o),
(385,456,cs),
(502,456,o),
(560,436,o),
(605,387,c),
(708,591,l),
(664,697,o),
(570,746,o),
(435,746,cs),
(181,746,o),
(40,525,o),
(40,291,cs),
(40,71,o),
(143,-16,o),
(351,-16,cs)
);
}
);
width = 660;
},
{
anchors = (
{
name = bottom;
pos = (294,0);
},
{
name = top;
pos = (450,730);
}
);
associatedMasterId = "41EDA971-A137-4972-81AF-7929AB7CAABF";
layerId = "5DF716AB-1399-4054-BC4D-5432B2607A2B";
name = "25 févr. 25 à 14:32";
shapes = (
{
closed = 1;
nodes = (
(470,-16,o),
(555,26,o),
(609,95,c),
(594,251,l),
(533,219,o),
(456,203,o),
(351,203,cs),
(199,203,o),
(124,236,o),
(124,317,cs),
(124,406,o),
(211,456,o),
(385,456,cs),
(502,456,o),
(560,436,o),
(605,387,c),
(708,591,l),
(664,697,o),
(570,746,o),
(427,746,cs),
(183,746,o),
(43,543,o),
(43,287,cs),
(43,74,o),
(145,-16,o),
(341,-16,cs)
);
}
);
width = 660;
},
{
anchors = (
{
name = bottom;
pos = (294,0);
},
{
name = top;
pos = (450,730);
}
);
associatedMasterId = "41EDA971-A137-4972-81AF-7929AB7CAABF";
background = {
shapes = (
{
pos = (23,5);
ref = c;
scale = (1.2954,1.2954);
}
);
};
layerId = "8DEE6853-37A1-4FD7-B251-6F28EED45396";
name = "25 févr. 25 à 14:32";
shapes = (
{
closed = 1;
nodes = (
(470,-16,o),
(555,26,o),
(609,95,c),
(594,251,l),
(533,219,o),
(456,203,o),
(351,203,cs),
(199,203,o),
(124,236,o),
(124,317,cs),
(124,406,o),
(211,456,o),
(385,456,cs),
(502,456,o),
(560,436,o),
(605,387,c),
(708,591,l),
(664,697,o),
(570,746,o),
(427,746,cs),
(183,746,o),
(43,543,o),
(43,287,cs),
(43,74,o),
(145,-16,o),
(341,-16,cs)
);
}
);
width = 660;
}
);
metricLeft = "=O";
unicode = 67;
},
{
glyphname = D;
lastChange = "2025-02-27 15:33:01 +0000";
layers = (
{
anchors = (
{
name = bottom;
pos = (293,0);
},
{
name = top;
pos = (435,730);
}
);
background = {
shapes = (
{
closed = 1;
nodes = (
(296,0,ls),
(569,0,o),
(691,228,o),
(690,445,cs),
(689,627,o),
(593,730,o),
(382,730,cs),
(207,730,l),
(195,672,l),
(356,672,ls),
(559,672,o),
(655,590,o),
(655,436,cs),
(655,235,o),
(557,54,o),
(287,54,cs),
(83,54,l),
(73,0,l)
);
},
{
closed = 1;
nodes = (
(76,0,l),
(218,730,l),
(186,730,l),
(44,0,l)
);
}
);
};
layerId = "79167EE4-8C29-4BCE-A9E7-C1CFC4557E33";
shapes = (
{
closed = 1;
nodes = (
(296,0,ls),
(569,0,o),
(691,226,o),
(690,443,cs),
(689,625,o),
(593,730,o),
(382,730,cs),
(207,730,l),
(195,672,l),
(356,672,ls),
(559,672,o),
(655,590,o),
(655,436,cs),
(655,235,o),
(557,54,o),
(287,54,cs),
(83,54,l),
(73,0,l)
);
},
{
closed = 1;
nodes = (
(76,0,l),
(218,730,l),
(186,730,l),
(44,0,l)
);
}
);
width = 712;
},
{
anchors = (
{
name = bottom;
pos = (281,0);
},
{
name = top;
pos = (412,730);
}
);
background = {
shapes = (
{
ref = O;
}
);
};
layerId = "41EDA971-A137-4972-81AF-7929AB7CAABF";
shapes = (
{
closed = 1;
nodes = (
(325,0,ls),
(586,0,o),
(704,209,o),
(703,438,cs),
(702,634,o),
(599,730,o),
(392,730,cs),
(206,730,l),
(149,440,l),
(454,440,ls),
(551,440,o),
(611,413,o),
(611,342,cs),
(611,268,o),
(549,218,o),
(453,218,cs),
(94,218,l),
(52,0,l)
);
},
{
closed = 1;
nodes = (
(112,0,l),
(254,730,l),
(158,730,l),
(16,0,l)
);
}
);
width = 713;
},
{
anchors = (
{
name = bottom;
pos = (293,0);
},
{
name = top;
pos = (435,730);
}
);
associatedMasterId = "79167EE4-8C29-4BCE-A9E7-C1CFC4557E33";
background = {
anchors = (
{
name = top;
pos = (347,730);
}
);
};
layerId = "E1014AD5-C387-4473-97F9-9CF41CA8FB32";
name = "3 févr. 25 à 17:58";
shapes = (
{
closed = 1;
nodes = (
(263,0,ls),
(496,0,o),
(638,139,o),
(682,365,cs),
(728,601,o),
(656,730,o),
(405,730,cs),
(207,730,l),
(195,672,l),
(366,672,ls),
(613,672,o),
(691,577,o),
(649,363,cs),
(610,159,o),
(492,54,o),
(246,54,cs),
(83,54,l),
(73,0,l)
);
},
{
closed = 1;
nodes = (
(76,0,l),
(218,730,l),
(186,730,l),
(44,0,l)
);
}
);
width = 710;
},
{
anchors = (
{
name = bottom;
pos = (281,0);
},
{
name = top;
pos = (412,730);
}
);
associatedMasterId = "41EDA971-A137-4972-81AF-7929AB7CAABF";
background = {
anchors = (
{
name = top;
pos = (320,730);
}
);
};
layerId = "69E9A8D1-B0DC-420C-AFE7-999FC96971EB";
name = "4 févr. 25 à 15:07";
shapes = (
{
closed = 1;
nodes = (
(299,0,ls),
(483,0,o),
(643,100,o),
(695,365,cs),
(747,631,o),
(625,730,o),
(441,730,cs),
(206,730,l),
(149,440,l),
(475,440,ls),
(582,440,o),
(620,406,o),
(605,332,cs),
(591,258,o),
(539,218,o),
(433,218,cs),
(94,218,l),
(52,0,l)
);
},
{
closed = 1;
nodes = (
(112,0,l),
(254,730,l),
(158,730,l),
(16,0,l)
);
}
);
width = 710;
},
{
anchors = (
{
name = bottom;
pos = (281,0);
},
{
name = top;
pos = (412,730);
}
);
associatedMasterId = "41EDA971-A137-4972-81AF-7929AB7CAABF";
background = {
shapes = (
{
closed = 1;
nodes = (
(325,0,ls),
(495,0,o),
(642,93,o),
(691,342,cs),
(746,626,o),
(599,730,o),
(392,730,cs),
(206,730,l),
(149,440,l),
(416,440,ls),
(567,440,o),
(620,405,o),
(603,322,cs),
(590,254,o),
(545,218,o),
(453,218,cs),
(94,218,l),
(52,0,l)
);
},
{
closed = 1;
nodes = (
(112,0,l),
(254,730,l),
(158,730,l),
(16,0,l)
);
}
);
};
layerId = "3DB69708-7E1C-4E45-A2A9-544E537DC395";
name = "25 févr. 25 à 14:02";
shapes = (
{
closed = 1;
nodes = (
(325,0,ls),
(586,0,o),
(704,204,o),
(703,423,cs),
(702,629,o),
(599,730,o),
(392,730,cs),
(206,730,l),
(149,440,l),
(416,440,ls),
(549,440,o),
(606,413,o),
(606,342,cs),
(606,266,o),
(551,218,o),
(453,218,cs),
(94,218,l),
(52,0,l)
);
},
{
closed = 1;
nodes = (
(112,0,l),
(254,730,l),
(158,730,l),
(16,0,l)
);
}
);
width = 712;
},
{
anchors = (
{
name = bottom;
pos = (281,0);
},
{
name = top;
pos = (412,730);
}
);
associatedMasterId = "41EDA971-A137-4972-81AF-7929AB7CAABF";
background = {
shapes = (
{
ref = O;
}
);
};
layerId = "2D3E347A-DF3C-4387-AAE0-5D860E531BBA";
name = "25 févr. 25 à 14:03";
shapes = (
{
closed = 1;
nodes = (
(325,0,ls),
(586,0,o),
(704,204,o),
(703,423,cs),
(702,629,o),
(599,730,o),
(392,730,cs),
(206,730,l),
(149,440,l),
(416,440,ls),
(549,440,o),
(606,413,o),
(606,342,cs),
(606,266,o),
(551,218,o),
(453,218,cs),
(94,218,l),
(52,0,l)
);
},
{
closed = 1;
nodes = (
(112,0,l),
(254,730,l),
(158,730,l),
(16,0,l)
);
}
);
width = 712;
}
);
metricLeft = "=H";
metricRight = "=O";
unicode = 68;
},
{
color = 3;
glyphname = Eth;
lastChange = "2025-02-28 10:13:28 +0000";
layers = (
{
layerId = "79167EE4-8C29-4BCE-A9E7-C1CFC4557E33";
shapes = (
{
closed = 1;
nodes = (
(419,337,l),
(419,387,l),
(68,387,l),
(68,337,l)
);
},
{
alignment = -1;
pos = (38,0);
ref = D;
}
);
width = 748;
},
{
layerId = "41EDA971-A137-4972-81AF-7929AB7CAABF";
shapes = (
{
closed = 1;
nodes = (
(399,284,l),
(399,384,l),
(13,384,l),
(13,284,l)
);
},
{
alignment = -1;
pos = (22,0);
ref = D;
}
);
width = 732;
},
{
associatedMasterId = "41EDA971-A137-4972-81AF-7929AB7CAABF";
layerId = "6245DDDC-0E6D-4BF3-ADE3-406C361624D3";
name = "15 déc. 24 à 14:24";
shapes = (
{
closed = 1;
nodes = (
(399,264,l),
(399,396,l),
(13,396,l),
(13,264,l)
);
},
{
alignment = -1;
pos = (22,0);
ref = D;
}
);
width = 678;
}
);
metricRight = "=D";
unicode = 208;
},
{
color = 3;
glyphname = E;
lastChange = "2025-02-28 10:13:28 +0000";
layers = (
{
anchors = (
{
name = bottom;
pos = (270,0);
},
{
name = ogonek;
pos = (441,0);
},
{
name = top;
pos = (412,730);
}
);
layerId = "79167EE4-8C29-4BCE-A9E7-C1CFC4557E33";
shapes = (
{
closed = 1;
nodes = (
(613,672,l),
(625,730,l),
(212,730,l),
(200,672,l)
);
},
{
closed = 1;
nodes = (
(76,0,l),
(218,730,l),
(186,730,l),
(44,0,l)
);
},
{
closed = 1;
nodes = (
(490,0,l),
(500,54,l),
(80,54,l),
(70,0,l)
);
},
{
closed = 1;
nodes = (
(470,345,l),
(480,395,l),
(149,395,l),
(139,345,l)
);
}
);
width = 595;
},
{
anchors = (
{
name = bottom;
pos = (281,0);
},
{
name = ogonek;
pos = (440,0);
},
{
name = top;
pos = (403,730);
}
);
layerId = "41EDA971-A137-4972-81AF-7929AB7CAABF";
shapes = (
{
closed = 1;
nodes = (
(594,450,l),
(649,730,l),
(196,730,l),
(141,450,l)
);
},
{
closed = 1;
nodes = (
(112,0,l),
(254,730,l),
(158,730,l),
(16,0,l)
);
},
{
closed = 1;
nodes = (
(512,0,l),
(552,208,l),
(94,208,l),
(54,0,l)
);
},
{
closed = 1;
nodes = (
(479,286,l),
(498,386,l),
(167,386,l),
(148,286,l)
);
}
);
width = 598;
}
);
metricLeft = "=H";
unicode = 69;
},
{
color = 3;
glyphname = Eogonek;
lastChange = "2025-02-27 15:30:55 +0000";
layers = (
{
background = {
shapes = (
{
closed = 1;
nodes = (
(506,-203,o),
(538,-185,o),
(552,-160,c),
(544,-125,l),
(526,-140,o),
(501,-150,o),
(467,-150,cs),
(431,-150,o),
(411,-135,o),
(411,-105,cs),
(411,-75,o),
(434,-40,o),
(518,0,c),
(493,11,l),
(409,-27,o),
(372,-77,o),
(372,-125,cs),
(372,-177,o),
(406,-203,o),
(461,-203,cs)
);
}
);
};
layerId = "79167EE4-8C29-4BCE-A9E7-C1CFC4557E33";
shapes = (
{
ref = E;
},
{
closed = 1;
nodes = (
(511,-203,o),
(543,-185,o),
(557,-160,c),
(549,-125,l),
(531,-140,o),
(506,-150,o),
(472,-150,cs),
(436,-150,o),
(416,-135,o),
(416,-105,cs),
(416,-75,o),
(438,-30,o),
(549,0,c),
(524,13,l),
(413,-15,o),
(377,-73,o),
(377,-125,cs),
(377,-177,o),
(411,-203,o),
(466,-203,cs)
);
}
);
width = 601;
},
{
background = {
shapes = (
{
closed = 1;
nodes = (
(516,-212,o),
(567,-183,o),
(585,-148,c),
(556,-63,l),
(530,-79,o),
(504,-87,o),
(484,-87,cs),
(456,-87,o),
(447,-79,o),
(447,-66,cs),
(447,-51,o),
(462,-29,o),
(543,0,c),
(480,25,l),
(376,-16,o),
(339,-56,o),
(339,-114,cs),
(339,-176,o),
(384,-212,o),
(458,-212,cs)
);
}
);
};
layerId = "41EDA971-A137-4972-81AF-7929AB7CAABF";
shapes = (
{
ref = E;
},
{
closed = 1;
nodes = (
(516,-212,o),
(567,-183,o),
(585,-148,c),
(556,-63,l),
(530,-79,o),
(504,-87,o),
(484,-87,cs),
(456,-87,o),
(447,-79,o),
(447,-66,cs),
(447,-51,o),
(462,-19,o),
(566,0,c),
(503,25,l),
(380,-6,o),
(339,-60,o),
(339,-118,cs),
(339,-177,o),
(384,-212,o),
(458,-212,cs)
);
}
);
width = 598;
}
);
unicode = 280;
},
{
color = 3;
glyphname = Schwa;
lastChange = "2025-02-28 10:13:28 +0000";
layers = (
{
background = {
shapes = (
{
closed = 0;
nodes = (
(125,570,l),
(87,641,l)
);
},
{
closed = 0;
nodes = (
(162,634,l),
(114,573,l)
);
},
{
closed = 0;
nodes = (
(139,677,l),
(96,609,l)
);
}
);
};
layerId = "79167EE4-8C29-4BCE-A9E7-C1CFC4557E33";
shapes = (
{
closed = 1;
nodes = (
(312,738,o),
(217,677,o),
(166,616,c),
(178,580,l),
(232,634,o),
(336,678,o),
(440,676,cs),
(632,673,o),
(710,583,o),
(668,365,cs),
(664,348,ls),
(629,164,o),
(490,50,o),
(315,50,cs),
(142,50,o),
(82,161,o),
(114,351,c),
(91,319,l),
(667,319,l),
(676,369,l),
(87,369,l),
(31,108,o),
(132,-8,o),
(305,-8,cs),
(496,-8,o),
(652,118,o),
(700,369,cs),
(748,612,o),
(653,738,o),
(462,738,cs)
);
}
);
userData = {
RMXScaler = {
height = 133;
weight = -38;
width = 133;
};
};
width = 728;
},
{
layerId = "41EDA971-A137-4972-81AF-7929AB7CAABF";
shapes = (
{
closed = 1;
nodes = (
(308,746,o),
(201,705,o),
(132,616,c),
(141,408,l),
(197,448,o),
(279,472,o),
(387,472,cs),
(547,472,o),
(608,427,o),
(593,348,cs),
(585,309,ls),
(572,241,o),
(509,202,o),
(326,202,cs),
(164,202,o),
(128,239,o),
(140,305,c),
(98,279,l),
(594,279,l),
(614,379,l),
(68,379,l),
(-2,103,o),
(80,-16,o),
(291,-16,cs),
(501,-16,o),
(633,120,o),
(682,369,cs),
(734,637,o),
(628,746,o),
(434,746,cs)
);
}
);
userData = {
RMXScaler = {
height = 130;
weight = 130;
width = 130;
};
};
width = 678;
},
{
associatedMasterId = "79167EE4-8C29-4BCE-A9E7-C1CFC4557E33";
layerId = "0484CAC9-D2C6-4D59-BEEA-38FE17EAC18C";
name = "13 déc. 24 à 14:40";
shapes = (
{
closed = 1;
nodes = (
(232,738,o),
(140,682,o),
(103,619,c),
(116,578,l),
(172,643,o),
(268,678,o),
(362,676,cs),
(544,673,o),
(650,573,o),
(650,365,cs),
(650,348,ls),
(650,164,o),
(534,50,o),
(359,50,cs),
(186,50,o),
(104,161,o),
(99,351,c),
(82,319,l),
(658,319,l),
(658,369,l),
(69,369,l),
(63,108,o),
(187,-8,o),
(360,-8,cs),
(551,-8,o),
(682,118,o),
(682,369,cs),
(682,612,o),
(553,738,o),
(372,738,cs)
);
}
);
userData = {
RMXScaler = {
height = 133;
weight = -38;
width = 133;
};
};
width = 728;
}
);
unicode = 399;
userData = {
RMXScaler = {
source = e;
};
};
},
{
glyphname = F;
lastChange = "2025-02-27 15:33:01 +0000";
layers = (
{
anchors = (
{
name = top;
pos = (406,730);
}
);
layerId = "79167EE4-8C29-4BCE-A9E7-C1CFC4557E33";
shapes = (
{
closed = 1;
nodes = (
(76,0,l),
(207,672,l),
(613,672,l),
(625,730,l),
(186,730,l),
(44,0,l)
);
},
{
closed = 1;
nodes = (
(470,345,l),
(480,395,l),
(141,395,l),
(131,345,l)
);
}
);
width = 551;
},
{
anchors = (
{
name = top;
pos = (319,730);
}
);
associatedMasterId = "41EDA971-A137-4972-81AF-7929AB7CAABF";
layerId = "949D69AF-422A-4020-AFAE-38E0CE880F74";
name = "16 déc. 24 à 17:37";
shapes = (
{
closed = 1;
nodes = (
(568,450,l),
(568,730,l),
(70,730,l),
(70,450,l)
);
},
{
closed = 1;
nodes = (
(166,0,l),
(166,730,l),
(70,730,l),
(70,0,l)
);
},
{
closed = 1;
nodes = (
(477,256,l),
(477,356,l),
(146,356,l),
(146,256,l)
);
}
);
width = 588;
},
{
anchors = (
{
name = top;
pos = (407,730);
}
);
layerId = "41EDA971-A137-4972-81AF-7929AB7CAABF";
name = Black;
shapes = (
{
closed = 1;
nodes = (
(112,0,l),
(199,450,l),
(601,450,l),
(656,730,l),
(158,730,l),
(16,0,l)
);
},
{
closed = 1;
nodes = (
(471,178,l),
(511,386,l),
(167,386,l),
(127,178,l)
);
}
);
width = 588;
}
);
metricLeft = "=H";
unicode = 70;
},
{
color = 3;
glyphname = G;
lastChange = "2025-02-28 10:13:28 +0000";
layers = (
{
anchors = (
{
name = bottom;
pos = (344,0);
},
{
name = top;
pos = (464,730);
}
);
layerId = "79167EE4-8C29-4BCE-A9E7-C1CFC4557E33";
shapes = (
{
closed = 1;
nodes = (
(462,-8,o),
(549,37,o),
(586,124,c),
(585,151,l),
(556,0,l),
(588,0,l),
(657,358,l),
(412,358,l),
(403,308,l),
(642,308,l),
(620,333,l),
(602,239,ls),
(578,112,o),
(485,49,o),
(358,49,cs),
(222,50,o),
(94,122,o),
(94,304,cs),
(94,484,o),
(196,676,o),
(441,676,cs),
(528,676,o),
(625,649,o),
(672,574,c),
(699,612,l),
(654,711,o),
(558,738,o),
(456,738,cs),
(179,738,o),
(58,493,o),
(59,294,cs),
(60,94,o),
(169,-6,o),
(345,-7,cs)
);
}
);
width = 703;
},
{
anchors = (
{
name = bottom;
pos = (341,0);
},
{
name = top;
pos = (467,730);
}
);
layerId = "41EDA971-A137-4972-81AF-7929AB7CAABF";
shapes = (
{
closed = 1;
nodes = (
(423,-16,o),
(496,10,o),
(547,101,c),
(537,121,l),
(514,0,l),
(610,0,l),
(680,368,l),
(383,368,l),
(364,268,l),
(597,268,l),
(580,342,l),
(563,259,ls),
(556,224,o),
(490,203,o),
(355,203,cs),
(200,203,o),
(124,236,o),
(124,317,cs),
(124,407,o),
(213,456,o),
(387,456,cs),
(530,456,o),
(580,436,o),
(627,387,c),
(728,591,l),
(685,695,o),
(596,746,o),
(431,746,cs),
(170,746,o),
(43,526,o),
(43,291,cs),
(43,70,o),
(150,-16,o),
(327,-16,cs)
);
}
);
width = 702;
},
{
anchors = (
{
name = bottom;
pos = (341,0);
},
{
name = top;
pos = (481,730);
}
);
associatedMasterId = "79167EE4-8C29-4BCE-A9E7-C1CFC4557E33";
layerId = "6B6FBEBB-C404-4373-AC15-78AC3AF772C9";
name = "3 févr. 25 à 18:10";
shapes = (
{
closed = 1;
nodes = (
(444,-8,o),
(545,42,o),
(586,139,c),
(582,151,l),
(553,0,l),
(585,0,l),
(654,358,l),
(409,358,l),
(400,308,l),
(639,308,l),
(617,333,l),
(602,254,ls),
(576,118,o),
(469,49,o),
(336,50,cs),
(158,51,o),
(55,154,o),
(96,366,cs),
(134,564,o),
(269,674,o),
(468,676,cs),
(561,677,o),
(642,641,o),
(676,583,c),
(703,621,l),
(675,686,o),
(612,738,o),
(480,738,cs),
(270,738,o),
(111,608,o),
(63,361,cs),
(18,132,o),
(112,-8,o),
(317,-8,cs)
);
}
);
width = 700;
},
{
anchors = (
{
name = bottom;
pos = (339,0);
},
{
name = top;
pos = (465,730);
}
);
associatedMasterId = "41EDA971-A137-4972-81AF-7929AB7CAABF";
layerId = "BD8024E0-949E-4789-931A-A2E901C93E03";
name = "4 févr. 25 à 15:12";
shapes = (
{
closed = 1;
nodes = (
(405,-16,o),
(490,8,o),
(548,114,c),
(534,121,l),
(511,0,l),
(608,0,l),
(679,368,l),
(381,368,l),
(362,268,l),
(650,268,l),
(582,364,l),
(564,272,ls),
(556,230,o),
(500,204,o),
(361,203,cs),
(165,202,o),
(116,256,o),
(131,331,cs),
(147,406,o),
(218,456,o),
(407,456,cs),
(522,456,o),
(578,440,o),
(629,399,c),
(733,605,l),
(697,691,o),
(622,746,o),
(484,746,cs),
(281,746,o),
(103,642,o),
(45,347,cs),
(-5,89,o),
(117,-16,o),
(289,-16,cs)
);
}
);
width = 700;
},
{
anchors = (
{
name = bottom;
pos = (339,0);
},
{
name = top;
pos = (465,730);
}
);
associatedMasterId = "41EDA971-A137-4972-81AF-7929AB7CAABF";
layerId = "0AF56F9D-AA59-4A91-A533-6B293CD71418";
name = "25 févr. 25 à 13:54";
shapes = (
{
closed = 1;
nodes = (
(421,-16,o),
(494,10,o),
(545,101,c),
(535,121,l),
(512,0,l),
(608,0,l),
(678,368,l),
(381,368,l),
(362,268,l),
(595,268,l),
(578,342,l),
(561,259,ls),
(554,223,o),
(499,201,o),
(385,201,cs),
(240,201,o),
(131,238,o),
(131,325,cs),
(131,419,o),
(222,459,o),
(359,459,cs),
(476,459,o),
(567,437,o),
(623,387,c),
(727,593,l),
(683,695,o),
(591,746,o),
(446,746,cs),
(159,746,o),
(38,495,o),
(38,273,cs),
(38,64,o),
(167,-16,o),
(325,-16,cs)
);
}
);
width = 700;
},
{
anchors = (
{
name = bottom;
pos = (341,0);
},
{
name = top;
pos = (467,730);
}
);
associatedMasterId = "41EDA971-A137-4972-81AF-7929AB7CAABF";
background = {
shapes = (
{
pos = (2,0);
ref = C;
}
);
};
layerId = "037F64B7-4BD2-49E5-AA41-DBE902C9EC49";
name = "25 févr. 25 à 14:03";
shapes = (
{
closed = 1;
nodes = (
(423,-16,o),
(496,10,o),
(547,101,c),
(537,121,l),
(514,0,l),
(610,0,l),
(680,368,l),
(383,368,l),
(364,268,l),
(597,268,l),
(580,342,l),
(563,259,ls),
(556,224,o),
(490,203,o),
(355,203,cs),
(203,203,o),
(128,237,o),
(128,318,cs),
(128,408,o),
(216,456,o),
(387,456,cs),
(495,456,o),
(575,435,o),
(625,387,c),
(729,593,l),
(685,695,o),
(593,746,o),
(442,746,cs),
(166,746,o),
(42,506,o),
(42,291,cs),
(42,73,o),
(149,-16,o),
(327,-16,cs)
);
}
);
width = 702;
},
{
anchors = (
{
name = bottom;
pos = (341,0);
},
{
name = top;
pos = (467,730);
}
);
associatedMasterId = "41EDA971-A137-4972-81AF-7929AB7CAABF";
background = {
shapes = (
{
ref = C;
}
);
};
layerId = "07CC2B41-31C3-46C8-9F08-14669FC336C9";
name = "25 févr. 25 à 14:33";
shapes = (
{
closed = 1;
nodes = (
(423,-16,o),
(496,10,o),
(547,101,c),
(537,121,l),
(514,0,l),
(610,0,l),
(680,368,l),
(383,368,l),
(364,268,l),
(597,268,l),
(580,342,l),
(563,259,ls),
(556,224,o),
(490,203,o),
(355,203,cs),
(200,203,o),
(124,236,o),
(124,317,cs),
(124,407,o),
(213,456,o),
(387,456,cs),
(495,456,o),
(575,435,o),
(625,387,c),
(729,593,l),
(685,695,o),
(596,746,o),
(431,746,cs),
(170,746,o),
(43,526,o),
(43,291,cs),
(43,70,o),
(150,-16,o),
(327,-16,cs)
);
}
);
width = 702;
}
);
metricLeft = "=O";
unicode = 71;
},
{
glyphname = H;
lastChange = "2025-02-27 15:33:01 +0000";
layers = (
{
anchors = (
{
name = top;
pos = (448,730);
}
);
layerId = "79167EE4-8C29-4BCE-A9E7-C1CFC4557E33";
shapes = (
{
closed = 1;
nodes = (
(617,351,l),
(627,401,l),
(147,401,l),
(137,351,l)
);
},
{
closed = 1;
nodes = (
(76,0,l),
(218,730,l),
(186,730,l),
(44,0,l)
);
},
{
closed = 1;
nodes = (
(574,0,l),
(716,730,l),
(684,730,l),
(542,0,l)
);
}
);
width = 724;
},
{
anchors = (
{
name = top;
pos = (461,730);
}
);
layerId = "41EDA971-A137-4972-81AF-7929AB7CAABF";
shapes = (
{
closed = 1;
nodes = (
(555,205,l),
(611,495,l),
(195,495,l),
(139,205,l)
);
},
{
closed = 1;
nodes = (
(112,0,l),
(254,730,l),
(158,730,l),
(16,0,l)
);
},
{
closed = 1;
nodes = (
(600,0,l),
(742,730,l),
(646,730,l),
(504,0,l)
);
}
);
width = 724;
}
);
unicode = 72;
},
{
color = 3;
glyphname = Hbar;
lastChange = "2025-02-27 15:31:28 +0000";
layers = (
{
layerId = "79167EE4-8C29-4BCE-A9E7-C1CFC4557E33";
shapes = (
{
closed = 1;
nodes = (
(751,547,l),
(751,597,l),
(32,597,l),
(32,547,l)
);
},
{
alignment = -1;
pos = (14,0);
ref = H;
}
);
width = 783;
},
{
layerId = "41EDA971-A137-4972-81AF-7929AB7CAABF";
shapes = (
{
closed = 1;
nodes = (
(704,561,l),
(704,661,l),
(-1,661,l),
(-1,561,l)
);
},
{
alignment = -1;
pos = (-6,0);
ref = H;
}
);
width = 703;
},
{
associatedMasterId = "41EDA971-A137-4972-81AF-7929AB7CAABF";
layerId = "F39DED25-ADB9-486F-8F3C-E056F27B6AB2";
name = "15 déc. 24 à 14:25";
shapes = (
{
closed = 1;
nodes = (
(704,549,l),
(704,681,l),
(-1,681,l),
(-1,549,l)
);
},
{
alignment = -1;
pos = (-6,0);
ref = H;
}
);
width = 703;
}
);
unicode = 294;
},
{
glyphname = I;
lastChange = "2025-02-27 15:33:01 +0000";
layers = (
{
anchors = (
{
name = ogonek;
pos = (192,0);
},
{
name = top;
pos = (299,730);
}
);
layerId = "79167EE4-8C29-4BCE-A9E7-C1CFC4557E33";
shapes = (
{
closed = 1;
nodes = (
(173,0,l),
(315,730,l),
(283,730,l),
(141,0,l)
);
},
{
closed = 1;
nodes = (
(319,0,l),
(329,54,l),
(9,54,l),
(-1,0,l)
);
},
{
closed = 1;
nodes = (
(454,672,l),
(466,730,l),
(136,730,l),
(124,672,l)
);
}
);
width = 424;
},
{
anchors = (
{
name = ogonek;
pos = (253,0);
},
{
name = top;
pos = (334,730);
}
);
layerId = "41EDA971-A137-4972-81AF-7929AB7CAABF";
shapes = (
{
closed = 1;
nodes = (
(247,36,l),
(373,683,l),
(277,683,l),
(151,36,l)
);
},
{
closed = 1;
nodes = (
(384,0,l),
(426,218,l),
(42,218,l),
(0,0,l)
);
},
{
closed = 1;
nodes = (
(469,440,l),
(526,730,l),
(142,730,l),
(85,440,l)
);
}
);
width = 492;
}
);
unicode = 73;
},
{
color = 3;
glyphname = Iogonek;
lastChange = "2025-02-27 15:30:55 +0000";
layers = (
{
background = {
shapes = (
{
closed = 1;
nodes = (
(251,-203,o),
(283,-185,o),
(297,-160,c),
(289,-125,l),
(271,-140,o),
(246,-150,o),
(212,-150,cs),
(176,-150,o),
(156,-135,o),
(156,-105,cs),
(156,-75,o),
(179,-40,o),
(263,0,c),
(238,11,l),
(154,-27,o),
(117,-77,o),
(117,-125,cs),
(117,-177,o),
(151,-203,o),
(206,-203,cs)
);
},
{
ref = I;
}
);
};
layerId = "79167EE4-8C29-4BCE-A9E7-C1CFC4557E33";
shapes = (
{
closed = 1;
nodes = (
(251,-203,o),
(283,-185,o),
(297,-160,c),
(289,-125,l),
(271,-140,o),
(246,-150,o),
(212,-150,cs),
(176,-150,o),
(156,-135,o),
(156,-105,cs),
(156,-75,o),
(176,-40,o),
(238,0,c),
(213,11,l),
(146,-31,o),
(117,-77,o),
(117,-124,cs),
(117,-177,o),
(151,-203,o),
(206,-203,cs)
);
},
{
ref = I;
}
);
width = 424;
},
{
layerId = "41EDA971-A137-4972-81AF-7929AB7CAABF";
shapes = (
{
closed = 1;
nodes = (
(320,-212,o),
(371,-183,o),
(389,-148,c),
(360,-63,l),
(337,-77,o),
(313,-87,o),
(287,-87,cs),
(263,-87,o),
(251,-77,o),
(251,-60,cs),
(251,-38,o),
(273,-13,o),
(315,0,c),
(258,25,l),
(180,-7,o),
(143,-60,o),
(143,-115,cs),
(143,-176,o),
(188,-212,o),
(261,-212,cs)
);
},
{
ref = I;
}
);
width = 492;
}
);
unicode = 302;
},
{
glyphname = J;
lastChange = "2025-02-27 15:33:01 +0000";
layers = (
{
anchors = (
{
name = top;
pos = (325,730);
}
);
background = {
shapes = (
{
closed = 1;
nodes = (
(215,-14,o),
(296,36,o),
(330,208,cs),
(431,730,l),
(399,730,l),
(300,222,ls),
(274,84,o),
(221,44,o),
(130,51,cs),
(80,54,o),
(33,75,o),
(13,107,c),
(-15,69,l),
(6,27,o),
(44,-2,o),
(118,-7,cs)
);
},
{
closed = 1;
nodes = (
(419,672,l),
(431,730,l),
(208,730,l),
(196,672,l)
);
}
);
};
layerId = "79167EE4-8C29-4BCE-A9E7-C1CFC4557E33";
shapes = (
{
closed = 1;
nodes = (
(224,-8,o),
(298,46,o),
(330,208,cs),
(431,730,l),
(399,730,l),
(300,222,ls),
(276,94,o),
(228,50,o),
(141,50,cs),
(92,50,o),
(36,71,o),
(13,107,c),
(-15,69,l),
(8,24,o),
(50,-8,o),
(135,-8,cs)
);
},
{
closed = 1;
nodes = (
(419,672,l),
(431,730,l),
(208,730,l),
(196,672,l)
);
}
);
width = 444;
},
{
anchors = (
{
name = top;
pos = (357,730);
}
);
layerId = "41EDA971-A137-4972-81AF-7929AB7CAABF";
shapes = (
{
closed = 1;
nodes = (
(333,-16,o),
(403,74,o),
(441,269,cs),
(531,730,l),
(435,730,l),
(355,318,ls),
(340,245,o),
(295,201,o),
(211,201,cs),
(152,201,o),
(99,223,o),
(58,262,c),
(-31,97,l),
(-1,28,o),
(63,-16,o),
(183,-16,cs)
);
},
{
closed = 1;
nodes = (
(430,440,l),
(487,730,l),
(173,730,l),
(116,440,l)
);
}
);
width = 503;
},
{
anchors = (
{
name = top;
pos = (325,730);
}
);
associatedMasterId = "79167EE4-8C29-4BCE-A9E7-C1CFC4557E33";
background = {
shapes = (
{
closed = 0;
nodes = (
(9,38,l),
(49,113,l)
);
},
{
closed = 0;
nodes = (
(37,110,l),
(88,45,l)
);
},
{
closed = 0;
nodes = (
(18,72,l),
(64,0,l)
);
}
);
};
layerId = "B77B7FC2-DEB3-4CF1-93E0-B2259FD8D7F1";
name = "3 févr. 25 à 18:13";
shapes = (
{
closed = 1;
nodes = (
(216,-8,o),
(298,47,o),
(332,220,cs),
(431,730,l),
(399,730,l),
(302,232,ls),
(275,93,o),
(222,50,o),
(131,50,cs),
(77,50,o),
(29,69,o),
(10,102,c),
(-18,64,l),
(2,20,o),
(41,-8,o),
(119,-8,cs)
);
},
{
closed = 1;
nodes = (
(419,672,l),
(431,730,l),
(208,730,l),
(196,672,l)
);
}
);
width = 444;
},
{
anchors = (
{
name = top;
pos = (357,730);
}
);
associatedMasterId = "41EDA971-A137-4972-81AF-7929AB7CAABF";
background = {
shapes = (
{
closed = 0;
nodes = (
(1,77,l),
(56,266,l)
);
},
{
closed = 0;
nodes = (
(41,28,l),
(0,100,l)
);
},
{
closed = 0;
nodes = (
(89,229,l),
(42,261,l)
);
}
);
};
layerId = "4B1DAD29-2548-4915-AD75-B91CB1D75272";
name = "4 févr. 25 à 15:19";
shapes = (
{
closed = 1;
nodes = (
(326,-16,o),
(404,77,o),
(444,285,cs),
(531,730,l),
(435,730,l),
(357,328,ls),
(341,249,o),
(290,202,o),
(192,202,cs),
(137,202,o),
(90,221,o),
(47,254,c),
(-31,91,l),
(-4,18,o),
(51,-16,o),
(154,-16,cs)
);
},
{
closed = 1;
nodes = (
(430,440,l),
(487,730,l),
(173,730,l),
(116,440,l)
);
}
);
width = 503;
},
{
anchors = (
{
name = top;
pos = (357,730);
}
);
associatedMasterId = "41EDA971-A137-4972-81AF-7929AB7CAABF";
layerId = "5A1766B4-EBFC-4ECB-BBF6-C2A7E8C0A7E0";
name = "25 févr. 25 à 14:33";
shapes = (
{
closed = 1;
nodes = (
(333,-16,o),
(403,74,o),
(441,269,cs),
(531,730,l),
(435,730,l),
(355,318,ls),
(340,245,o),
(295,201,o),
(211,201,cs),
(149,201,o),
(98,223,o),
(51,262,c),
(-27,98,l),
(3,20,o),
(65,-16,o),
(183,-16,cs)
);
},
{
closed = 1;
nodes = (
(430,440,l),
(487,730,l),
(173,730,l),
(116,440,l)
);
}
);
width = 503;
}
);
unicode = 74;
},
{
glyphname = K;
lastChange = "2025-02-27 15:33:01 +0000";
layers = (
{
anchors = (
{
name = bottom;
pos = (282,0);
},
{
name = top;
pos = (424,730);
}
);
layerId = "79167EE4-8C29-4BCE-A9E7-C1CFC4557E33";
shapes = (
{
closed = 1;
nodes = (
(718,730,l),
(651,730,l),
(120,289,l),
(115,229,l)
);
},
{
closed = 1;
nodes = (
(76,0,l),
(218,730,l),
(186,730,l),
(44,0,l)
);
},
{
closed = 1;
nodes = (
(575,0,l),
(285,420,l),
(259,399,l),
(534,0,l)
);
}
);
width = 662;
},
{
anchors = (
{
name = bottom;
pos = (301,0);
},
{
name = top;
pos = (443,730);
}
);
background = {
shapes = (
{
closed = 1;
nodes = (
(788,730,l),
(463,730,l),
(191,482,l),
(126,127,l)
);
},
{
closed = 1;
nodes = (
(112,0,l),
(254,730,l),
(158,730,l),
(16,0,l)
);
},
{
closed = 1;
nodes = (
(616,0,l),
(367,396,l),
(292,323,l),
(497,0,l)
);
}
);
};
layerId = "41EDA971-A137-4972-81AF-7929AB7CAABF";
shapes = (
{
closed = 1;
nodes = (
(788,730,l),
(463,730,l),
(191,482,l),
(126,127,l)
);
},
{
closed = 1;
nodes = (
(112,0,l),
(254,730,l),
(158,730,l),
(16,0,l)
);
},
{
closed = 1;
nodes = (
(612,0,l),
(362,396,l),
(297,323,l),
(501,0,l)
);
}
);
width = 657;
},
{
anchors = (
{
name = bottom;
pos = (266,0);
},
{
name = top;
pos = (408,730);
}
);
associatedMasterId = "79167EE4-8C29-4BCE-A9E7-C1CFC4557E33";
layerId = "4AEAC8B6-62ED-4BDB-AF98-3EF6ABC5DF50";
name = "3 févr. 25 à 18:15";
shapes = (
{
closed = 1;
nodes = (
(717,730,l),
(652,730,l),
(121,289,l),
(114,229,l)
);
},
{
closed = 1;
nodes = (
(76,0,l),
(218,730,l),
(186,730,l),
(44,0,l)
);
},
{
closed = 1;
nodes = (
(576,0,l),
(286,420,l),
(258,399,l),
(533,0,l)
);
}
);
width = 662;
},
{
anchors = (
{
name = bottom;
pos = (301,0);
},
{
name = top;
pos = (443,730);
}
);
associatedMasterId = "41EDA971-A137-4972-81AF-7929AB7CAABF";
layerId = "DB593888-33A8-43C1-9C5E-BA610E972217";
name = "4 févr. 25 à 15:21";
shapes = (
{
closed = 1;
nodes = (
(780,730,l),
(467,730,l),
(195,482,l),
(127,136,l)
);
},
{
closed = 1;
nodes = (
(113,0,l),
(255,730,l),
(158,730,l),
(16,0,l)
);
},
{
closed = 1;
nodes = (
(618,0,l),
(369,396,l),
(290,323,l),
(495,0,l)
);
}
);
width = 657;
},
{
anchors = (
{
name = bottom;
pos = (301,0);
},
{
name = top;
pos = (443,730);
}
);
associatedMasterId = "41EDA971-A137-4972-81AF-7929AB7CAABF";
background = {
shapes = (
{
closed = 1;
nodes = (
(788,730,l),
(463,730,l),
(191,482,l),
(126,127,l)
);
},
{
closed = 1;
nodes = (
(113,0,l),
(255,730,l),
(158,730,l),
(16,0,l)
);
},
{
closed = 1;
nodes = (
(616,0,l),
(367,396,l),
(292,323,l),
(497,0,l)
);
}
);
};
layerId = "077A2DE1-F0A5-459D-9AA7-B3BA4AEE19F5";
name = "25 févr. 25 à 12:14";
shapes = (
{
closed = 1;
nodes = (
(788,730,l),
(463,730,l),
(191,482,l),
(126,127,l)
);
},
{
closed = 1;
nodes = (
(112,0,l),
(254,730,l),
(158,730,l),
(16,0,l)
);
},
{
closed = 1;
nodes = (
(616,0,l),
(367,396,l),
(292,323,l),
(497,0,l)
);
}
);
width = 657;
}
);
metricLeft = "=H";
unicode = 75;
},
{
glyphname = L;
lastChange = "2025-02-27 15:33:01 +0000";
layers = (
{
anchors = (
{
name = bottom;
pos = (263,0);
},
{
name = caroncomb.alt;
pos = (326,730);
},
{
name = top;
pos = (201,730);
}
);
layerId = "79167EE4-8C29-4BCE-A9E7-C1CFC4557E33";
shapes = (
{
closed = 1;
nodes = (
(76,0,l),
(218,730,l),
(186,730,l),
(44,0,l)
);
},
{
closed = 1;
nodes = (
(463,0,l),
(473,54,l),
(82,54,l),
(72,0,l)
);
}
);
width = 531;
},
{
anchors = (
{
name = bottom;
pos = (236,0);
},
{
name = caroncomb.alt;
pos = (321,730);
},
{
name = top;
pos = (212,730);
}
);
layerId = "41EDA971-A137-4972-81AF-7929AB7CAABF";
shapes = (
{
closed = 1;
nodes = (
(112,0,l),
(254,730,l),
(158,730,l),
(16,0,l)
);
},
{
closed = 1;
nodes = (
(465,0,l),
(508,222,l),
(94,222,l),
(51,0,l)
);
}
);
width = 539;
}
);
metricLeft = "=H";
unicode = 76;
},
{
color = 3;
glyphname = Lslash;
lastChange = "2025-02-27 15:31:36 +0000";
layers = (
{
background = {
shapes = (
{
closed = 1;
nodes = (
(343,459,l),
(319,498,l),
(19,288,l),
(43,249,l)
);
}
);
};
layerId = "79167EE4-8C29-4BCE-A9E7-C1CFC4557E33";
shapes = (
{
closed = 1;
nodes = (
(345,458,l),
(318,500,l),
(17,289,l),
(44,247,l)
);
},
{
alignment = -1;
pos = (22,0);
ref = L;
}
);
width = 553;
},
{
layerId = "41EDA971-A137-4972-81AF-7929AB7CAABF";
shapes = (
{
closed = 1;
nodes = (
(439,512,l),
(390,599,l),
(-2,364,l),
(47,276,l)
);
},
{
alignment = -1;
pos = (54,0);
ref = L;
}
);
width = 593;
},
{
associatedMasterId = "41EDA971-A137-4972-81AF-7929AB7CAABF";
layerId = "5933AD87-3B68-483E-92F3-5E1867F7246D";
name = "15 déc. 24 à 14:25";
shapes = (
{
closed = 1;
nodes = (
(447,497,l),
(383,612,l),
(-9,377,l),
(55,261,l)
);
},
{
alignment = -1;
pos = (54,0);
ref = L;
}
);
width = 593;
}
);
metricRight = "=L";
unicode = 321;
},
{
glyphname = M;
lastChange = "2025-02-27 15:33:01 +0000";
layers = (
{
layerId = "79167EE4-8C29-4BCE-A9E7-C1CFC4557E33";
shapes = (
{
closed = 1;
nodes = (
(88,0,l),
(227,715,l),
(205,715,l),
(376,0,l),
(410,0,l),
(862,716,l),
(834,719,l),
(695,0,l),
(727,0,l),
(869,730,l),
(819,730,l),
(379,32,l),
(402,32,l),
(236,730,l),
(186,730,l),
(44,0,l)
);
}
);
width = 877;
},
{
background = {
shapes = (
{
closed = 1;
nodes = (
(183,0,l),
(289,545,l),
(267,550,l),
(378,0,l),
(499,0,l),
(823,550,l),
(797,563,l),
(688,0,l),
(785,0,l),
(927,730,l),
(668,730,l),
(391,260,l),
(429,260,l),
(335,730,l),
(158,730,l),
(16,0,l)
);
}
);
};
layerId = "41EDA971-A137-4972-81AF-7929AB7CAABF";
name = UltraBlack;
shapes = (
{
closed = 1;
nodes = (
(183,0,l),
(289,545,l),
(271,550,l),
(382,0,l),
(499,0,l),
(823,550,l),
(799,563,l),
(689,0,l),
(785,0,l),
(927,730,l),
(668,730,l),
(391,260,l),
(425,260,l),
(331,730,l),
(158,730,l),
(16,0,l)
);
}
);
width = 909;
},
{
associatedMasterId = "79167EE4-8C29-4BCE-A9E7-C1CFC4557E33";
layerId = "480DCE58-A6EF-4E74-871B-F4CB1BF97C04";
name = "3 févr. 25 à 18:15";
shapes = (
{
closed = 1;
nodes = (
(88,0,l),
(227,715,l),
(205,715,l),
(376,0,l),
(409,0,l),
(861,716,l),
(834,719,l),
(695,0,l),
(727,0,l),
(869,730,l),
(820,730,l),
(380,32,l),
(402,32,l),
(236,730,l),
(186,730,l),
(44,0,l)
);
}
);
width = 877;
},
{
associatedMasterId = "41EDA971-A137-4972-81AF-7929AB7CAABF";
layerId = "2C4B4003-AE57-45CD-AABE-89A63C3A4230";
name = "4 févr. 25 à 15:21";
shapes = (
{
closed = 1;
nodes = (
(183,0,l),
(289,545,l),
(265,550,l),
(376,0,l),
(493,0,l),
(817,550,l),
(797,563,l),
(688,0,l),
(785,0,l),
(927,730,l),
(674,730,l),
(397,260,l),
(431,260,l),
(337,730,l),
(158,730,l),
(16,0,l)
);
}
);
width = 909;
},
{
associatedMasterId = "41EDA971-A137-4972-81AF-7929AB7CAABF";
layerId = "824D71F4-D2EB-4B9E-BA4B-41477EFFEED8";
name = "25 févr. 25 à 12:14";
shapes = (
{
closed = 1;
nodes = (
(183,0,l),
(289,545,l),
(267,550,l),
(378,0,l),
(499,0,l),
(823,550,l),
(797,563,l),
(688,0,l),
(785,0,l),
(927,730,l),
(668,730,l),
(391,260,l),
(429,260,l),
(335,730,l),
(158,730,l),
(16,0,l)
);
}
);
width = 909;
}
);
metricLeft = "=H";
metricRight = "=H";
unicode = 77;
},
{
glyphname = N;
lastChange = "2025-02-27 15:33:01 +0000";
layers = (
{
anchors = (
{
name = bottom;
pos = (335,0);
},
{
name = top;
pos = (488,730);
}
);
layerId = "79167EE4-8C29-4BCE-A9E7-C1CFC4557E33";
shapes = (
{
closed = 1;
nodes = (
(76,0,l),
(209,687,l),
(197,687,l),
(586,0,l),
(624,0,l),
(766,730,l),
(734,730,l),
(600,45,l),
(617,45,l),
(231,730,l),
(186,730,l),
(44,0,l)
);
}
);
width = 774;
},
{
anchors = (
{
name = bottom;
pos = (334,0);
},
{
name = top;
pos = (507,730);
}
);
layerId = "41EDA971-A137-4972-81AF-7929AB7CAABF";
name = Black;
shapes = (
{
closed = 1;
nodes = (
(112,0,l),
(221,561,l),
(187,538,l),
(437,0,l),
(656,0,l),
(798,730,l),
(702,730,l),
(570,52,l),
(657,138,l),
(385,730,l),
(158,730,l),
(16,0,l)
);
}
);
width = 780;
},
{
anchors = (
{
name = bottom;
pos = (340,0);
},
{
name = top;
pos = (503,730);
}
);
associatedMasterId = "79167EE4-8C29-4BCE-A9E7-C1CFC4557E33";
layerId = "D014F7AB-75D1-4B33-A3D2-F0DF82E0F2A8";
name = "3 févr. 25 à 18:16";
shapes = (
{
closed = 1;
nodes = (
(76,0,l),
(209,687,l),
(195,687,l),
(584,0,l),
(624,0,l),
(766,730,l),
(734,730,l),
(600,45,l),
(618,45,l),
(232,730,l),
(186,730,l),
(44,0,l)
);
}
);
width = 774;
},
{
anchors = (
{
name = bottom;
pos = (334,0);
},
{
name = top;
pos = (507,730);
}
);
associatedMasterId = "41EDA971-A137-4972-81AF-7929AB7CAABF";
layerId = "25D84672-B786-41C2-B4FE-948A43C7642E";
name = "4 févr. 25 à 15:22";
shapes = (
{
closed = 1;
nodes = (
(112,0,l),
(221,561,l),
(179,538,l),
(429,0,l),
(656,0,l),
(798,730,l),
(702,730,l),
(570,52,l),
(665,138,l),
(393,730,l),
(158,730,l),
(16,0,l)
);
}
);
width = 780;
}
);
metricLeft = "=H";
metricRight = "=H";
unicode = 78;
},
{
color = 3;
glyphname = Eng;
lastChange = "2025-02-27 15:31:40 +0000";
layers = (
{
background = {
anchors = (
{
name = bottom;
pos = (365,0);
},
{
name = top;
pos = (429,730);
}
);
};
layerId = "79167EE4-8C29-4BCE-A9E7-C1CFC4557E33";
shapes = (
{
closed = 1;
nodes = (
(516,-204,o),
(596,-156,o),
(626,-6,cs),
(769,730,l),
(737,730,l),
(602,36,l),
(630,45,l),
(249,730,l),
(186,730,l),
(44,0,l),
(76,0,l),
(215,717,l),
(188,717,l),
(613,-44,l),
(595,0,l),
(573,-110,o),
(520,-146,o),
(431,-146,cs),
(377,-146,o),
(328,-125,o),
(307,-93,c),
(284,-134,l),
(298,-171,o),
(341,-204,o),
(419,-204,cs)
);
}
);
width = 777;
},
{
background = {
shapes = (
{
closed = 1;
nodes = (
(699,0,l),
(699,730,l),
(603,730,l),
(603,52,l),
(670,307,l),
(317,730,l),
(70,730,l),
(70,0,l),
(166,0,l),
(166,561,l),
(136,538,l),
(623,-23,l)
);
},
{
closed = 1;
nodes = (
(645,-211,o),
(699,-144,o),
(699,10,cs),
(699,524,l),
(603,524,l),
(603,8,ls),
(603,-21,o),
(567,-33,o),
(514,-33,cs),
(437,-33,o),
(390,-13,o),
(358,10,c),
(313,-135,l),
(337,-179,o),
(396,-211,o),
(495,-211,cs)
);
}
);
};
layerId = "41EDA971-A137-4972-81AF-7929AB7CAABF";
shapes = (
{
closed = 1;
nodes = (
(547,-211,o),
(614,-147,o),
(645,0,cs),
(787,730,l),
(691,730,l),
(615,342,l),
(646,352,l),
(405,730,l),
(158,730,l),
(16,0,l),
(112,0,l),
(218,548,l),
(186,537,l),
(572,-33,l),
(550,7,l),
(545,-21,o),
(506,-33,o),
(454,-33,cs),
(377,-33,o),
(333,-13,o),
(306,10,c),
(233,-135,l),
(248,-179,o),
(301,-211,o),
(400,-211,cs)
);
}
);
width = 769;
}
);
metricLeft = "=N";
metricRight = "=N";
unicode = 330;
},
{
glyphname = O;
lastChange = "2025-02-27 15:33:01 +0000";
layers = (
{
anchors = (
{
name = ogonek;
pos = (360,0);
},
{
name = top;
pos = (445,730);
}
);
background = {
shapes = (
{
closed = 1;
nodes = (
(582,-8,o),
(690,260,o),
(691,452,cs),
(691,629,o),
(590,738,o),
(421,738,cs),
(166,738,o),
(58,471,o),
(57,278,cs),
(57,100,o),
(158,-8,o),
(327,-8,cs)
);
},
{
closed = 1;
nodes = (
(178,50,o),
(91,147,o),
(91,296,cs),
(92,487,o),
(203,676,o),
(408,676,cs),
(570,676,o),
(657,581,o),
(657,432,cs),
(659,255,o),
(549,50,o),
(339,50,cs)
);
}
);
};
layerId = "79167EE4-8C29-4BCE-A9E7-C1CFC4557E33";
shapes = (
{
closed = 1;
nodes = (
(582,-8,o),
(690,250,o),
(690,442,cs),
(690,629,o),
(590,738,o),
(424,738,cs),
(166,738,o),
(58,481,o),
(58,288,cs),
(58,100,o),
(158,-8,o),
(323,-8,cs)
);
},
{
closed = 1;
nodes = (
(178,50,o),
(91,147,o),
(91,296,cs),
(92,487,o),
(203,676,o),
(408,676,cs),
(570,676,o),
(657,581,o),
(657,432,cs),
(659,255,o),
(549,50,o),
(339,50,cs)
);
}
);
width = 712;
},
{
anchors = (
{
name = ogonek;
pos = (367,0);
},
{
name = top;
pos = (444,730);
}
);
layerId = "41EDA971-A137-4972-81AF-7929AB7CAABF";
shapes = (
{
closed = 1;
nodes = (
(559,-16,o),
(703,179,o),
(703,450,cs),
(703,646,o),
(602,746,o),
(423,746,cs),
(188,746,o),
(43,551,o),
(43,281,cs),
(43,84,o),
(144,-16,o),
(323,-16,cs)
);
},
{
closed = 1;
nodes = (
(184,202,o),
(124,244,o),
(124,315,cs),
(124,407,o),
(215,456,o),
(381,456,cs),
(552,456,o),
(611,414,o),
(611,343,cs),
(611,251,o),
(521,202,o),
(354,202,cs)
);
}
);
width = 712;
},
{
anchors = (
{
name = ogonek;
pos = (360,0);
},
{
name = top;
pos = (445,730);
}
);
associatedMasterId = "79167EE4-8C29-4BCE-A9E7-C1CFC4557E33";
layerId = "562333FD-F74A-4DF3-BCA4-AECEF759C8A6";
name = "3 févr. 25 à 18:16";
shapes = (
{
closed = 1;
nodes = (
(488,-8,o),
(639,133,o),
(684,365,cs),
(729,597,o),
(633,738,o),
(446,738,cs),
(259,738,o),
(109,597,o),
(64,365,cs),
(19,133,o),
(114,-8,o),
(301,-8,cs)
);
},
{
closed = 1;
nodes = (
(137,50,o),
(59,176,o),
(96,365,cs),
(132,553,o),
(259,676,o),
(434,676,cs),
(610,676,o),
(688,553,o),
(652,365,cs),
(615,176,o),
(488,50,o),
(312,50,cs)
);
}
);
width = 712;
},
{
anchors = (
{
name = ogonek;
pos = (367,0);
},
{
name = top;
pos = (444,730);
}
);
associatedMasterId = "41EDA971-A137-4972-81AF-7929AB7CAABF";
layerId = "A7C301EF-BE0A-467A-AC39-ED201FC430A5";
name = "4 févr. 25 à 15:22";
shapes = (
{
closed = 1;
nodes = (
(481,-16,o),
(643,88,o),
(697,365,cs),
(751,643,o),
(629,746,o),
(447,746,cs),
(264,746,o),
(103,643,o),
(49,365,cs),
(-5,88,o),
(116,-16,o),
(299,-16,cs)
);
},
{
closed = 1;
nodes = (
(172,202,o),
(109,245,o),
(125,329,cs),
(141,413,o),
(222,456,o),
(391,456,cs),
(560,456,o),
(623,413,o),
(607,329,cs),
(591,245,o),
(510,202,o),
(341,202,cs)
);
}
);
width = 712;
},
{
anchors = (
{
name = ogonek;
pos = (367,0);
},
{
name = top;
pos = (444,730);
}
);
associatedMasterId = "41EDA971-A137-4972-81AF-7929AB7CAABF";
layerId = "C88085A7-1C8D-498B-BC15-9BAE93C5FBBF";
name = "25 févr. 25 à 13:38";
shapes = (
{
closed = 1;
nodes = (
(567,-16,o),
(706,178,o),
(706,451,cs),
(706,656,o),
(595,746,o),
(424,746,cs),
(192,746,o),
(40,550,o),
(40,282,cs),
(40,94,o),
(133,-16,o),
(329,-16,cs)
);
},
{
closed = 1;
nodes = (
(211,201,o),
(126,241,o),
(126,325,cs),
(126,406,o),
(198,457,o),
(354,457,cs),
(509,457,o),
(606,421,o),
(606,333,cs),
(606,247,o),
(524,201,o),
(378,201,cs)
);
}
);
width = 712;
},
{
anchors = (
{
name = ogonek;
pos = (367,0);
},
{
name = top;
pos = (444,730);
}
);
associatedMasterId = "41EDA971-A137-4972-81AF-7929AB7CAABF";
layerId = "D46C9F03-281A-4D58-B227-EF927625C1C5";
name = "25 févr. 25 à 13:57";
shapes = (
{
closed = 1;
nodes = (
(567,-16,o),
(706,178,o),
(706,451,cs),
(706,656,o),
(595,746,o),
(424,746,cs),
(192,746,o),
(40,550,o),
(40,282,cs),
(40,94,o),
(133,-16,o),
(329,-16,cs)
);
},
{
closed = 1;
nodes = (
(185,202,o),
(126,244,o),
(126,318,cs),
(126,407,o),
(216,456,o),
(380,456,cs),
(547,456,o),
(606,414,o),
(606,336,cs),
(606,251,o),
(516,202,o),
(353,202,cs)
);
}
);
width = 712;
},
{
anchors = (
{
name = ogonek;
pos = (367,0);
},
{
name = top;
pos = (444,730);
}
);
associatedMasterId = "41EDA971-A137-4972-81AF-7929AB7CAABF";
layerId = "8B42C17F-F845-47B2-BA8E-3D4A78E32205";
name = "25 févr. 25 à 13:57";
shapes = (
{
closed = 1;
nodes = (
(567,-16,o),
(706,178,o),
(706,451,cs),
(706,656,o),
(595,746,o),
(424,746,cs),
(192,746,o),
(40,550,o),
(40,282,cs),
(40,94,o),
(133,-16,o),
(329,-16,cs)
);
},
{
closed = 1;
nodes = (
(185,202,o),
(126,244,o),
(126,318,cs),
(126,407,o),
(216,456,o),
(380,456,cs),
(547,456,o),
(606,414,o),
(606,336,cs),
(606,251,o),
(516,202,o),
(353,202,cs)
);
}
);
width = 712;
},
{
anchors = (
{
name = ogonek;
pos = (367,0);
},
{
name = top;
pos = (444,730);
}
);
associatedMasterId = "41EDA971-A137-4972-81AF-7929AB7CAABF";
background = {
shapes = (
{
closed = 1;
nodes = (
(552,-16,o),
(703,180,o),
(703,448,cs),
(703,636,o),
(611,746,o),
(417,746,cs),
(181,746,o),
(43,552,o),
(43,279,cs),
(43,74,o),
(153,-16,o),
(317,-16,cs)
);
},
{
closed = 1;
nodes = (
(183,202,o),
(124,244,o),
(124,317,cs),
(124,407,o),
(214,456,o),
(380,456,cs),
(551,456,o),
(611,414,o),
(611,345,cs),
(611,251,o),
(520,202,o),
(353,202,cs)
);
}
);
};
layerId = "EF611725-AE0A-43CC-8A74-9C1BD39B8603";
name = "25 févr. 25 à 14:01";
shapes = (
{
closed = 1;
nodes = (
(565,-16,o),
(703,178,o),
(703,451,cs),
(703,656,o),
(593,746,o),
(429,746,cs),
(194,746,o),
(43,550,o),
(43,282,cs),
(43,94,o),
(135,-16,o),
(329,-16,cs)
);
},
{
closed = 1;
nodes = (
(184,202,o),
(124,244,o),
(124,313,cs),
(124,407,o),
(215,456,o),
(382,456,cs),
(552,456,o),
(611,414,o),
(611,341,cs),
(611,251,o),
(521,202,o),
(355,202,cs)
);
}
);
width = 712;
}
);
unicode = 79;
},
{
color = 3;
glyphname = Oslash;
lastChange = "2025-02-27 15:31:40 +0000";
layers = (
{
layerId = "79167EE4-8C29-4BCE-A9E7-C1CFC4557E33";
shapes = (
{
closed = 1;
nodes = (
(684,706,l),
(651,738,l),
(27,24,l),
(60,-8,l)
);
},
{
alignment = -1;
ref = O;
}
);
width = 694;
},
{
layerId = "41EDA971-A137-4972-81AF-7929AB7CAABF";
shapes = (
{
closed = 1;
nodes = (
(682,682,l),
(605,746,l),
(31,50,l),
(106,-16,l)
);
},
{
alignment = -1;
ref = O;
}
);
width = 712;
},
{
associatedMasterId = "41EDA971-A137-4972-81AF-7929AB7CAABF";
layerId = "44D1FD99-37B6-4924-89FC-BF0CB823339B";
name = "15 déc. 24 à 14:26";
shapes = (
{
closed = 1;
nodes = (
(669,676,l),
(567,762,l),
(8,53,l),
(107,-34,l)
);
},
{
alignment = -1;
ref = O;
}
);
width = 698;
},
{
associatedMasterId = "41EDA971-A137-4972-81AF-7929AB7CAABF";
layerId = "4846C9DB-2C53-4448-8B5E-93BC228FC9D2";
name = "23 janv. 25 à 11:57";
shapes = (
{
closed = 1;
nodes = (
(663,682,l),
(586,746,l),
(12,50,l),
(87,-16,l)
);
},
{
alignment = -1;
ref = O;
}
);
width = 698;
}
);
metricLeft = "=O@365";
metricRight = "=O@365";
unicode = 216;
},
{
color = 3;
glyphname = OE;
lastChange = "2025-02-28 10:13:28 +0000";
layers = (
{
background = {
shapes = (
{
closed = 1;
nodes = (
(395,730,l),
(202,730,o),
(75,595,o),
(75,365,cs),
(75,135,o),
(202,0,o),
(395,0,c),
(395,54,l),
(214,54,o),
(107,175,o),
(107,365,cs),
(107,554,o),
(214,672,o),
(395,672,c)
);
}
);
};
layerId = "79167EE4-8C29-4BCE-A9E7-C1CFC4557E33";
name = Light;
shapes = (
{
closed = 1;
nodes = (
(560,0,l),
(560,54,l),
(428,54,ls),
(223,54,o),
(107,159,o),
(107,363,cs),
(107,577,o),
(226,672,o),
(430,672,cs),
(560,672,l),
(560,730,l),
(425,730,ls),
(200,730,o),
(75,601,o),
(75,365,cs),
(75,139,o),
(190,0,o),
(425,0,cs)
);
},
{
alignment = -1;
pos = (440,0);
ref = E;
}
);
width = 1035;
},
{
layerId = "41EDA971-A137-4972-81AF-7929AB7CAABF";
name = Light;
shapes = (
{
closed = 1;
nodes = (
(490,0,l),
(490,208,l),
(278,208,ls),
(161,208,o),
(115,254,o),
(115,332,cs),
(115,411,o),
(161,450,o),
(279,450,cs),
(478,450,l),
(478,730,l),
(341,730,ls),
(167,730,o),
(32,631,o),
(32,365,cs),
(32,100,o),
(167,0,o),
(341,0,cs)
);
},
{
alignment = -1;
pos = (361,0);
ref = E;
}
);
width = 959;
}
);
metricLeft = "=O";
metricRight = "=E";
unicode = 338;
},
{
glyphname = P;
lastChange = "2025-02-27 15:33:01 +0000";
layers = (
{
anchors = (
{
name = top;
pos = (436,730);
}
);
background = {
shapes = (
{
closed = 1;
nodes = (
(389,283,ls),
(585,283,o),
(653,439,o),
(653,553,cs),
(653,666,o),
(578,730,o),
(420,730,cs),
(202,730,l),
(190,672,l),
(423,672,ls),
(559,672,o),
(619,615,o),
(619,531,cs),
(619,425,o),
(551,337,o),
(397,337,cs),
(130,337,l),
(120,283,l)
);
},
{
closed = 1;
nodes = (
(76,0,l),
(218,730,l),
(186,730,l),
(44,0,l)
);
}
);
};
layerId = "79167EE4-8C29-4BCE-A9E7-C1CFC4557E33";
shapes = (
{
closed = 1;
nodes = (
(389,283,ls),
(582,283,o),
(653,431,o),
(653,545,cs),
(653,666,o),
(578,730,o),
(420,730,cs),
(202,730,l),
(190,672,l),
(423,672,ls),
(559,672,o),
(619,615,o),
(619,531,cs),
(619,425,o),
(551,337,o),
(397,337,cs),
(130,337,l),
(120,283,l)
);
},
{
closed = 1;
nodes = (
(76,0,l),
(218,730,l),
(186,730,l),
(44,0,l)
);
}
);
width = 635;
},
{
anchors = (
{
name = top;
pos = (410,730);
}
);
background = {
shapes = (
{
closed = 1;
nodes = (
(345,132,ls),
(563,132,o),
(659,292,o),
(658,492,cs),
(657,662,o),
(583,730,o),
(383,730,cs),
(212,730,l),
(155,435,l),
(501,435,ls),
(542,435,o),
(561,421,o),
(561,399,cs),
(561,369,o),
(540,352,o),
(502,352,cs),
(153,352,l),
(111,132,l)
);
},
{
closed = 1;
nodes = (
(112,0,l),
(254,730,l),
(158,730,l),
(16,0,l)
);
}
);
};
layerId = "41EDA971-A137-4972-81AF-7929AB7CAABF";
shapes = (
{
closed = 1;
nodes = (
(343,132,ls),
(561,132,o),
(657,292,o),
(656,492,cs),
(655,662,o),
(571,730,o),
(371,730,cs),
(212,730,l),
(155,435,l),
(506,435,ls),
(547,435,o),
(566,421,o),
(566,399,cs),
(566,369,o),
(545,352,o),
(507,352,cs),
(153,352,l),
(111,132,l)
);
},
{
closed = 1;
nodes = (
(112,0,l),
(254,730,l),
(158,730,l),
(16,0,l)
);
}
);
width = 636;
},
{
anchors = (
{
name = top;
pos = (436,730);
}
);
associatedMasterId = "79167EE4-8C29-4BCE-A9E7-C1CFC4557E33";
layerId = "49A9DE18-F971-465A-A998-59351D94271F";
name = "3 févr. 25 à 18:17";
shapes = (
{
closed = 1;
nodes = (
(365,283,ls),
(523,283,o),
(624,369,o),
(651,507,cs),
(679,651,o),
(621,730,o),
(453,730,cs),
(202,730,l),
(190,672,l),
(442,672,ls),
(595,672,o),
(638,607,o),
(618,504,cs),
(597,400,o),
(522,337,o),
(369,337,cs),
(130,337,l),
(120,283,l)
);
},
{
closed = 1;
nodes = (
(76,0,l),
(218,730,l),
(186,730,l),
(44,0,l)
);
}
);
width = 635;
},
{
anchors = (
{
name = top;
pos = (410,730);
}
);
associatedMasterId = "41EDA971-A137-4972-81AF-7929AB7CAABF";
layerId = "8D39EA21-73A3-4060-B275-7C744974BCB9";
name = "4 févr. 25 à 15:25";
shapes = (
{
closed = 1;
nodes = (
(301,132,ls),
(494,132,o),
(605,203,o),
(650,434,cs),
(692,650,o),
(625,730,o),
(417,730,cs),
(212,730,l),
(155,435,l),
(511,435,ls),
(549,435,o),
(566,421,o),
(561,396,cs),
(555,367,o),
(537,352,o),
(494,352,cs),
(153,352,l),
(111,132,l)
);
},
{
closed = 1;
nodes = (
(112,0,l),
(254,730,l),
(158,730,l),
(16,0,l)
);
}
);
width = 636;
},
{
anchors = (
{
name = top;
pos = (410,730);
}
);
associatedMasterId = "41EDA971-A137-4972-81AF-7929AB7CAABF";
background = {
shapes = (
{
closed = 1;
nodes = (
(335,132,ls),
(505,132,o),
(605,202,o),
(646,415,cs),
(689,634,o),
(615,730,o),
(383,730,cs),
(212,730,l),
(155,435,l),
(498,435,ls),
(544,435,o),
(566,418,o),
(560,392,cs),
(555,366,o),
(539,352,o),
(502,352,cs),
(153,352,l),
(111,132,l)
);
},
{
closed = 1;
nodes = (
(112,0,l),
(254,730,l),
(158,730,l),
(16,0,l)
);
}
);
};
layerId = "8DA77B41-C06F-4A3E-9F97-F8038DBE5A9B";
name = "25 févr. 25 à 14:04";
shapes = (
{
closed = 1;
nodes = (
(345,132,ls),
(563,132,o),
(659,292,o),
(658,492,cs),
(657,662,o),
(583,730,o),
(383,730,cs),
(212,730,l),
(155,435,l),
(501,435,ls),
(542,435,o),
(561,421,o),
(561,399,cs),
(561,369,o),
(540,352,o),
(502,352,cs),
(153,352,l),
(111,132,l)
);
},
{
closed = 1;
nodes = (
(112,0,l),
(254,730,l),
(158,730,l),
(16,0,l)
);
}
);
width = 636;
}
);
metricLeft = "=H";
unicode = 80;
},
{
color = 3;
glyphname = Thorn;
lastChange = "2025-02-27 15:31:30 +0000";
layers = (
{
layerId = "79167EE4-8C29-4BCE-A9E7-C1CFC4557E33";
shapes = (
{
closed = 1;
nodes = (
(336,142,ls),
(487,142,o),
(598,232,o),
(624,365,cs),
(652,510,o),
(596,589,o),
(425,589,cs),
(176,589,l),
(165,531,l),
(416,531,ls),
(566,531,o),
(610,464,o),
(590,362,cs),
(570,261,o),
(490,196,o),
(339,196,cs),
(100,196,l),
(89,142,l)
);
},
{
closed = 1;
nodes = (
(76,0,l),
(218,730,l),
(186,730,l),
(44,0,l)
);
}
);
width = 635;
},
{
layerId = "41EDA971-A137-4972-81AF-7929AB7CAABF";
shapes = (
{
closed = 1;
nodes = (
(297,66,ls),
(480,66,o),
(592,140,o),
(634,357,cs),
(681,599,o),
(592,664,o),
(423,664,cs),
(199,664,l),
(142,369,l),
(498,369,ls),
(537,369,o),
(555,358,o),
(552,335,cs),
(549,302,o),
(525,285,o),
(481,285,cs),
(139,285,l),
(97,66,l)
);
},
{
closed = 1;
nodes = (
(112,0,l),
(254,730,l),
(158,730,l),
(16,0,l)
);
}
);
width = 635;
}
);
metricLeft = "=P";
metricRight = "=P";
unicode = 222;
},
{
glyphname = Q;
lastChange = "2025-02-27 15:33:01 +0000";
layers = (
{
layerId = "79167EE4-8C29-4BCE-A9E7-C1CFC4557E33";
shapes = (
{
closed = 1;
nodes = (
(634,-47,l),
(398,277,l),
(361,250,l),
(597,-74,l)
);
},
{
alignment = -1;
ref = O;
}
);
width = 712;
},
{
background = {
shapes = (
{
closed = 1;
nodes = (
(599,-38,l),
(410,345,l),
(315,292,l),
(503,-92,l)
);
}
);
};
layerId = "41EDA971-A137-4972-81AF-7929AB7CAABF";
shapes = (
{
closed = 1;
nodes = (
(592,-42,l),
(404,341,l),
(322,295,l),
(510,-88,l)
);
},
{
alignment = -1;
ref = O;
}
);
width = 712;
},
{
associatedMasterId = "41EDA971-A137-4972-81AF-7929AB7CAABF";
layerId = "D194D3A1-193B-4A67-AD6D-B78992CC1280";
name = "16 déc. 24 à 18:05";
shapes = (
{
closed = 1;
nodes = (
(652,-10,l),
(396,351,l),
(288,276,l),
(544,-86,l)
);
},
{
alignment = -1;
ref = O;
}
);
width = 712;
},
{
associatedMasterId = "41EDA971-A137-4972-81AF-7929AB7CAABF";
background = {
shapes = (
{
closed = 1;
nodes = (
(599,-38,l),
(410,345,l),
(315,292,l),
(503,-92,l)
);
}
);
};
layerId = "7008A50C-D01D-4195-8F61-038FD54FC8CC";
name = "25 févr. 25 à 12:15";
shapes = (
{
closed = 1;
nodes = (
(599,-38,l),
(410,345,l),
(315,292,l),
(503,-92,l)
);
},
{
alignment = -1;
ref = O;
}
);
width = 712;
}
);
metricLeft = "=O@365";
metricRight = "=O@365";
unicode = 81;
},
{
color = 3;
glyphname = R;
lastChange = "2025-02-28 10:13:28 +0000";
layers = (
{
anchors = (
{
name = bottom;
pos = (290,0);
},
{
name = top;
pos = (415,730);
}
);
background = {
shapes = (
{
closed = 1;
nodes = (
(588,-10,o),
(614,5,o),
(635,31,c),
(623,68,l),
(614,57,o),
(591,48,o),
(573,50,cs),
(527,53,o),
(504,75,o),
(516,175,cs),
(529,280,o),
(513,317,o),
(446,331,c),
(433,313,l),
(561,327,o),
(634,411,o),
(648,525,cs),
(663,652,o),
(599,730,o),
(393,730,cs),
(186,730,l),
(44,0,l),
(76,0,l),
(206,672,l),
(386,672,ls),
(564,672,o),
(626,611,o),
(614,512,cs),
(601,416,o),
(529,348,o),
(391,348,cs),
(133,348,l),
(124,298,l),
(398,298,ls),
(474,298,o),
(496,269,o),
(482,169,cs),
(464,35,o),
(487,-3,o),
(550,-7,cs)
);
}
);
};
layerId = "79167EE4-8C29-4BCE-A9E7-C1CFC4557E33";
shapes = (
{
closed = 1;
nodes = (
(593,-8,o),
(616,7,o),
(635,31,c),
(623,68,l),
(615,58,o),
(595,49,o),
(575,49,cs),
(524,49,o),
(507,82,o),
(516,175,cs),
(526,276,o),
(515,317,o),
(446,331,c),
(433,313,l),
(582,329,o),
(649,437,o),
(649,546,cs),
(650,666,o),
(580,730,o),
(393,730,cs),
(186,730,l),
(44,0,l),
(76,0,l),
(206,672,l),
(386,672,ls),
(550,672,o),
(615,622,o),
(612,530,cs),
(608,411,o),
(524,348,o),
(391,348,cs),
(133,348,l),
(124,298,l),
(398,298,ls),
(483,298,o),
(493,268,o),
(480,155,cs),
(467,36,o),
(488,-8,o),
(560,-8,cs)
);
}
);
width = 691;
},
{
anchors = (
{
name = bottom;
pos = (292,0);
},
{
name = top;
pos = (427,730);
}
);
layerId = "41EDA971-A137-4972-81AF-7929AB7CAABF";
shapes = (
{
closed = 1;
nodes = (
(577,-15,o),
(612,6,o),
(648,52,c),
(628,206,l),
(612,196,o),
(593,191,o),
(567,191,cs),
(535,191,o),
(517,202,o),
(514,236,cs),
(510,276,o),
(488,294,o),
(427,295,c),
(430,288,l),
(597,256,o),
(679,398,o),
(679,539,cs),
(679,667,o),
(609,730,o),
(466,730,cs),
(158,730,l),
(16,0,l),
(112,0,l),
(199,450,l),
(476,450,ls),
(520,450,o),
(539,438,o),
(539,411,cs),
(539,383,o),
(518,367,o),
(484,367,cs),
(169,367,l),
(137,209,l),
(371,209,ls),
(423,209,o),
(434,196,o),
(432,132,cs),
(429,49,o),
(439,-15,o),
(530,-15,cs)
);
}
);
width = 693;
},
{
anchors = (
{
name = bottom;
pos = (290,0);
},
{
name = top;
pos = (415,730);
}
);
associatedMasterId = "79167EE4-8C29-4BCE-A9E7-C1CFC4557E33";
background = {
shapes = (
{
closed = 0;
nodes = (
(657,80,l),
(695,9,l)
);
},
{
closed = 0;
nodes = (
(620,16,l),
(668,77,l)
);
},
{
closed = 0;
nodes = (
(643,-27,l),
(686,41,l)
);
}
);
};
layerId = "2B32BFE7-6ACB-4A5E-8F27-FD95F965CFBC";
name = "4 févr. 25 à 10:23";
shapes = (
{
closed = 1;
nodes = (
(587,-8,o),
(613,8,o),
(634,34,c),
(622,70,l),
(612,59,o),
(590,50,o),
(573,50,cs),
(527,50,o),
(504,72,o),
(516,177,cs),
(529,286,o),
(513,324,o),
(444,334,c),
(436,316,l),
(554,337,o),
(628,412,o),
(649,523,cs),
(674,652,o),
(626,730,o),
(449,730,cs),
(186,730,l),
(44,0,l),
(76,0,l),
(206,672,l),
(444,672,ls),
(589,672,o),
(635,612,o),
(616,515,cs),
(596,414,o),
(515,348,o),
(366,348,cs),
(133,348,l),
(124,298,l),
(396,298,ls),
(475,298,o),
(497,274,o),
(482,168,cs),
(463,29,o),
(487,-8,o),
(550,-8,cs)
);
}
);
width = 691;
},
{
anchors = (
{
name = bottom;
pos = (292,0);
},
{
name = top;
pos = (427,730);
}
);
associatedMasterId = "41EDA971-A137-4972-81AF-7929AB7CAABF";
background = {
shapes = (
{
closed = 0;
nodes = (
(689,42,l),
(637,222,l)
);
},
{
closed = 0;
nodes = (
(651,-5,l),
(690,64,l)
);
},
{
closed = 0;
nodes = (
(605,186,l),
(650,217,l)
);
}
);
};
layerId = "730B70ED-2F4B-47B8-B797-B12B61071FFA";
name = "4 févr. 25 à 15:31";
shapes = (
{
closed = 1;
nodes = (
(570,-16,o),
(608,6,o),
(646,55,c),
(631,210,l),
(611,198,o),
(591,192,o),
(571,192,cs),
(537,192,o),
(529,203,o),
(525,239,cs),
(520,287,o),
(494,295,o),
(427,295,c),
(430,285,l),
(568,270,o),
(645,354,o),
(674,506,cs),
(703,653,o),
(648,730,o),
(491,730,cs),
(158,730,l),
(16,0,l),
(112,0,l),
(199,450,l),
(493,450,ls),
(527,450,o),
(545,437,o),
(540,411,cs),
(534,382,o),
(517,367,o),
(478,367,cs),
(169,367,l),
(137,209,l),
(357,209,ls),
(414,209,o),
(429,198,o),
(425,133,cs),
(417,20,o),
(448,-16,o),
(518,-16,cs)
);
}
);
width = 693;
},
{
anchors = (
{
name = bottom;
pos = (292,0);
},
{
name = top;
pos = (427,730);
}
);
associatedMasterId = "41EDA971-A137-4972-81AF-7929AB7CAABF";
background = {
shapes = (
{
closed = 1;
nodes = (
(576,-15,o),
(611,5,o),
(646,50,c),
(631,206,l),
(614,196,o),
(597,191,o),
(579,191,cs),
(539,191,o),
(528,201,o),
(525,238,cs),
(520,286,o),
(494,295,o),
(427,296,c),
(430,288,l),
(597,256,o),
(679,398,o),
(679,539,cs),
(679,667,o),
(609,730,o),
(466,730,cs),
(158,730,l),
(16,0,l),
(112,0,l),
(199,450,l),
(476,450,ls),
(520,450,o),
(539,438,o),
(539,411,cs),
(539,383,o),
(518,367,o),
(484,367,cs),
(169,367,l),
(137,209,l),
(358,209,ls),
(414,209,o),
(429,196,o),
(425,132,cs),
(417,49,o),
(433,-15,o),
(530,-15,cs)
);
}
);
};
layerId = "6693D8AC-D5CF-430C-ABFE-ABDE80AFAB97";
name = "25 févr. 25 à 12:15";
shapes = (
{
closed = 1;
nodes = (
(576,-15,o),
(611,5,o),
(646,50,c),
(631,206,l),
(614,196,o),
(597,191,o),
(579,191,cs),
(539,191,o),
(528,201,o),
(525,238,cs),
(520,286,o),
(494,295,o),
(427,296,c),
(430,288,l),
(597,256,o),
(679,398,o),
(679,539,cs),
(679,667,o),
(609,730,o),
(466,730,cs),
(158,730,l),
(16,0,l),
(112,0,l),
(199,450,l),
(476,450,ls),
(520,450,o),
(539,438,o),
(539,411,cs),
(539,383,o),
(518,367,o),
(484,367,cs),
(169,367,l),
(137,209,l),
(358,209,ls),
(414,209,o),
(429,196,o),
(425,132,cs),
(417,49,o),
(433,-15,o),
(530,-15,cs)
);
}
);
width = 693;
},
{
anchors = (
{
name = bottom;
pos = (292,0);
},
{
name = top;
pos = (427,730);
}
);
associatedMasterId = "41EDA971-A137-4972-81AF-7929AB7CAABF";
background = {
shapes = (
{
closed = 1;
nodes = (
(576,-15,o),
(611,5,o),
(646,50,c),
(631,206,l),
(614,196,o),
(597,191,o),
(579,191,cs),
(539,191,o),
(528,201,o),
(525,238,cs),
(520,286,o),
(494,295,o),
(427,296,c),
(430,288,l),
(597,256,o),
(679,398,o),
(679,539,cs),
(679,667,o),
(609,730,o),
(466,730,cs),
(158,730,l),
(16,0,l),
(112,0,l),
(199,450,l),
(476,450,ls),
(520,450,o),
(539,438,o),
(539,411,cs),
(539,383,o),
(518,367,o),
(484,367,cs),
(169,367,l),
(137,209,l),
(358,209,ls),
(414,209,o),
(429,196,o),
(425,132,cs),
(417,49,o),
(433,-15,o),
(530,-15,cs)
);
}
);
};
layerId = "41A9CB64-91F7-45BB-B412-35FCDB21BFB2";
name = "25 févr. 25 à 14:05";
shapes = (
{
closed = 1;
nodes = (
(576,-15,o),
(611,5,o),
(646,50,c),
(631,206,l),
(614,196,o),
(597,191,o),
(576,191,cs),
(532,191,o),
(517,202,o),
(514,236,cs),
(511,276,o),
(488,294,o),
(427,295,c),
(430,288,l),
(597,256,o),
(679,398,o),
(679,539,cs),
(679,667,o),
(609,730,o),
(466,730,cs),
(158,730,l),
(16,0,l),
(112,0,l),
(199,450,l),
(476,450,ls),
(520,450,o),
(539,438,o),
(539,411,cs),
(539,383,o),
(518,367,o),
(484,367,cs),
(169,367,l),
(137,209,l),
(371,209,ls),
(423,209,o),
(434,196,o),
(432,132,cs),
(429,49,o),
(439,-15,o),
(530,-15,cs)
);
}
);
width = 693;
},
{
anchors = (
{
name = bottom;
pos = (292,0);
},
{
name = top;
pos = (427,730);
}
);
associatedMasterId = "41EDA971-A137-4972-81AF-7929AB7CAABF";
background = {
shapes = (
{
closed = 1;
nodes = (
(576,-15,o),
(611,5,o),
(646,50,c),
(631,206,l),
(614,196,o),
(597,191,o),
(579,191,cs),
(539,191,o),
(528,201,o),
(525,238,cs),
(520,286,o),
(494,295,o),
(427,296,c),
(430,288,l),
(597,256,o),
(679,398,o),
(679,539,cs),
(679,667,o),
(609,730,o),
(466,730,cs),
(158,730,l),
(16,0,l),
(112,0,l),
(199,450,l),
(476,450,ls),
(520,450,o),
(539,438,o),
(539,411,cs),
(539,383,o),
(518,367,o),
(484,367,cs),
(169,367,l),
(137,209,l),
(358,209,ls),
(414,209,o),
(429,196,o),
(425,132,cs),
(417,49,o),
(433,-15,o),
(530,-15,cs)
);
}
);
};
layerId = "36B25140-FFF0-4698-9EE1-5720B4238A19";
name = "25 févr. 25 à 14:37";
shapes = (
{
closed = 1;
nodes = (
(576,-15,o),
(611,5,o),
(646,50,c),
(631,206,l),
(614,196,o),
(597,191,o),
(576,191,cs),
(532,191,o),
(517,202,o),
(514,236,cs),
(511,276,o),
(488,294,o),
(427,295,c),
(430,288,l),
(597,256,o),
(679,398,o),
(679,539,cs),
(679,667,o),
(609,730,o),
(466,730,cs),
(158,730,l),
(16,0,l),
(112,0,l),
(199,450,l),
(476,450,ls),
(520,450,o),
(539,438,o),
(539,411,cs),
(539,383,o),
(518,367,o),
(484,367,cs),
(169,367,l),
(137,209,l),
(371,209,ls),
(423,209,o),
(434,196,o),
(432,132,cs),
(429,49,o),
(439,-15,o),
(530,-15,cs)
);
}
);
width = 693;
}
);
metricLeft = "=H";
unicode = 82;
},
{
color = 3;
glyphname = S;
lastChange = "2025-02-28 10:13:28 +0000";
layers = (
{
anchors = (
{
name = bottom;
pos = (266,0);
},
{
name = top;
pos = (421,730);
}
);
layerId = "79167EE4-8C29-4BCE-A9E7-C1CFC4557E33";
shapes = (
{
closed = 1;
nodes = (
(448,-8,o),
(559,79,o),
(559,221,cs),
(559,312,o),
(503,355,o),
(341,387,cs),
(203,414,o),
(158,449,o),
(156,514,cs),
(154,615,o),
(253,677,o),
(367,677,cs),
(440,679,o),
(545,654,o),
(593,576,c),
(621,614,l),
(588,683,o),
(517,738,o),
(387,738,cs),
(210,738,o),
(111,624,o),
(113,514,cs),
(115,421,o),
(176,379,o),
(323,352,cs),
(466,325,o),
(516,288,o),
(515,215,cs),
(514,114,o),
(431,50,o),
(301,50,cs),
(209,52,o),
(106,78,o),
(58,155,c),
(30,116,l),
(78,21,o),
(195,-7,o),
(292,-8,cs)
);
}
);
width = 621;
},
{
anchors = (
{
name = bottom;
pos = (272,0);
},
{
name = top;
pos = (409,730);
}
);
layerId = "41EDA971-A137-4972-81AF-7929AB7CAABF";
shapes = (
{
closed = 1;
nodes = (
(487,-16,o),
(590,68,o),
(590,211,cs),
(590,318,o),
(519,362,o),
(369,378,cs),
(239,391,o),
(205,401,o),
(205,430,cs),
(205,452,o),
(228,470,o),
(304,470,cs),
(420,470,o),
(501,450,o),
(559,401,c),
(660,607,l),
(613,713,o),
(518,746,o),
(378,746,cs),
(164,746,o),
(79,602,o),
(80,475,cs),
(81,351,o),
(146,306,o),
(293,290,cs),
(428,276,o),
(447,262,o),
(447,237,cs),
(447,210,o),
(425,190,o),
(351,190,cs),
(242,190,o),
(150,215,o),
(76,283,c),
(-9,124,l),
(30,25,o),
(142,-16,o),
(314,-16,cs)
);
}
);
width = 621;
},
{
anchors = (
{
name = bottom;
pos = (266,0);
},
{
name = top;
pos = (421,730);
}
);
associatedMasterId = "79167EE4-8C29-4BCE-A9E7-C1CFC4557E33";
background = {
shapes = (
{
closed = 0;
nodes = (
(573,649,l),
(533,574,l)
);
},
{
closed = 0;
nodes = (
(545,577,l),
(494,642,l)
);
},
{
closed = 0;
nodes = (
(564,615,l),
(518,687,l)
);
},
{
closed = 0;
nodes = (
(42,80,l),
(82,155,l)
);
},
{
closed = 0;
nodes = (
(70,152,l),
(121,87,l)
);
},
{
closed = 0;
nodes = (
(51,114,l),
(97,42,l)
);
}
);
};
layerId = "B8EF6713-43AE-4647-86C9-E8B26E9806F4";
name = "4 févr. 25 à 10:30";
shapes = (
{
closed = 1;
nodes = (
(417,-8,o),
(530,73,o),
(555,202,cs),
(577,313,o),
(530,364,o),
(341,387,cs),
(179,407,o),
(145,447,o),
(161,531,cs),
(176,608,o),
(244,673,o),
(393,676,cs),
(493,678,o),
(565,641,o),
(599,585,c),
(627,623,l),
(598,687,o),
(533,738,o),
(414,738,cs),
(266,738,o),
(142,657,o),
(118,529,cs),
(96,418,o),
(154,370,o),
(323,351,cs),
(488,332,o),
(530,291,o),
(514,208,cs),
(496,116,o),
(420,50,o),
(266,50,cs),
(170,50,o),
(85,88,o),
(51,144,c),
(23,106,l),
(52,42,o),
(128,-8,o),
(261,-8,cs)
);
}
);
width = 621;
},
{
anchors = (
{
name = bottom;
pos = (272,0);
},
{
name = top;
pos = (409,730);
}
);
associatedMasterId = "41EDA971-A137-4972-81AF-7929AB7CAABF";
background = {
shapes = (
{
closed = 0;
nodes = (
(16,92,l),
(71,281,l)
);
},
{
closed = 0;
nodes = (
(56,43,l),
(15,115,l)
);
},
{
closed = 0;
nodes = (
(104,244,l),
(57,276,l)
);
},
{
closed = 0;
nodes = (
(533,395,l),
(602,625,l)
);
},
{
closed = 0;
nodes = (
(551,403,l),
(492,443,l)
);
},
{
closed = 0;
nodes = (
(603,597,l),
(552,685,l)
);
}
);
};
layerId = "2975BA04-C7DF-41DA-A596-67BEF4EFD943";
name = "4 févr. 25 à 15:36";
shapes = (
{
closed = 1;
nodes = (
(449,-16,o),
(557,52,o),
(587,204,cs),
(612,336,o),
(528,374,o),
(369,380,cs),
(227,384,o),
(199,392,o),
(205,422,cs),
(210,449,o),
(246,466,o),
(358,466,cs),
(454,466,o),
(512,452,o),
(564,412,c),
(661,608,l),
(625,701,o),
(553,746,o),
(426,746,cs),
(245,746,o),
(116,660,o),
(85,498,cs),
(53,337,o),
(132,291,o),
(293,286,cs),
(428,281,o),
(453,271,o),
(447,240,cs),
(441,213,o),
(419,192,o),
(311,192,cs),
(198,192,o),
(130,217,o),
(66,269,c),
(-13,106,l),
(14,33,o),
(103,-16,o),
(250,-16,cs)
);
}
);
width = 621;
},
{
anchors = (
{
name = bottom;
pos = (272,0);
},
{
name = top;
pos = (409,730);
}
);
associatedMasterId = "41EDA971-A137-4972-81AF-7929AB7CAABF";
background = {
shapes = (
{
closed = 1;
nodes = (
(487,-16,o),
(590,68,o),
(590,211,cs),
(590,318,o),
(519,363,o),
(369,379,cs),
(239,392,o),
(205,401,o),
(205,430,cs),
(205,452,o),
(228,470,o),
(304,470,cs),
(420,470,o),
(501,450,o),
(559,401,c),
(655,597,l),
(609,711,o),
(511,746,o),
(378,746,cs),
(164,746,o),
(79,602,o),
(80,475,cs),
(81,351,o),
(146,305,o),
(293,289,cs),
(428,275,o),
(447,262,o),
(447,237,cs),
(447,210,o),
(425,190,o),
(351,190,cs),
(242,190,o),
(150,215,o),
(73,283,c),
(-6,120,l),
(35,24,o),
(163,-16,o),
(314,-16,cs)
);
}
);
};
layerId = "44183734-1101-4DBA-9697-7CF9DD10674F";
name = "25 févr. 25 à 14:38";
shapes = (
{
closed = 1;
nodes = (
(487,-16,o),
(590,68,o),
(590,211,cs),
(590,318,o),
(519,362,o),
(369,378,cs),
(239,391,o),
(205,401,o),
(205,430,cs),
(205,452,o),
(228,470,o),
(304,470,cs),
(420,470,o),
(501,450,o),
(559,401,c),
(655,597,l),
(609,711,o),
(511,746,o),
(378,746,cs),
(164,746,o),
(79,602,o),
(80,475,cs),
(81,351,o),
(146,306,o),
(293,290,cs),
(428,276,o),
(447,262,o),
(447,237,cs),
(447,210,o),
(425,190,o),
(351,190,cs),
(242,190,o),
(150,215,o),
(73,283,c),
(-6,120,l),
(35,24,o),
(163,-16,o),
(314,-16,cs)
);
}
);
width = 621;
}
);
unicode = 83;
},
{
color = 3;
glyphname = Germandbls;
lastChange = "2025-02-28 10:13:28 +0000";
layers = (
{
background = {
shapes = (
{
closed = 0;
nodes = (
(205,78,l),
(245,153,l)
);
},
{
closed = 0;
nodes = (
(233,150,l),
(284,85,l)
);
},
{
closed = 0;
nodes = (
(214,112,l),
(260,40,l)
);
}
);
};
layerId = "79167EE4-8C29-4BCE-A9E7-C1CFC4557E33";
shapes = (
{
closed = 1;
nodes = (
(543,-8,o),
(640,71,o),
(669,220,cs),
(693,344,o),
(622,411,o),
(464,416,c),
(454,390,l),
(696,643,l),
(705,692,l),
(666,718,o),
(576,738,o),
(489,738,cs),
(259,738,o),
(167,634,o),
(131,451,cs),
(44,0,l),
(76,0,l),
(163,450,ls),
(195,611,o),
(277,678,o),
(476,678,cs),
(554,678,o),
(633,660,o),
(667,639,c),
(677,665,l),
(409,385,l),
(406,367,l),
(596,370,o),
(652,306,o),
(634,211,cs),
(614,109,o),
(530,50,o),
(409,50,cs),
(324,50,o),
(247,85,o),
(213,142,c),
(186,104,l),
(215,40,o),
(280,-8,o),
(403,-8,cs)
);
}
);
width = 719;
},
{
layerId = "41EDA971-A137-4972-81AF-7929AB7CAABF";
shapes = (
{
closed = 1;
nodes = (
(586,-15,o),
(675,98,o),
(675,255,cs),
(675,347,o),
(625,407,o),
(523,429,c),
(513,392,l),
(690,531,l),
(717,672,l),
(670,710,o),
(542,744,o),
(426,744,cs),
(254,744,o),
(146,664,o),
(117,515,cs),
(16,0,l),
(110,0,l),
(180,361,ls),
(195,437,o),
(254,466,o),
(373,466,cs),
(444,466,o),
(489,456,o),
(518,444,c),
(500,462,l),
(381,373,l),
(391,286,l),
(563,282,o),
(592,267,o),
(592,238,cs),
(592,209,o),
(559,192,o),
(468,192,cs),
(371,192,o),
(298,215,o),
(267,250,c),
(185,102,l),
(217,19,o),
(310,-15,o),
(420,-15,cs)
);
}
);
width = 708;
},
{
associatedMasterId = "79167EE4-8C29-4BCE-A9E7-C1CFC4557E33";
layerId = "02915FC2-C982-4EA2-A6F8-D6AD64178E13";
name = "13 déc. 24 à 14:41";
shapes = (
{
closed = 1;
nodes = (
(604,-8,o),
(685,71,o),
(685,220,cs),
(685,344,o),
(601,411,o),
(442,416,c),
(437,390,l),
(630,643,l),
(630,692,l),
(593,718,o),
(514,738,o),
(415,738,cs),
(186,738,o),
(103,623,o),
(103,421,cs),
(103,0,l),
(135,0,l),
(135,420,ls),
(135,602,o),
(216,678,o),
(413,678,cs),
(502,678,o),
(571,660,o),
(602,639,c),
(607,665,l),
(393,385,l),
(394,367,l),
(583,370,o),
(652,306,o),
(652,211,cs),
(652,109,o),
(580,50,o),
(459,50,cs),
(374,50,o),
(287,87,o),
(243,143,c),
(227,103,l),
(261,43,o),
(341,-8,o),
(464,-8,cs)
);
}
);
width = 725;
},
{
associatedMasterId = "41EDA971-A137-4972-81AF-7929AB7CAABF";
layerId = "C912B858-6BAC-4B0A-91A6-F2A0843AAEC3";
name = "25 févr. 25 à 15:51";
shapes = (
{
closed = 1;
nodes = (
(524,-16,o),
(640,50,o),
(672,217,cs),
(696,339,o),
(653,414,o),
(542,432,c),
(525,396,l),
(690,531,l),
(722,697,l),
(685,724,o),
(601,746,o),
(484,746,cs),
(275,746,o),
(143,654,o),
(111,487,cs),
(16,0,l),
(110,0,l),
(176,341,ls),
(193,432,o),
(267,466,o),
(396,466,cs),
(456,466,o),
(500,458,o),
(517,449,c),
(500,462,l),
(381,373,l),
(391,281,l),
(568,284,o),
(599,269,o),
(593,238,cs),
(587,208,o),
(548,192,o),
(456,192,cs),
(346,192,o),
(298,207,o),
(261,239,c),
(179,91,l),
(201,22,o),
(271,-16,o),
(380,-16,cs)
);
}
);
width = 708;
},
{
associatedMasterId = "41EDA971-A137-4972-81AF-7929AB7CAABF";
background = {
shapes = (
{
closed = 1;
nodes = (
(522,-27,o),
(637,29,o),
(669,194,cs),
(694,321,o),
(646,403,o),
(523,429,c),
(513,392,l),
(690,531,l),
(717,672,l),
(679,702,o),
(598,730,o),
(485,741,cs),
(279,761,o),
(149,680,o),
(117,515,cs),
(16,0,l),
(110,0,l),
(180,361,ls),
(197,452,o),
(270,479,o),
(398,467,cs),
(457,461,o),
(501,449,o),
(518,438,c),
(500,462,l),
(381,373,l),
(391,286,l),
(566,272,o),
(597,254,o),
(591,223,cs),
(585,193,o),
(546,181,o),
(455,190,cs),
(351,199,o),
(303,217,o),
(267,250,c),
(185,102,l),
(210,37,o),
(278,-4,o),
(379,-13,cs)
);
}
);
};
layerId = "3AA4E662-66F2-499E-8685-E701025E4F6C";
name = "25 févr. 25 à 15:55";
shapes = (
{
closed = 1;
nodes = (
(310,-15,o),
(420,-15,cs),
(586,-15,o),
(675,98,o),
(675,255,cs),
(675,347,o),
(625,407,o),
(523,429,c),
(513,392,l),
(690,531,l),
(717,672,l),
(670,710,o),
(542,744,o),
(426,744,cs),
(254,744,o),
(146,664,o),
(117,515,cs),
(16,0,l),
(110,0,l),
(180,361,ls),
(195,439,o),
(250,470,o),
(345,470,cs),
(414,470,o),
(485,456,o),
(518,438,c),
(500,462,l),
(381,373,l),
(391,286,l),
(553,273,o),
(592,257,o),
(592,230,cs),
(592,203,o),
(564,187,o),
(515,187,cs),
(395,187,o),
(305,212,o),
(267,250,c),
(185,102,l),
(217,19,o)
);
}
);
width = 708;
}
);
metricLeft = "=H";
unicode = 7838;
},
{
glyphname = T;
lastChange = "2025-02-27 15:33:01 +0000";
layers = (
{
anchors = (
{
name = bottom;
pos = (227,0);
},
{
name = top;
pos = (361,730);
}
);
layerId = "79167EE4-8C29-4BCE-A9E7-C1CFC4557E33";
shapes = (
{
closed = 1;
nodes = (
(630,672,l),
(642,730,l),
(99,730,l),
(87,672,l)
);
},
{
closed = 1;
nodes = (
(243,0,l),
(385,730,l),
(353,730,l),
(211,0,l)
);
}
);
width = 563;
},
{
anchors = (
{
name = bottom;
pos = (243,0);
},
{
name = top;
pos = (385,730);
}
);
layerId = "41EDA971-A137-4972-81AF-7929AB7CAABF";
shapes = (
{
closed = 1;
nodes = (
(614,440,l),
(671,730,l),
(98,730,l),
(41,440,l)
);
},
{
closed = 1;
nodes = (
(291,0,l),
(422,675,l),
(326,675,l),
(195,0,l)
);
}
);
width = 593;
}
);
unicode = 84;
},
{
color = 3;
glyphname = Tbar;
lastChange = "2025-02-27 15:31:32 +0000";
layers = (
{
layerId = "79167EE4-8C29-4BCE-A9E7-C1CFC4557E33";
shapes = (
{
closed = 1;
nodes = (
(477,376,l),
(477,426,l),
(61,426,l),
(61,376,l)
);
},
{
alignment = -1;
ref = T;
}
);
width = 540;
},
{
layerId = "41EDA971-A137-4972-81AF-7929AB7CAABF";
shapes = (
{
closed = 1;
nodes = (
(556,237,l),
(556,337,l),
(62,337,l),
(62,237,l)
);
},
{
alignment = -1;
ref = T;
}
);
width = 613;
},
{
associatedMasterId = "41EDA971-A137-4972-81AF-7929AB7CAABF";
layerId = "3482D092-8A5E-41B9-B764-CB8BB6D6B1DB";
name = "15 déc. 24 à 14:28";
shapes = (
{
closed = 1;
nodes = (
(556,176,l),
(556,358,l),
(62,358,l),
(62,176,l)
);
},
{
alignment = -1;
ref = T;
}
);
width = 613;
}
);
unicode = 358;
},
{
glyphname = U;
lastChange = "2025-02-27 15:33:01 +0000";
layers = (
{
anchors = (
{
name = ogonek;
pos = (496,0);
},
{
name = top;
pos = (453,730);
}
);
layerId = "79167EE4-8C29-4BCE-A9E7-C1CFC4557E33";
shapes = (
{
closed = 1;
nodes = (
(450,-8,o),
(582,65,o),
(625,282,cs),
(713,730,l),
(681,730,l),
(596,294,ls),
(562,118,o),
(464,49,o),
(342,49,cs),
(160,49,o),
(90,149,o),
(124,327,cs),
(203,730,l),
(171,730,l),
(91,320,ls),
(50,111,o),
(123,-8,o),
(331,-8,cs)
);
}
);
width = 706;
},
{
anchors = (
{
name = ogonek;
pos = (350,0);
},
{
name = top;
pos = (453,730);
}
);
background = {
shapes = (
{
closed = 1;
nodes = (
(500,-27,o),
(623,76,o),
(670,320,cs),
(750,730,l),
(654,730,l),
(585,379,ls),
(560,249,o),
(490,193,o),
(350,203,cs),
(211,213,o),
(156,278,o),
(181,407,cs),
(244,730,l),
(148,730,l),
(72,340,ls),
(25,96,o),
(120,0,o),
(307,-13,cs)
);
}
);
};
layerId = "41EDA971-A137-4972-81AF-7929AB7CAABF";
shapes = (
{
closed = 1;
nodes = (
(510,-16,o),
(622,76,o),
(670,320,cs),
(750,730,l),
(654,730,l),
(586,379,ls),
(561,249,o),
(489,203,o),
(381,203,cs),
(210,203,o),
(156,278,o),
(181,407,cs),
(244,730,l),
(148,730,l),
(72,340,ls),
(25,97,o),
(120,-16,o),
(335,-16,cs)
);
}
);
width = 722;
},
{
anchors = (
{
name = ogonek;
pos = (496,0);
},
{
name = top;
pos = (453,730);
}
);
associatedMasterId = "79167EE4-8C29-4BCE-A9E7-C1CFC4557E33";
layerId = "73DE192F-16C6-46B4-B803-DDACF9833200";
name = "4 févr. 25 à 10:34";
shapes = (
{
closed = 1;
nodes = (
(451,-8,o),
(588,87,o),
(629,300,cs),
(713,730,l),
(681,730,l),
(599,310,ls),
(564,132,o),
(462,50,o),
(312,50,cs),
(157,50,o),
(86,132,o),
(121,310,cs),
(203,730,l),
(171,730,l),
(87,301,ls),
(46,91,o),
(120,-8,o),
(303,-8,cs)
);
}
);
width = 706;
},
{
anchors = (
{
name = ogonek;
pos = (350,0);
},
{
name = top;
pos = (453,730);
}
);
associatedMasterId = "41EDA971-A137-4972-81AF-7929AB7CAABF";
layerId = "FBAD1F49-B619-4D13-8D28-484E476285E3";
name = "4 févr. 25 à 15:40";
shapes = (
{
closed = 1;
nodes = (
(502,-16,o),
(626,95,o),
(674,341,cs),
(750,730,l),
(654,730,l),
(588,393,ls),
(563,262,o),
(491,202,o),
(350,202,cs),
(209,202,o),
(153,262,o),
(178,393,cs),
(244,730,l),
(148,730,l),
(68,318,ls),
(20,72,o),
(117,-16,o),
(307,-16,cs)
);
}
);
width = 722;
}
);
unicode = 85;
},
{
color = 3;
glyphname = Uogonek;
lastChange = "2024-12-15 12:16:50 +0000";
layers = (
{
background = {
shapes = (
{
ref = U;
},
{
pos = (299,0);
ref = ogonekcomb;
}
);
};
layerId = "79167EE4-8C29-4BCE-A9E7-C1CFC4557E33";
shapes = (
{
ref = U;
},
{
closed = 1;
nodes = (
(559,-203,o),
(588,-185,o),
(601,-160,c),
(593,-125,l),
(576,-140,o),
(553,-150,o),
(521,-150,cs),
(482,-150,o),
(460,-135,o),
(460,-99,cs),
(460,-57,o),
(483,-8,o),
(558,79,c),
(533,82,l),
(458,4,o),
(421,-58,o),
(421,-119,cs),
(421,-177,o),
(458,-203,o),
(516,-203,cs)
);
}
);
width = 706;
},
{
layerId = "41EDA971-A137-4972-81AF-7929AB7CAABF";
shapes = (
{
ref = U;
},
{
closed = 1;
nodes = (
(417,-221,o),
(466,-185,o),
(484,-141,c),
(455,-55,l),
(433,-76,o),
(406,-94,o),
(380,-94,cs),
(361,-94,o),
(348,-84,o),
(348,-71,cs),
(348,-54,o),
(363,-31,o),
(448,0,c),
(381,25,l),
(277,-17,o),
(240,-60,o),
(240,-120,cs),
(240,-184,o),
(285,-221,o),
(359,-221,cs)
);
}
);
width = 712;
}
);
unicode = 370;
},
{
glyphname = V;
lastChange = "2025-02-27 15:33:01 +0000";
layers = (
{
anchors = (
{
name = top;
pos = (414,730);
}
);
layerId = "79167EE4-8C29-4BCE-A9E7-C1CFC4557E33";
shapes = (
{
closed = 1;
nodes = (
(292,0,l),
(744,730,l),
(693,730,l),
(267,44,l),
(284,35,l),
(124,730,l),
(89,730,l),
(257,0,l)
);
}
);
width = 655;
},
{
anchors = (
{
name = top;
pos = (435,730);
}
);
background = {
shapes = (
{
closed = 1;
nodes = (
(372,0,l),
(829,730,l),
(568,730,l),
(256,230,l),
(285,230,l),
(189,730,l),
(88,730,l),
(228,0,l)
);
}
);
};
layerId = "41EDA971-A137-4972-81AF-7929AB7CAABF";
shapes = (
{
closed = 1;
nodes = (
(372,0,l),
(829,730,l),
(568,730,l),
(256,230,l),
(282,230,l),
(186,730,l),
(90,730,l),
(230,0,l)
);
}
);
width = 738;
},
{
anchors = (
{
name = top;
pos = (414,730);
}
);
associatedMasterId = "79167EE4-8C29-4BCE-A9E7-C1CFC4557E33";
layerId = "2B841869-6C8C-4708-8C11-40C04B34ED61";
name = "4 févr. 25 à 10:36";
shapes = (
{
closed = 1;
nodes = (
(292,0,l),
(744,730,l),
(694,730,l),
(268,44,l),
(284,35,l),
(124,730,l),
(89,730,l),
(257,0,l)
);
}
);
width = 655;
},
{
anchors = (
{
name = top;
pos = (435,730);
}
);
associatedMasterId = "41EDA971-A137-4972-81AF-7929AB7CAABF";
layerId = "9D152EA4-DC92-440E-A4B7-854FF7E47ABF";
name = "4 févr. 25 à 15:42";
shapes = (
{
closed = 1;
nodes = (
(369,0,l),
(826,730,l),
(573,730,l),
(261,230,l),
(287,230,l),
(191,730,l),
(88,730,l),
(228,0,l)
);
}
);
width = 738;
},
{
anchors = (
{
name = top;
pos = (435,730);
}
);
associatedMasterId = "41EDA971-A137-4972-81AF-7929AB7CAABF";
layerId = "2DBBC5C1-2770-4DE8-BDA5-9E0BA8CDF25F";
name = "25 févr. 25 à 12:17";
shapes = (
{
closed = 1;
nodes = (
(372,0,l),
(829,730,l),
(568,730,l),
(256,230,l),
(285,230,l),
(189,730,l),
(88,730,l),
(228,0,l)
);
}
);
width = 738;
}
);
unicode = 86;
},
{
glyphname = W;
lastChange = "2025-02-27 15:33:01 +0000";
layers = (
{
anchors = (
{
name = top;
pos = (549,730);
}
);
layerId = "79167EE4-8C29-4BCE-A9E7-C1CFC4557E33";
shapes = (
{
closed = 1;
nodes = (
(211,0,l),
(521,581,l),
(509,581,l),
(592,0,l),
(628,0,l),
(998,730,l),
(948,730,l),
(599,41,l),
(620,41,l),
(535,633,l),
(499,633,l),
(183,41,l),
(205,41,l),
(123,730,l),
(89,730,l),
(176,0,l)
);
}
);
width = 909;
},
{
anchors = (
{
name = top;
pos = (553,730);
}
);
background = {
shapes = (
{
closed = 1;
nodes = (
(328,0,l),
(541,373,l),
(504,373,l),
(550,0,l),
(704,0,l),
(1077,730,l),
(828,730,l),
(570,224,l),
(618,224,l),
(574,658,l),
(448,658,l),
(195,211,l),
(251,211,l),
(188,730,l),
(88,730,l),
(176,0,l)
);
}
);
};
layerId = "41EDA971-A137-4972-81AF-7929AB7CAABF";
shapes = (
{
closed = 1;
nodes = (
(328,0,l),
(541,373,l),
(506,373,l),
(552,0,l),
(704,0,l),
(1077,730,l),
(828,730,l),
(570,224,l),
(617,224,l),
(573,658,l),
(448,658,l),
(195,211,l),
(247,211,l),
(185,730,l),
(90,730,l),
(178,0,l)
);
}
);
width = 986;
},
{
anchors = (
{
name = top;
pos = (549,730);
}
);
associatedMasterId = "79167EE4-8C29-4BCE-A9E7-C1CFC4557E33";
layerId = "392351D2-4546-4B3F-9D44-CE8A9C3BFFFB";
name = "4 févr. 25 à 10:37";
shapes = (
{
closed = 1;
nodes = (
(211,0,l),
(521,581,l),
(509,581,l),
(592,0,l),
(627,0,l),
(997,730,l),
(949,730,l),
(600,41,l),
(620,41,l),
(535,633,l),
(500,633,l),
(184,41,l),
(205,41,l),
(123,730,l),
(89,730,l),
(176,0,l)
);
}
);
width = 908;
},
{
anchors = (
{
name = top;
pos = (553,730);
}
);
associatedMasterId = "41EDA971-A137-4972-81AF-7929AB7CAABF";
layerId = "05D0F16C-0636-4D84-AE4A-8C4E000F8EE7";
name = "4 févr. 25 à 15:43";
shapes = (
{
closed = 1;
nodes = (
(324,0,l),
(537,373,l),
(503,373,l),
(549,0,l),
(701,0,l),
(1074,730,l),
(831,730,l),
(573,224,l),
(619,224,l),
(575,658,l),
(451,658,l),
(198,211,l),
(252,211,l),
(189,730,l),
(88,730,l),
(176,0,l)
);
}
);
width = 986;
},
{
anchors = (
{
name = top;
pos = (553,730);
}
);
associatedMasterId = "41EDA971-A137-4972-81AF-7929AB7CAABF";
background = {
shapes = (
{
closed = 1;
nodes = (
(328,0,l),
(541,373,l),
(504,373,l),
(550,0,l),
(704,0,l),
(1077,730,l),
(828,730,l),
(570,224,l),
(618,224,l),
(574,658,l),
(448,658,l),
(195,211,l),
(251,211,l),
(188,730,l),
(88,730,l),
(176,0,l)
);
}
);
};
layerId = "3D1EEE6D-C840-411B-B0B3-7D8765AB9DDE";
name = "25 févr. 25 à 12:17";
shapes = (
{
closed = 1;
nodes = (
(328,0,l),
(541,373,l),
(504,373,l),
(550,0,l),
(704,0,l),
(1077,730,l),
(828,730,l),
(570,224,l),
(618,224,l),
(574,658,l),
(448,658,l),
(195,211,l),
(251,211,l),
(188,730,l),
(88,730,l),
(176,0,l)
);
}
);
width = 986;
}
);
metricLeft = "=V";
metricRight = "=V";
unicode = 87;
},
{
glyphname = X;
lastChange = "2025-02-27 15:33:01 +0000";
layers = (
{
anchors = (
{
name = top;
pos = (408,730);
}
);
layerId = "79167EE4-8C29-4BCE-A9E7-C1CFC4557E33";
shapes = (
{
closed = 1;
nodes = (
(45,0,l),
(345,334,l),
(362,352,l),
(699,730,l),
(641,730,l),
(334,385,l),
(329,381,l),
(-13,0,l)
);
},
{
closed = 1;
nodes = (
(555,0,l),
(361,361,l),
(333,342,l),
(517,0,l)
);
},
{
closed = 1;
nodes = (
(348,384,l),
(163,730,l),
(125,730,l),
(322,361,l)
);
}
);
width = 634;
},
{
anchors = (
{
name = top;
pos = (466,730);
}
);
background = {
shapes = (
{
closed = 1;
nodes = (
(228,0,l),
(435,255,l),
(471,290,l),
(825,730,l),
(544,730,l),
(345,484,l),
(306,446,l),
(-53,0,l)
);
},
{
closed = 1;
nodes = (
(649,0,l),
(472,344,l),
(399,266,l),
(535,0,l)
);
},
{
closed = 1;
nodes = (
(404,432,l),
(248,730,l),
(136,730,l),
(329,353,l)
);
}
);
};
layerId = "41EDA971-A137-4972-81AF-7929AB7CAABF";
shapes = (
{
closed = 1;
nodes = (
(228,0,l),
(435,255,l),
(471,290,l),
(825,730,l),
(544,730,l),
(345,484,l),
(306,446,l),
(-53,0,l)
);
},
{
closed = 1;
nodes = (
(645,0,l),
(468,344,l),
(403,266,l),
(539,0,l)
);
},
{
closed = 1;
nodes = (
(399,432,l),
(245,730,l),
(139,730,l),
(334,353,l)
);
}
);
width = 734;
},
{
anchors = (
{
name = top;
pos = (408,730);
}
);
associatedMasterId = "79167EE4-8C29-4BCE-A9E7-C1CFC4557E33";
layerId = "4FB46A1A-9289-4166-83E7-C7ECC3D07EC6";
name = "4 févr. 25 à 10:38";
shapes = (
{
closed = 1;
nodes = (
(44,0,l),
(344,334,l),
(361,352,l),
(698,730,l),
(642,730,l),
(335,385,l),
(330,381,l),
(-12,0,l)
);
},
{
closed = 1;
nodes = (
(556,0,l),
(362,361,l),
(332,342,l),
(516,0,l)
);
},
{
closed = 1;
nodes = (
(349,384,l),
(164,730,l),
(125,730,l),
(322,361,l)
);
}
);
width = 634;
},
{
anchors = (
{
name = top;
pos = (466,730);
}
);
associatedMasterId = "41EDA971-A137-4972-81AF-7929AB7CAABF";
layerId = "8A47FEA9-EDE1-40A6-98A3-DBD6262492FF";
name = "4 févr. 25 à 15:44";
shapes = (
{
closed = 1;
nodes = (
(223,0,l),
(430,255,l),
(466,290,l),
(820,730,l),
(549,730,l),
(350,484,l),
(311,446,l),
(-48,0,l)
);
},
{
closed = 1;
nodes = (
(651,0,l),
(474,344,l),
(397,266,l),
(533,0,l)
);
},
{
closed = 1;
nodes = (
(406,432,l),
(250,730,l),
(135,730,l),
(328,353,l)
);
}
);
width = 734;
},
{
anchors = (
{
name = top;
pos = (466,730);
}
);
associatedMasterId = "41EDA971-A137-4972-81AF-7929AB7CAABF";
layerId = "25FEB61B-86D8-4A47-8FA8-326584D1EB14";
name = "25 févr. 25 à 12:18";
shapes = (
{
closed = 1;
nodes = (
(228,0,l),
(435,255,l),
(471,290,l),
(825,730,l),
(544,730,l),
(345,484,l),
(306,446,l),
(-53,0,l)
);
},
{
closed = 1;
nodes = (
(649,0,l),
(472,344,l),
(399,266,l),
(535,0,l)
);
},
{
closed = 1;
nodes = (
(404,432,l),
(248,730,l),
(136,730,l),
(329,353,l)
);
}
);
width = 734;
}
);
unicode = 88;
},
{
glyphname = Y;
lastChange = "2025-02-27 15:33:01 +0000";
layers = (
{
anchors = (
{
name = top;
pos = (394,730);
}
);
layerId = "79167EE4-8C29-4BCE-A9E7-C1CFC4557E33";
shapes = (
{
closed = 1;
nodes = (
(323,294,l),
(689,730,l),
(631,730,l),
(304,340,l),
(326,340,l),
(141,730,l),
(105,730,l),
(311,294,l)
);
},
{
closed = 1;
nodes = (
(274,0,l),
(339,336,l),
(307,336,l),
(242,0,l)
);
}
);
width = 600;
},
{
anchors = (
{
name = top;
pos = (412,730);
}
);
background = {
shapes = (
{
closed = 1;
nodes = (
(342,210,l),
(800,730,l),
(509,730,l),
(262,452,l),
(301,451,l),
(197,730,l),
(89,730,l),
(280,210,l)
);
},
{
closed = 1;
nodes = (
(318,0,l),
(380,321,l),
(284,321,l),
(222,0,l)
);
}
);
};
layerId = "41EDA971-A137-4972-81AF-7929AB7CAABF";
shapes = (
{
closed = 1;
nodes = (
(342,210,l),
(800,730,l),
(509,730,l),
(262,452,l),
(296,451,l),
(193,730,l),
(93,730,l),
(284,210,l)
);
},
{
closed = 1;
nodes = (
(318,0,l),
(380,321,l),
(284,321,l),
(222,0,l)
);
}
);
width = 708;
},
{
anchors = (
{
name = top;
pos = (394,730);
}
);
associatedMasterId = "79167EE4-8C29-4BCE-A9E7-C1CFC4557E33";
layerId = "9A1994AC-B032-411B-8020-0BAE71AAB607";
name = "4 févr. 25 à 10:38";
shapes = (
{
closed = 1;
nodes = (
(322,294,l),
(688,730,l),
(633,730,l),
(306,340,l),
(327,340,l),
(142,730,l),
(104,730,l),
(310,294,l)
);
},
{
closed = 1;
nodes = (
(274,0,l),
(339,336,l),
(307,336,l),
(242,0,l)
);
}
);
width = 600;
},
{
anchors = (
{
name = top;
pos = (412,730);
}
);
associatedMasterId = "41EDA971-A137-4972-81AF-7929AB7CAABF";
layerId = "5010FD4D-0EF2-4064-B4C4-7F2BFD2B45DF";
name = "4 févr. 25 à 15:44";
shapes = (
{
closed = 1;
nodes = (
(338,210,l),
(796,730,l),
(515,730,l),
(268,452,l),
(303,451,l),
(199,730,l),
(88,730,l),
(279,210,l)
);
},
{
closed = 1;
nodes = (
(318,0,l),
(380,321,l),
(284,321,l),
(222,0,l)
);
}
);
width = 708;
}
);
unicode = 89;
},
{
glyphname = Z;
lastChange = "2025-02-27 15:33:01 +0000";
layers = (
{
anchors = (
{
name = top;
pos = (431,730);
}
);
layerId = "79167EE4-8C29-4BCE-A9E7-C1CFC4557E33";
shapes = (
{
closed = 1;
nodes = (
(553,0,l),
(563,54,l),
(25,54,l),
(11,21,l),
(675,685,l),
(684,730,l),
(155,730,l),
(143,672,l),
(640,672,l),
(660,714,l),
(-8,46,l),
(-17,0,l)
);
}
);
width = 630;
},
{
anchors = (
{
name = top;
pos = (419,730);
}
);
layerId = "41EDA971-A137-4972-81AF-7929AB7CAABF";
shapes = (
{
closed = 1;
nodes = (
(560,0,l),
(602,218,l),
(211,218,l),
(217,202,l),
(633,465,l),
(685,730,l),
(141,730,l),
(84,440,l),
(450,440,l),
(454,463,l),
(18,187,l),
(-18,0,l)
);
}
);
width = 630;
},
{
anchors = (
{
name = top;
pos = (431,730);
}
);
associatedMasterId = "79167EE4-8C29-4BCE-A9E7-C1CFC4557E33";
layerId = "6278BC44-12A7-4416-AD72-EB1F373A8EBF";
name = "4 févr. 25 à 10:39";
shapes = (
{
closed = 1;
nodes = (
(553,0,l),
(563,54,l),
(25,54,l),
(8,21,l),
(675,685,l),
(684,730,l),
(155,730,l),
(143,672,l),
(640,672,l),
(663,714,l),
(-8,46,l),
(-17,0,l)
);
}
);
width = 630;
},
{
anchors = (
{
name = top;
pos = (419,730);
}
);
associatedMasterId = "41EDA971-A137-4972-81AF-7929AB7CAABF";
layerId = "5F79A00D-4018-4084-88CD-498C80AC7577";
name = "4 févr. 25 à 15:45";
shapes = (
{
closed = 1;
nodes = (
(560,0,l),
(602,218,l),
(211,218,l),
(217,208,l),
(633,465,l),
(685,730,l),
(141,730,l),
(84,440,l),
(450,440,l),
(454,457,l),
(18,187,l),
(-18,0,l)
);
}
);
width = 630;
}
);
unicode = 90;
},
{
glyphname = a;
lastChange = "2025-02-27 15:33:01 +0000";
layers = (
{
anchors = (
{
name = ogonek;
pos = (445,0);
},
{
name = top;
pos = (363,548);
}
);
background = {
shapes = (
{
closed = 1;
nodes = (
(538,492,l),
(487,533,o),
(409,556,o),
(344,556,cs),
(149,556,o),
(35,376,o),
(35,200,cs),
(35,57,o),
(122,-8,o),
(234,-8,cs),
(316,-8,o),
(401,45,o),
(449,146,c),
(463,261,l),
(437,130,o),
(366,45,o),
(245,45,cs),
(131,45,o),
(68,103,o),
(69,220,cs),
(71,361,o),
(151,501,o),
(322,501,cs),
(388,501,o),
(465,479,o),
(501,445,c)
);
},
{
closed = 1;
nodes = (
(461,0,l),
(460,68,o),
(466,128,o),
(478,188,cs),
(538,492,l),
(511,504,l),
(446,173,l),
(432,100,o),
(432,51,o),
(433,0,c)
);
}
);
};
layerId = "79167EE4-8C29-4BCE-A9E7-C1CFC4557E33";
shapes = (
{
closed = 1;
nodes = (
(538,492,l),
(487,533,o),
(409,556,o),
(344,556,cs),
(149,556,o),
(35,376,o),
(35,200,cs),
(35,57,o),
(122,-8,o),
(230,-8,cs),
(316,-8,o),
(401,45,o),
(449,146,c),
(464,261,l),
(437,130,o),
(360,45,o),
(245,45,cs),
(131,45,o),
(68,103,o),
(69,220,cs),
(71,361,o),
(151,501,o),
(322,501,cs),
(388,501,o),
(465,479,o),
(501,445,c)
);
},
{
closed = 1;
nodes = (
(463,0,l),
(462,68,o),
(466,128,o),
(478,188,cs),
(538,492,l),
(511,504,l),
(446,173,l),
(432,100,o),
(432,51,o),
(433,0,c)
);
}
);
width = 566;
},
{
anchors = (
{
name = ogonek;
pos = (424,0);
},
{
name = top;
pos = (339,556);
}
);
background = {
shapes = (
{
closed = 1;
nodes = (
(85,301,o),
(153,317,o),
(251,317,cs),
(324,317,o),
(381,307,o),
(421,280,c),
(421,253,ls),
(421,200,o),
(345,180,o),
(254,180,cs),
(155,180,o),
(87,199,o),
(86,248,cs)
);
}
);
};
layerId = "41EDA971-A137-4972-81AF-7929AB7CAABF";
shapes = (
{
closed = 1;
nodes = (
(555,494,l),
(505,544,o),
(425,572,o),
(325,572,cs),
(98,572,o),
(3,389,o),
(3,194,cs),
(3,50,o),
(81,-16,o),
(205,-16,cs),
(282,-16,o),
(377,27,o),
(421,180,c),
(415,244,l),
(407,201,o),
(356,180,o),
(255,180,cs),
(133,180,o),
(86,209,o),
(86,248,cs),
(86,294,o),
(135,317,o),
(248,317,cs),
(343,317,o),
(396,301,o),
(435,270,c)
);
},
{
closed = 1;
nodes = (
(476,0,l),
(475,58,o),
(479,104,o),
(493,176,cs),
(555,494,l),
(464,497,l),
(398,157,ls),
(389,108,o),
(384,51,o),
(386,0,c)
);
}
);
width = 564;
},
{
anchors = (
{
name = top;
pos = (363,548);
}
);
associatedMasterId = "79167EE4-8C29-4BCE-A9E7-C1CFC4557E33";
layerId = "6FEAF7FB-770F-4356-8B19-6B4B36674AD4";
name = "3 févr. 25 à 14:46";
shapes = (
{
closed = 1;
nodes = (
(540,503,l),
(511,531,o),
(438,556,o),
(370,556,cs),
(209,556,o),
(74,442,o),
(41,252,cs),
(7,59,o),
(98,-8,o),
(214,-8,cs),
(305,-8,o),
(398,52,o),
(449,160,c),
(466,274,l),
(437,136,o),
(359,46,o),
(226,46,cs),
(105,46,o),
(48,122,o),
(72,255,cs),
(102,417,o),
(202,500,o),
(349,500,cs),
(424,500,o),
(482,474,o),
(501,455,c)
);
},
{
closed = 1;
nodes = (
(461,0,l),
(460,68,o),
(467,128,o),
(478,188,cs),
(540,503,l),
(511,504,l),
(446,173,l),
(435,115,o),
(431,63,o),
(433,0,c)
);
}
);
width = 566;
},
{
anchors = (
{
name = top;
pos = (345,548);
}
);
associatedMasterId = "41EDA971-A137-4972-81AF-7929AB7CAABF";
layerId = "01A9D643-87DA-4D5E-AA1C-036F3206D00A";
name = "4 févr. 25 à 12:23";
shapes = (
{
closed = 1;
nodes = (
(570,516,l),
(529,555,o),
(449,582,o),
(359,582,cs),
(180,582,o),
(50,495,o),
(10,275,cs),
(-30,58,o),
(58,-18,o),
(191,-18,cs),
(289,-18,o),
(388,39,o),
(434,195,c),
(422,253,l),
(412,200,o),
(332,180,o),
(241,180,cs),
(142,180,o),
(78,199,o),
(86,248,cs),
(95,301,o),
(167,317,o),
(265,317,cs),
(356,317,o),
(419,301,o),
(449,257,c)
);
},
{
closed = 1;
nodes = (
(489,0,l),
(488,59,o),
(493,117,o),
(504,176,cs),
(570,516,l),
(473,516,l),
(400,137,ls),
(391,91,o),
(387,44,o),
(391,0,c)
);
}
);
width = 574;
},
{
anchors = (
{
name = top;
pos = (345,548);
}
);
associatedMasterId = "41EDA971-A137-4972-81AF-7929AB7CAABF";
background = {
shapes = (
{
closed = 1;
nodes = (
(566,494,l),
(525,535,o),
(447,566,o),
(358,572,cs),
(181,585,o),
(51,507,o),
(12,291,cs),
(-27,76,o),
(60,-7,o),
(191,-16,cs),
(288,-23,o),
(386,27,o),
(431,180,c),
(419,240,l),
(409,187,o),
(331,173,o),
(241,179,cs),
(143,186,o),
(79,210,o),
(88,258,cs),
(97,311,o),
(168,322,o),
(265,315,cs),
(353,309,o),
(415,288,o),
(444,242,c)
);
},
{
closed = 1;
nodes = (
(489,0,l),
(488,59,o),
(493,117,o),
(504,176,cs),
(566,494,l),
(469,497,l),
(400,137,ls),
(391,91,o),
(387,44,o),
(391,0,c)
);
}
);
};
layerId = "986BD1F6-D05A-47C4-B14C-CD9BDA83C2F4";
name = "4 févr. 25 à 15:53";
shapes = (
{
closed = 1;
nodes = (
(566,494,l),
(515,544,o),
(423,572,o),
(321,572,cs),
(90,572,o),
(3,390,o),
(3,196,cs),
(3,51,o),
(83,-16,o),
(210,-16,cs),
(290,-16,o),
(386,27,o),
(431,180,c),
(419,240,l),
(410,194,o),
(353,178,o),
(279,178,cs),
(152,178,o),
(87,207,o),
(87,249,cs),
(87,292,o),
(127,317,o),
(217,317,cs),
(337,317,o),
(413,291,o),
(444,242,c)
);
},
{
closed = 1;
nodes = (
(489,0,l),
(488,59,o),
(493,117,o),
(504,176,cs),
(566,494,l),
(469,497,l),
(400,137,ls),
(390,89,o),
(387,49,o),
(391,0,c)
);
}
);
width = 574;
},
{
anchors = (
{
name = top;
pos = (339,548);
}
);
associatedMasterId = "41EDA971-A137-4972-81AF-7929AB7CAABF";
layerId = "1A30F653-9290-4A3A-A093-A7AB049B6507";
name = "25 févr. 25 à 12:03";
shapes = (
{
closed = 1;
nodes = (
(556,494,l),
(506,544,o),
(425,572,o),
(325,572,cs),
(98,572,o),
(3,389,o),
(3,194,cs),
(3,50,o),
(81,-16,o),
(205,-16,cs),
(282,-16,o),
(377,27,o),
(421,180,c),
(409,240,l),
(401,196,o),
(349,178,o),
(274,178,cs),
(149,178,o),
(86,207,o),
(86,248,cs),
(86,293,o),
(128,317,o),
(212,317,cs),
(326,317,o),
(403,293,o),
(435,242,c)
);
},
{
closed = 1;
nodes = (
(479,0,l),
(478,58,o),
(482,114,o),
(494,176,cs),
(556,494,l),
(459,497,l),
(390,137,ls),
(381,88,o),
(377,51,o),
(381,0,c)
);
}
);
width = 564;
},
{
anchors = (
{
name = top;
pos = (339,548);
}
);
associatedMasterId = "41EDA971-A137-4972-81AF-7929AB7CAABF";
layerId = "DB511809-6D5D-4B76-AD1B-855E91663A53";
name = "25 févr. 25 à 12:27";
shapes = (
{
closed = 1;
nodes = (
(555,494,l),
(505,544,o),
(425,572,o),
(325,572,cs),
(98,572,o),
(3,389,o),
(3,194,cs),
(3,50,o),
(81,-16,o),
(205,-16,cs),
(282,-16,o),
(377,27,o),
(421,180,c),
(414,240,l),
(405,196,o),
(351,178,o),
(274,178,cs),
(149,178,o),
(86,207,o),
(86,248,cs),
(86,293,o),
(128,317,o),
(212,317,cs),
(326,317,o),
(403,293,o),
(435,242,c)
);
},
{
closed = 1;
nodes = (
(476,0,l),
(475,58,o),
(479,104,o),
(493,176,cs),
(555,494,l),
(464,497,l),
(398,157,ls),
(389,108,o),
(384,51,o),
(386,0,c)
);
}
);
width = 564;
},
{
anchors = (
{
name = top;
pos = (339,548);
}
);
associatedMasterId = "41EDA971-A137-4972-81AF-7929AB7CAABF";
background = {
shapes = (
{
closed = 1;
nodes = (
(85,301,o),
(153,317,o),
(251,317,cs),
(324,317,o),
(381,307,o),
(421,280,c),
(421,253,ls),
(421,200,o),
(345,180,o),
(254,180,cs),
(155,180,o),
(87,199,o),
(86,248,cs)
);
}
);
};
layerId = "2FBFDB7E-6B3B-444C-9066-E4DA6AD3233F";
name = "25 févr. 25 à 12:27";
shapes = (
{
closed = 1;
nodes = (
(555,494,l),
(505,544,o),
(425,572,o),
(325,572,cs),
(98,572,o),
(3,389,o),
(3,194,cs),
(3,50,o),
(81,-16,o),
(205,-16,cs),
(282,-16,o),
(377,27,o),
(421,180,c),
(414,240,l),
(405,196,o),
(351,178,o),
(274,178,cs),
(149,178,o),
(86,207,o),
(86,248,cs),
(86,293,o),
(128,317,o),
(212,317,cs),
(326,317,o),
(403,293,o),
(435,242,c)
);
},
{
closed = 1;
nodes = (
(476,0,l),
(475,58,o),
(479,104,o),
(493,176,cs),
(555,494,l),
(464,497,l),
(398,157,ls),
(389,108,o),
(384,51,o),
(386,0,c)
);
}
);
width = 564;
}
);
unicode = 97;
},
{
color = 3;
glyphname = ae;
lastChange = "2025-02-25 14:51:14 +0000";
layers = (
{
anchors = (
{
name = top;
pos = (448,548);
}
);
background = {
anchors = (
{
name = ogonek;
pos = (451,0);
},
{
name = top;
pos = (260,548);
}
);
shapes = (
{
closed = 1;
nodes = (
(483,0,l),
(471,56,o),
(463,122,o),
(463,179,cs),
(463,371,ls),
(463,492,o),
(405,556,o),
(279,556,cs),
(167,556,o),
(110,506,o),
(81,460,c),
(98,427,l),
(128,466,o),
(198,498,o),
(271,498,cs),
(379,498,o),
(433,457,o),
(433,356,cs),
(433,162,ls),
(433,119,o),
(441,53,o),
(453,0,c)
);
},
{
closed = 1;
nodes = (
(432,93,o),
(346,46,o),
(253,46,cs),
(142,46,o),
(90,91,o),
(90,156,cs),
(90,225,o),
(144,270,o),
(263,270,cs),
(387,270,o),
(434,245,o),
(433,182,cs)
);
},
{
closed = 1;
nodes = (
(441,232,l),
(438,271,o),
(377,304,o),
(269,304,cs),
(127,304,o),
(54,245,o),
(54,148,cs),
(54,54,o),
(117,-8,o),
(248,-8,cs),
(336,-8,o),
(437,42,o),
(440,126,c)
);
}
);
};
layerId = "79167EE4-8C29-4BCE-A9E7-C1CFC4557E33";
shapes = (
{
closed = 1;
nodes = (
(463,179,l),
(463,371,ls),
(463,492,o),
(405,556,o),
(279,556,cs),
(167,556,o),
(110,506,o),
(81,460,c),
(98,427,l),
(128,466,o),
(198,498,o),
(271,498,cs),
(379,498,o),
(433,457,o),
(433,356,cs),
(433,162,l)
);
},
{
closed = 1;
nodes = (
(350,-8,o),
(437,42,o),
(458,165,c),
(433,207,l),
(432,99,o),
(356,46,o),
(253,46,cs),
(142,46,o),
(90,91,o),
(90,156,cs),
(90,223,o),
(141,269,o),
(255,269,cs),
(443,269,l),
(443,305,l),
(260,305,ls),
(123,305,o),
(54,246,o),
(54,151,cs),
(54,54,o),
(115,-8,o),
(249,-8,cs)
);
},
{
alignment = -1;
pos = (391,0);
ref = e;
}
);
width = 937;
},
{
anchors = (
{
name = top;
pos = (444,564);
}
);
layerId = "41EDA971-A137-4972-81AF-7929AB7CAABF";
shapes = (
{
closed = 1;
nodes = (
(458,182,l),
(458,383,ls),
(458,513,o),
(391,580,o),
(258,580,cs),
(128,580,o),
(71,531,o),
(38,471,c),
(80,300,l),
(117,328,o),
(164,342,o),
(243,342,cs),
(339,342,o),
(366,325,o),
(366,281,cs),
(366,138,l)
);
},
{
closed = 1;
nodes = (
(319,-16,o),
(378,32,o),
(398,132,c),
(366,215,l),
(366,183,o),
(340,173,o),
(252,173,cs),
(150,173,o),
(126,183,o),
(126,202,cs),
(126,223,o),
(147,231,o),
(212,231,cs),
(378,231,l),
(378,295,l),
(222,295,ls),
(91,295,o),
(17,248,o),
(17,135,cs),
(17,50,o),
(67,-16,o),
(204,-16,cs)
);
},
{
alignment = -1;
pos = (345,0);
ref = e;
}
);
width = 863;
},
{
anchors = (
{
name = top;
pos = (442,548);
}
);
associatedMasterId = "79167EE4-8C29-4BCE-A9E7-C1CFC4557E33";
background = {
anchors = (
{
name = ogonek;
pos = (445,0);
},
{
name = top;
pos = (254,548);
}
);
shapes = (
{
closed = 1;
nodes = (
(457,179,l),
(457,371,ls),
(457,504,o),
(391,556,o),
(275,556,cs),
(187,556,o),
(114,527,o),
(78,464,c),
(92,427,l),
(121,463,o),
(185,498,o),
(267,498,cs),
(378,498,o),
(427,457,o),
(427,356,cs),
(427,162,l)
);
},
{
closed = 1;
nodes = (
(442,253,l),
(402,288,o),
(332,304,o),
(260,304,cs),
(125,304,o),
(48,245,o),
(48,151,cs),
(48,53,o),
(107,-8,o),
(243,-8,cs),
(329,-8,o),
(431,42,o),
(434,126,c),
(427,177,l),
(426,96,o),
(340,46,o),
(247,46,cs),
(132,46,o),
(78,90,o),
(78,154,cs),
(78,223,o),
(139,270,o),
(257,270,cs),
(329,270,o),
(395,258,o),
(432,222,c)
);
}
);
};
layerId = "87995BAB-77DA-4D2B-89E0-7271FCB339BB";
name = "13 déc. 24 à 14:43";
shapes = (
{
closed = 1;
nodes = (
(457,179,l),
(457,371,ls),
(457,504,o),
(391,556,o),
(275,556,cs),
(187,556,o),
(114,527,o),
(78,464,c),
(92,427,l),
(121,463,o),
(185,498,o),
(267,498,cs),
(378,498,o),
(427,457,o),
(427,356,cs),
(427,162,l)
);
},
{
closed = 1;
nodes = (
(344,-8,o),
(431,42,o),
(449,165,c),
(427,187,l),
(426,94,o),
(340,46,o),
(247,46,cs),
(132,46,o),
(78,90,o),
(78,154,cs),
(78,223,o),
(131,270,o),
(249,270,cs),
(432,270,l),
(442,304,l),
(254,304,ls),
(117,304,o),
(48,245,o),
(48,151,cs),
(48,53,o),
(107,-8,o),
(243,-8,cs)
);
},
{
alignment = -1;
pos = (385,0);
ref = e;
}
);
width = 921;
}
);
metricLeft = "=a";
metricRight = "=e";
unicode = 230;
},
{
glyphname = b;
lastChange = "2025-02-27 15:33:01 +0000";
layers = (
{
anchors = (
{
name = top;
pos = (194,772);
}
);
layerId = "41EDA971-A137-4972-81AF-7929AB7CAABF";
name = Extralight;
shapes = (
{
closed = 1;
nodes = (
(483,-16,o),
(565,194,o),
(565,374,cs),
(565,505,o),
(499,572,o),
(372,572,cs),
(269,572,o),
(181,519,o),
(138,384,c),
(140,258,l),
(147,295,o),
(211,317,o),
(303,317,cs),
(410,317,o),
(467,293,o),
(467,245,cs),
(467,207,o),
(431,180,o),
(310,180,cs),
(204,180,o),
(151,204,o),
(135,232,c),
(14,85,l),
(57,27,o),
(152,-16,o),
(263,-16,cs)
);
},
{
closed = 1;
nodes = (
(106,85,l),
(240,772,l),
(148,772,l),
(14,85,l)
);
}
);
width = 577;
},
{
anchors = (
{
name = top;
pos = (184,772);
}
);
background = {
shapes = (
{
closed = 1;
nodes = (
(448,-8,o),
(530,203,o),
(530,357,cs),
(530,473,o),
(474,556,o),
(346,556,cs),
(242,556,o),
(174,505,o),
(125,420,c),
(103,287,l),
(127,427,o),
(206,502,o),
(327,502,cs),
(428,502,o),
(497,454,o),
(497,340,cs),
(497,213,o),
(431,46,o),
(251,46,cs),
(157,46,o),
(86,95,o),
(57,139,c),
(35,85,l),
(88,21,o),
(174,-8,o),
(239,-8,cs)
);
},
{
closed = 1;
nodes = (
(60,70,l),
(197,772,l),
(169,772,l),
(35,85,l)
);
}
);
};
layerId = "79167EE4-8C29-4BCE-A9E7-C1CFC4557E33";
name = Extralight;
shapes = (
{
closed = 1;
nodes = (
(448,-8,o),
(530,203,o),
(530,347,cs),
(530,473,o),
(474,556,o),
(346,556,cs),
(242,556,o),
(174,505,o),
(125,420,c),
(102,287,l),
(127,427,o),
(206,502,o),
(327,502,cs),
(428,502,o),
(497,454,o),
(497,340,cs),
(497,213,o),
(431,46,o),
(251,46,cs),
(157,46,o),
(86,95,o),
(57,139,c),
(35,85,l),
(88,21,o),
(174,-8,o),
(239,-8,cs)
);
},
{
closed = 1;
nodes = (
(63,85,l),
(197,772,l),
(169,772,l),
(35,85,l)
);
}
);
width = 564;
},
{
associatedMasterId = "79167EE4-8C29-4BCE-A9E7-C1CFC4557E33";
background = {
shapes = (
{
closed = 1;
nodes = (
(344,-26,o),
(470,29,o),
(514,236,cs),
(551,403,o),
(493,527,o),
(377,549,cs),
(255,573,o),
(186,524,o),
(129,441,c),
(108,310,l),
(133,457,o),
(214,524,o),
(352,497,cs),
(466,475,o),
(513,383,o),
(484,245,cs),
(454,102,o),
(370,24,o),
(230,51,cs),
(149,67,o),
(89,121,o),
(62,165,c),
(41,115,l),
(86,49,o),
(159,10,o),
(219,-2,cs)
);
},
{
closed = 1;
nodes = (
(61,70,l),
(198,772,l),
(170,772,l),
(33,70,l)
);
}
);
};
layerId = "CA48CC9A-908C-4DDF-93BF-9AD665DF7E5E";
name = "3 févr. 25 à 14:58";
shapes = (
{
closed = 1;
nodes = (
(346,-8,o),
(478,70,o),
(522,276,cs),
(560,447,o),
(500,556,o),
(377,556,cs),
(251,556,o),
(180,496,o),
(122,407,c),
(100,274,l),
(126,420,o),
(209,500,o),
(351,500,cs),
(472,500,o),
(521,420,o),
(492,279,cs),
(462,137,o),
(374,46,o),
(229,46,cs),
(145,46,o),
(81,86,o),
(54,123,c),
(32,70,l),
(79,15,o),
(155,-8,o),
(217,-8,cs)
);
},
{
closed = 1;
nodes = (
(60,70,l),
(197,772,l),
(169,772,l),
(32,70,l)
);
}
);
width = 564;
},
{
associatedMasterId = "41EDA971-A137-4972-81AF-7929AB7CAABF";
layerId = "42DA56EF-997A-469C-8C55-3E5102351186";
name = "4 févr. 25 à 12:34";
shapes = (
{
closed = 1;
nodes = (
(401,-18,o),
(518,72,o),
(559,300,cs),
(599,507,o),
(510,581,o),
(401,581,cs),
(285,582,o),
(186,524,o),
(138,371,c),
(143,247,l),
(152,295,o),
(229,317,o),
(316,317,cs),
(415,317,o),
(477,298,o),
(468,246,cs),
(460,195,o),
(390,180,o),
(292,180,cs),
(218,180,o),
(156,191,o),
(138,219,c),
(11,68,l),
(53,16,o),
(137,-18,o),
(234,-18,cs)
);
},
{
closed = 1;
nodes = (
(108,69,l),
(248,787,l),
(152,787,l),
(12,69,l)
);
}
);
width = 577;
},
{
associatedMasterId = "41EDA971-A137-4972-81AF-7929AB7CAABF";
layerId = "3BE4AADC-0346-4327-8531-C2E0CE6C8911";
name = "25 févr. 25 à 12:05";
shapes = (
{
closed = 1;
nodes = (
(483,-16,o),
(565,194,o),
(565,374,cs),
(565,505,o),
(499,572,o),
(372,572,cs),
(269,572,o),
(181,519,o),
(138,384,c),
(144,258,l),
(151,297,o),
(201,318,o),
(283,318,cs),
(403,318,o),
(467,288,o),
(467,244,cs),
(467,203,o),
(430,178,o),
(340,178,cs),
(229,178,o),
(155,202,o),
(138,230,c),
(14,85,l),
(57,27,o),
(152,-16,o),
(263,-16,cs)
);
},
{
closed = 1;
nodes = (
(244,772,l),
(148,772,l),
(14,85,l),
(107,69,l)
);
}
);
width = 577;
},
{
associatedMasterId = "41EDA971-A137-4972-81AF-7929AB7CAABF";
layerId = "EA1FE79A-CECF-4C42-93AB-F3D58E41EEAE";
name = "25 févr. 25 à 12:33";
shapes = (
{
closed = 1;
nodes = (
(483,-16,o),
(565,194,o),
(565,374,cs),
(565,505,o),
(499,572,o),
(372,572,cs),
(269,572,o),
(181,519,o),
(138,384,c),
(140,258,l),
(147,295,o),
(199,318,o),
(283,318,cs),
(403,318,o),
(467,288,o),
(467,244,cs),
(467,203,o),
(430,178,o),
(340,178,cs),
(228,178,o),
(153,202,o),
(135,232,c),
(14,85,l),
(57,27,o),
(152,-16,o),
(263,-16,cs)
);
},
{
closed = 1;
nodes = (
(240,772,l),
(148,772,l),
(14,85,l),
(103,69,l)
);
}
);
width = 577;
},
{
associatedMasterId = "41EDA971-A137-4972-81AF-7929AB7CAABF";
layerId = "D1C0EFF4-B0A8-4063-A791-412F3B38C090";
name = "25 févr. 25 à 12:34";
shapes = (
{
closed = 1;
nodes = (
(483,-16,o),
(565,194,o),
(565,374,cs),
(565,505,o),
(499,572,o),
(372,572,cs),
(269,572,o),
(181,519,o),
(138,384,c),
(140,258,l),
(147,295,o),
(199,318,o),
(283,318,cs),
(403,318,o),
(467,288,o),
(467,244,cs),
(467,203,o),
(430,178,o),
(340,178,cs),
(228,178,o),
(153,202,o),
(135,232,c),
(14,85,l),
(57,27,o),
(152,-16,o),
(263,-16,cs)
);
},
{
closed = 1;
nodes = (
(240,772,l),
(148,772,l),
(14,85,l),
(103,69,l)
);
}
);
width = 577;
}
);
metricLeft = "=n";
metricRight = "=o";
unicode = 98;
},
{
glyphname = c;
lastChange = "2025-02-27 15:33:01 +0000";
layers = (
{
anchors = (
{
name = bottom;
pos = (237,0);
},
{
name = top;
pos = (354,548);
}
);
background = {
shapes = (
{
closed = 1;
nodes = (
(350,-8,o),
(414,32,o),
(450,77,c),
(440,110,l),
(404,73,o),
(338,45,o),
(280,45,cs),
(141,45,o),
(70,118,o),
(70,233,cs),
(70,381,o),
(158,498,o),
(319,498,cs),
(386,498,o),
(457,473,o),
(489,418,c),
(515,453,l),
(489,509,o),
(438,556,o),
(330,556,cs),
(136,556,o),
(37,382,o),
(37,222,cs),
(37,90,o),
(100,-8,o),
(267,-8,cs)
);
}
);
};
layerId = "79167EE4-8C29-4BCE-A9E7-C1CFC4557E33";
shapes = (
{
closed = 1;
nodes = (
(350,-8,o),
(415,31,o),
(451,76,c),
(440,111,l),
(404,74,o),
(338,45,o),
(280,45,cs),
(141,45,o),
(70,118,o),
(70,233,cs),
(70,381,o),
(158,498,o),
(319,498,cs),
(386,498,o),
(458,474,o),
(490,419,c),
(514,452,l),
(488,508,o),
(438,556,o),
(330,556,cs),
(136,556,o),
(37,382,o),
(37,222,cs),
(37,86,o),
(106,-8,o),
(267,-8,cs)
);
}
);
width = 518;
},
{
anchors = (
{
name = bottom;
pos = (233,0);
},
{
name = top;
pos = (340,556);
}
);
background = {
shapes = (
{
closed = 1;
nodes = (
(346,-16,o),
(421,24,o),
(456,74,c),
(443,213,l),
(409,195,o),
(355,182,o),
(267,182,cs),
(139,182,o),
(96,206,o),
(96,245,cs),
(96,285,o),
(141,308,o),
(273,308,cs),
(360,308,o),
(409,293,o),
(440,261,c),
(531,447,l),
(501,528,o),
(438,572,o),
(319,572,cs),
(110,572,o),
(15,391,o),
(15,201,cs),
(15,55,o),
(99,-16,o),
(245,-16,cs)
);
}
);
};
layerId = "41EDA971-A137-4972-81AF-7929AB7CAABF";
shapes = (
{
closed = 1;
nodes = (
(346,-16,o),
(421,24,o),
(456,74,c),
(438,215,l),
(398,191,o),
(348,182,o),
(267,182,cs),
(139,182,o),
(96,206,o),
(96,245,cs),
(96,285,o),
(141,308,o),
(273,308,cs),
(360,308,o),
(409,293,o),
(440,261,c),
(531,447,l),
(501,528,o),
(438,572,o),
(319,572,cs),
(110,572,o),
(15,391,o),
(15,201,cs),
(15,55,o),
(99,-16,o),
(245,-16,cs)
);
}
);
width = 511;
},
{
anchors = (
{
name = bottom;
pos = (234,0);
},
{
name = top;
pos = (351,548);
}
);
associatedMasterId = "79167EE4-8C29-4BCE-A9E7-C1CFC4557E33";
background = {
shapes = (
{
closed = 0;
nodes = (
(494,486,l),
(456,414,l)
);
},
{
closed = 0;
nodes = (
(468,417,l),
(429,468,l)
);
},
{
closed = 0;
nodes = (
(486,453,l),
(449,512,l)
);
},
{
closed = 0;
nodes = (
(459,128,l),
(493,63,l)
);
},
{
closed = 0;
nodes = (
(434,80,l),
(469,125,l)
);
},
{
closed = 0;
nodes = (
(452,40,l),
(486,93,l)
);
}
);
};
layerId = "E797F8F2-EB6E-448A-9A36-CEBC8D3A0F2A";
name = "3 févr. 25 à 15:03";
shapes = (
{
closed = 1;
nodes = (
(336,-8,o),
(407,40,o),
(444,86,c),
(434,119,l),
(396,80,o),
(327,46,o),
(254,46,cs),
(114,46,o),
(43,123,o),
(72,275,cs),
(100,417,o),
(200,498,o),
(342,498,cs),
(411,498,o),
(467,468,o),
(491,425,c),
(517,461,l),
(495,512,o),
(450,556,o),
(353,556,cs),
(199,556,o),
(78,457,o),
(41,270,cs),
(10,109,o),
(65,-8,o),
(237,-8,cs)
);
}
);
width = 515;
},
{
anchors = (
{
name = bottom;
pos = (237,0);
},
{
name = top;
pos = (354,548);
}
);
associatedMasterId = "79167EE4-8C29-4BCE-A9E7-C1CFC4557E33";
background = {
shapes = (
{
closed = 1;
nodes = (
(350,-8,o),
(414,32,o),
(450,77,c),
(440,110,l),
(404,73,o),
(338,45,o),
(280,45,cs),
(141,45,o),
(70,118,o),
(70,233,cs),
(70,381,o),
(158,498,o),
(319,498,cs),
(386,498,o),
(457,473,o),
(489,418,c),
(515,453,l),
(489,509,o),
(438,556,o),
(330,556,cs),
(136,556,o),
(37,382,o),
(37,222,cs),
(37,90,o),
(100,-8,o),
(267,-8,cs)
);
}
);
};
layerId = "03D4FBF1-9B93-4369-9D59-652A34A72BB7";
name = "4 févr. 25 à 11:36";
shapes = (
{
closed = 1;
nodes = (
(350,-8,o),
(414,32,o),
(450,77,c),
(440,110,l),
(404,73,o),
(338,45,o),
(280,45,cs),
(141,45,o),
(70,118,o),
(70,233,cs),
(70,381,o),
(158,498,o),
(319,498,cs),
(386,498,o),
(457,473,o),
(489,418,c),
(515,453,l),
(489,509,o),
(438,556,o),
(330,556,cs),
(136,556,o),
(37,382,o),
(37,222,cs),
(37,82,o),
(111,-8,o),
(267,-8,cs)
);
}
);
width = 518;
},
{
anchors = (
{
name = bottom;
pos = (230,0);
},
{
name = top;
pos = (337,556);
}
);
associatedMasterId = "41EDA971-A137-4972-81AF-7929AB7CAABF";
background = {
shapes = (
{
closed = 0;
nodes = (
(494,73,l),
(446,236,l)
);
},
{
closed = 0;
nodes = (
(460,30,l),
(495,93,l)
);
},
{
closed = 0;
nodes = (
(418,203,l),
(459,231,l)
);
},
{
closed = 0;
nodes = (
(438,255,l),
(503,474,l)
);
},
{
closed = 0;
nodes = (
(455,262,l),
(399,300,l)
);
},
{
closed = 0;
nodes = (
(504,447,l),
(456,532,l)
);
}
);
};
layerId = "6483C88C-E614-45F6-A493-5CCEE8421A6B";
name = "4 févr. 25 à 12:37";
shapes = (
{
closed = 1;
nodes = (
(327,-16,o),
(412,30,o),
(452,85,c),
(439,224,l),
(403,203,o),
(336,182,o),
(252,182,cs),
(130,182,o),
(86,203,o),
(95,246,cs),
(103,290,o),
(157,308,o),
(270,308,cs),
(365,308,o),
(403,300,o),
(441,270,c),
(533,457,l),
(505,532,o),
(448,572,o),
(342,572,cs),
(193,572,o),
(63,490,o),
(20,268,cs),
(-22,52,o),
(74,-16,o),
(215,-16,cs)
);
}
);
width = 508;
},
{
anchors = (
{
name = bottom;
pos = (236,0);
},
{
name = top;
pos = (343,556);
}
);
associatedMasterId = "41EDA971-A137-4972-81AF-7929AB7CAABF";
background = {
shapes = (
{
closed = 1;
nodes = (
(349,-16,o),
(424,24,o),
(459,74,c),
(446,213,l),
(416,196,o),
(360,181,o),
(292,181,cs),
(169,181,o),
(101,207,o),
(101,248,cs),
(101,287,o),
(132,312,o),
(224,312,cs),
(331,312,o),
(405,296,o),
(443,261,c),
(534,447,l),
(504,528,o),
(441,572,o),
(322,572,cs),
(113,572,o),
(18,383,o),
(18,211,cs),
(18,55,o),
(98,-16,o),
(248,-16,cs)
);
}
);
};
layerId = "3DFF686E-E032-4E8F-ADD9-6826A48A5E66";
name = "4 févr. 25 à 15:54";
shapes = (
{
closed = 1;
nodes = (
(349,-16,o),
(424,24,o),
(459,74,c),
(446,213,l),
(416,196,o),
(360,181,o),
(292,181,cs),
(169,181,o),
(101,207,o),
(101,248,cs),
(101,287,o),
(132,312,o),
(224,312,cs),
(331,312,o),
(405,296,o),
(443,261,c),
(534,447,l),
(504,528,o),
(441,572,o),
(322,572,cs),
(113,572,o),
(18,383,o),
(18,211,cs),
(18,55,o),
(98,-16,o),
(248,-16,cs)
);
}
);
width = 514;
},
{
anchors = (
{
name = bottom;
pos = (234,0);
},
{
name = top;
pos = (341,556);
}
);
associatedMasterId = "41EDA971-A137-4972-81AF-7929AB7CAABF";
background = {
shapes = (
{
closed = 1;
nodes = (
(347,-16,o),
(422,24,o),
(457,74,c),
(444,213,l),
(414,196,o),
(358,181,o),
(290,181,cs),
(167,181,o),
(99,207,o),
(99,248,cs),
(99,287,o),
(130,312,o),
(222,312,cs),
(329,312,o),
(403,296,o),
(441,261,c),
(532,447,l),
(502,528,o),
(439,572,o),
(320,572,cs),
(111,572,o),
(16,383,o),
(16,211,cs),
(16,55,o),
(96,-16,o),
(246,-16,cs)
);
}
);
};
layerId = "9F16FCEA-1BB0-4E29-BC01-8C41A9556D88";
name = "25 févr. 25 à 13:31";
shapes = (
{
closed = 1;
nodes = (
(347,-16,o),
(422,24,o),
(457,74,c),
(444,213,l),
(414,196,o),
(358,181,o),
(290,181,cs),
(167,181,o),
(99,207,o),
(99,248,cs),
(99,289,o),
(135,312,o),
(237,312,cs),
(341,312,o),
(403,296,o),
(441,261,c),
(532,447,l),
(502,528,o),
(439,572,o),
(320,572,cs),
(111,572,o),
(16,383,o),
(16,211,cs),
(16,55,o),
(96,-16,o),
(246,-16,cs)
);
}
);
width = 512;
}
);
metricLeft = "=o";
unicode = 99;
},
{
glyphname = d;
lastChange = "2025-02-27 15:33:01 +0000";
layers = (
{
anchors = (
{
name = bottom;
pos = (235,0);
},
{
name = caroncomb.alt;
pos = (600,772);
},
{
name = top;
pos = (584,772);
}
);
background = {
shapes = (
{
closed = 1;
nodes = (
(359,-8,o),
(463,87,o),
(491,241,cs),
(497,274,ls),
(522,402,o),
(483,556,o),
(307,556,cs),
(113,556,o),
(35,341,o),
(35,215,cs),
(35,71,o),
(110,-8,o),
(239,-8,cs)
);
},
{
closed = 1;
nodes = (
(131,45,o),
(67,114,o),
(67,224,cs),
(67,359,o),
(147,498,o),
(298,498,cs),
(416,498,o),
(479,429,o),
(479,321,cs),
(479,188,o),
(396,45,o),
(246,45,cs)
);
},
{
closed = 1;
nodes = (
(450,0,l),
(600,772,l),
(570,772,l),
(497,395,l),
(492,366,l),
(457,188,l),
(448,147,l),
(420,0,l)
);
}
);
};
layerId = "79167EE4-8C29-4BCE-A9E7-C1CFC4557E33";
shapes = (
{
closed = 1;
nodes = (
(359,-8,o),
(463,87,o),
(491,241,cs),
(497,274,ls),
(522,402,o),
(483,556,o),
(310,556,cs),
(113,556,o),
(35,341,o),
(35,215,cs),
(35,71,o),
(110,-8,o),
(238,-8,cs)
);
},
{
closed = 1;
nodes = (
(131,45,o),
(67,114,o),
(67,224,cs),
(67,359,o),
(147,498,o),
(298,498,cs),
(416,498,o),
(479,429,o),
(479,321,cs),
(479,188,o),
(396,45,o),
(246,45,cs)
);
},
{
closed = 1;
nodes = (
(450,0,l),
(600,772,l),
(570,772,l),
(497,395,l),
(492,366,l),
(457,188,l),
(448,147,l),
(420,0,l)
);
}
);
width = 575;
},
{
anchors = (
{
name = bottom;
pos = (240,0);
},
{
name = caroncomb.alt;
pos = (618,772);
},
{
name = top;
pos = (570,772);
}
);
layerId = "41EDA971-A137-4972-81AF-7929AB7CAABF";
shapes = (
{
closed = 1;
nodes = (
(323,-16,o),
(406,32,o),
(435,177,cs),
(469,352,ls),
(492,462,o),
(467,572,o),
(298,572,cs),
(98,572,o),
(13,368,o),
(14,193,cs),
(15,46,o),
(110,-16,o),
(225,-16,cs)
);
},
{
closed = 1;
nodes = (
(145,182,o),
(95,205,o),
(95,244,cs),
(95,278,o),
(125,308,o),
(260,308,cs),
(387,308,o),
(430,283,o),
(430,246,cs),
(430,202,o),
(377,182,o),
(264,182,cs)
);
},
{
closed = 1;
nodes = (
(468,0,l),
(618,772,l),
(526,772,l),
(456,410,l),
(459,387,l),
(408,122,l),
(395,99,l),
(376,0,l)
);
}
);
width = 574;
},
{
anchors = (
{
name = bottom;
pos = (234,0);
},
{
name = caroncomb.alt;
pos = (599,772);
},
{
name = top;
pos = (353,548);
}
);
associatedMasterId = "79167EE4-8C29-4BCE-A9E7-C1CFC4557E33";
layerId = "E1BE7D5F-6029-4A26-B9BD-963AC56F5912";
name = "3 févr. 25 à 15:06";
shapes = (
{
closed = 1;
nodes = (
(348,-8,o),
(459,95,o),
(491,257,cs),
(497,290,ls),
(529,452,o),
(460,556,o),
(327,556,cs),
(189,556,o),
(76,451,o),
(42,274,cs),
(8,97,o),
(78,-8,o),
(215,-8,cs)
);
},
{
closed = 1;
nodes = (
(104,46,o),
(44,132,o),
(71,271,cs),
(98,410,o),
(188,498,o),
(316,498,cs),
(444,498,o),
(499,409,o),
(472,271,cs),
(446,133,o),
(352,46,o),
(228,46,cs)
);
},
{
closed = 1;
nodes = (
(449,0,l),
(599,772,l),
(569,772,l),
(496,395,l),
(491,366,l),
(456,188,l),
(447,147,l),
(419,0,l)
);
}
);
width = 574;
},
{
anchors = (
{
name = bottom;
pos = (238,0);
},
{
name = caroncomb.alt;
pos = (616,772);
},
{
name = top;
pos = (326,556);
}
);
associatedMasterId = "41EDA971-A137-4972-81AF-7929AB7CAABF";
background = {
anchors = (
{
name = top;
pos = (267,563);
}
);
};
layerId = "B2EF955E-F3DB-48C6-981B-75CB4D953CC9";
name = "4 févr. 25 à 12:41";
shapes = (
{
closed = 1;
nodes = (
(309,-16,o),
(403,33,o),
(434,190,cs),
(468,366,ls),
(499,523,o),
(425,572,o),
(319,572,cs),
(183,572,o),
(63,490,o),
(20,268,cs),
(-20,62,o),
(68,-16,o),
(200,-16,cs)
);
},
{
closed = 1;
nodes = (
(130,182,o),
(86,203,o),
(95,246,cs),
(103,290,o),
(155,309,o),
(276,309,cs),
(399,309,o),
(438,290,o),
(430,246,cs),
(421,203,o),
(373,182,o),
(251,182,cs)
);
},
{
closed = 1;
nodes = (
(466,0,l),
(616,772,l),
(524,772,l),
(454,410,l),
(457,387,l),
(406,122,l),
(393,99,l),
(374,0,l)
);
}
);
width = 572;
},
{
anchors = (
{
name = bottom;
pos = (240,0);
},
{
name = caroncomb.alt;
pos = (618,772);
},
{
name = top;
pos = (328,556);
}
);
associatedMasterId = "41EDA971-A137-4972-81AF-7929AB7CAABF";
layerId = "97DA2D85-AF26-4EC9-AC2B-3528300611FB";
name = "25 févr. 25 à 12:06";
shapes = (
{
closed = 1;
nodes = (
(323,-16,o),
(406,32,o),
(435,177,cs),
(469,352,ls),
(492,462,o),
(467,572,o),
(298,572,cs),
(96,572,o),
(13,358,o),
(14,193,cs),
(15,46,o),
(103,-16,o),
(225,-16,cs)
);
},
{
closed = 1;
nodes = (
(166,179,o),
(97,205,o),
(97,247,cs),
(97,291,o),
(134,311,o),
(220,311,cs),
(362,311,o),
(430,292,o),
(430,244,cs),
(430,200,o),
(396,179,o),
(308,179,cs)
);
},
{
closed = 1;
nodes = (
(468,0,l),
(618,772,l),
(526,772,l),
(456,410,l),
(459,387,l),
(408,122,l),
(395,99,l),
(376,0,l)
);
}
);
width = 574;
},
{
anchors = (
{
name = bottom;
pos = (240,0);
},
{
name = caroncomb.alt;
pos = (618,772);
},
{
name = top;
pos = (328,556);
}
);
associatedMasterId = "41EDA971-A137-4972-81AF-7929AB7CAABF";
layerId = "25BE9962-C70E-41C3-BCC6-93C1FEA16B28";
name = "25 févr. 25 à 12:32";
shapes = (
{
closed = 1;
nodes = (
(323,-16,o),
(406,32,o),
(435,177,cs),
(469,352,ls),
(492,462,o),
(467,572,o),
(298,572,cs),
(96,572,o),
(13,358,o),
(14,193,cs),
(15,46,o),
(103,-16,o),
(225,-16,cs)
);
},
{
closed = 1;
nodes = (
(166,179,o),
(97,205,o),
(97,247,cs),
(97,291,o),
(134,311,o),
(220,311,cs),
(362,311,o),
(430,292,o),
(430,244,cs),
(430,200,o),
(396,179,o),
(308,179,cs)
);
},
{
closed = 1;
nodes = (
(468,0,l),
(618,772,l),
(526,772,l),
(456,410,l),
(459,387,l),
(408,122,l),
(395,99,l),
(376,0,l)
);
}
);
width = 574;
}
);
metricLeft = "=o";
metricRight = "=|n";
unicode = 100;
},
{
color = 5;
glyphname = dcaron;
lastChange = "2025-02-27 16:35:58 +0000";
layers = (
{
layerId = "41EDA971-A137-4972-81AF-7929AB7CAABF";
shapes = (
{
ref = d;
},
{
pos = (522,0);
ref = caroncomb.alt;
}
);
width = 574;
},
{
background = {
shapes = (
{
closed = 0;
nodes = (
(566,731,ls),
(567,748,o),
(565,762,o),
(562,772,c)
);
}
);
};
layerId = "79167EE4-8C29-4BCE-A9E7-C1CFC4557E33";
name = Extralight;
shapes = (
{
ref = d;
},
{
pos = (503,0);
ref = caroncomb.alt;
}
);
width = 575;
}
);
unicode = 271;
},
{
color = 3;
glyphname = dcroat;
lastChange = "2025-02-27 15:31:52 +0000";
layers = (
{
layerId = "79167EE4-8C29-4BCE-A9E7-C1CFC4557E33";
shapes = (
{
closed = 1;
nodes = (
(592,630,l),
(592,680,l),
(270,680,l),
(270,630,l)
);
},
{
alignment = -1;
ref = d;
}
);
width = 586;
},
{
layerId = "41EDA971-A137-4972-81AF-7929AB7CAABF";
shapes = (
{
closed = 1;
nodes = (
(601,604,l),
(601,736,l),
(223,736,l),
(223,604,l)
);
},
{
alignment = -1;
ref = d;
}
);
width = 574;
}
);
metricLeft = "=d";
unicode = 273;
},
{
color = 3;
glyphname = eth;
lastChange = "2025-02-28 10:13:28 +0000";
layers = (
{
background = {
shapes = (
{
closed = 1;
nodes = (
(435,-8,o),
(534,95,o),
(534,377,cs),
(534,631,o),
(454,780,o),
(266,780,cs),
(171,780,o),
(110,744,o),
(81,698,c),
(98,665,l),
(119,692,o),
(188,722,o),
(255,722,cs),
(432,722,o),
(499,626,o),
(498,356,c),
(505,351,l),
(463,449,o),
(386,498,o),
(281,498,cs),
(137,498,o),
(42,404,o),
(42,245,cs),
(42,86,o),
(137,-8,o),
(281,-8,cs)
);
},
{
closed = 1;
nodes = (
(150,46,o),
(72,128,o),
(72,256,cs),
(72,379,o),
(150,456,o),
(281,456,cs),
(410,456,o),
(487,380,o),
(487,256,cs),
(487,134,o),
(409,46,o),
(281,46,cs)
);
},
{
closed = 1;
nodes = (
(538,754,l),
(513,780,l),
(293,574,l),
(318,548,l)
);
}
);
};
layerId = "79167EE4-8C29-4BCE-A9E7-C1CFC4557E33";
shapes = (
{
closed = 1;
nodes = (
(380,-8,o),
(499,95,o),
(554,377,cs),
(603,631,o),
(552,780,o),
(364,780,cs),
(269,780,o),
(201,744,o),
(163,698,c),
(174,665,l),
(200,692,o),
(275,722,o),
(342,722,cs),
(519,722,o),
(567,626,o),
(514,356,c),
(520,351,l),
(497,449,o),
(430,498,o),
(325,498,cs),
(181,498,o),
(67,404,o),
(36,245,cs),
(5,86,o),
(82,-8,o),
(226,-8,cs)
);
},
{
closed = 1;
nodes = (
(106,46,o),
(44,128,o),
(69,256,cs),
(92,379,o),
(185,456,o),
(316,456,cs),
(445,456,o),
(508,380,o),
(484,256,cs),
(460,134,o),
(365,46,o),
(237,46,cs)
);
},
{
closed = 1;
nodes = (
(629,757,l),
(611,780,l),
(353,571,l),
(371,548,l)
);
}
);
width = 585;
},
{
associatedMasterId = "79167EE4-8C29-4BCE-A9E7-C1CFC4557E33";
background = {
shapes = (
{
closed = 1;
nodes = (
(534,396,l),
(534,639,o),
(437,780,o),
(251,780,cs),
(170,780,o),
(110,747,o),
(81,711,c),
(97,665,l),
(129,698,o),
(193,723,o),
(252,722,cs),
(421,722,o),
(498,622,o),
(498,385,c)
);
}
);
};
layerId = "08A5BB67-CDCC-4845-BCDC-FB2AE6F80482";
name = "13 déc. 24 à 14:47";
shapes = (
{
closed = 1;
nodes = (
(435,-8,o),
(534,95,o),
(534,377,cs),
(534,609,o),
(464,780,o),
(256,780,cs),
(181,780,o),
(113,750,o),
(81,711,c),
(97,665,l),
(122,692,o),
(185,722,o),
(255,722,cs),
(432,722,o),
(499,616,o),
(498,356,c),
(505,351,l),
(463,449,o),
(386,498,o),
(281,498,cs),
(137,498,o),
(42,404,o),
(42,245,cs),
(42,86,o),
(137,-8,o),
(281,-8,cs)
);
},
{
closed = 1;
nodes = (
(150,46,o),
(72,128,o),
(72,256,cs),
(72,379,o),
(150,456,o),
(281,456,cs),
(410,456,o),
(487,380,o),
(487,256,cs),
(487,134,o),
(409,46,o),
(281,46,cs)
);
},
{
closed = 1;
nodes = (
(542,744,l),
(513,780,l),
(288,583,l),
(318,548,l)
);
}
);
width = 585;
},
{
associatedMasterId = "41EDA971-A137-4972-81AF-7929AB7CAABF";
layerId = "57D7300E-4CDA-4EE1-AC97-D2C54AD181B4";
name = "15 déc. 24 à 19:21";
shapes = (
{
closed = 1;
nodes = (
(442,-16,o),
(539,73,o),
(539,346,cs),
(539,576,o),
(435,788,o),
(225,788,cs),
(164,788,o),
(97,777,o),
(51,718,c),
(79,661,l),
(114,675,o),
(158,679,o),
(202,677,cs),
(387,668,o),
(460,544,o),
(459,339,c),
(491,333,l),
(444,382,o),
(380,408,o),
(285,408,cs),
(107,408,o),
(22,336,o),
(22,198,cs),
(22,50,o),
(119,-16,o),
(271,-16,cs)
);
},
{
closed = 1;
nodes = (
(143,182,o),
(101,208,o),
(101,256,cs),
(101,295,o),
(143,326,o),
(280,326,cs),
(408,326,o),
(460,293,o),
(460,256,cs),
(460,208,o),
(418,182,o),
(280,182,cs)
);
},
{
closed = 1;
nodes = (
(608,637,l),
(543,752,l),
(217,567,l),
(282,452,l)
);
}
);
width = 562;
},
{
associatedMasterId = "41EDA971-A137-4972-81AF-7929AB7CAABF";
layerId = "DD458601-E4B2-4F89-900A-A93BE39F479E";
name = "15 déc. 24 à 19:22";
shapes = (
{
closed = 1;
nodes = (
(442,-16,o),
(539,73,o),
(539,346,cs),
(539,626,o),
(450,788,o),
(255,788,cs),
(176,788,o),
(90,759,o),
(31,700,c),
(79,503,l),
(125,530,o),
(185,540,o),
(242,540,cs),
(404,540,o),
(460,494,o),
(459,339,c),
(491,333,l),
(444,382,o),
(380,408,o),
(285,408,cs),
(107,408,o),
(22,336,o),
(22,198,cs),
(22,50,o),
(119,-16,o),
(271,-16,cs)
);
},
{
closed = 1;
nodes = (
(143,182,o),
(101,208,o),
(101,256,cs),
(101,295,o),
(143,326,o),
(280,326,cs),
(408,326,o),
(460,293,o),
(460,256,cs),
(460,208,o),
(418,182,o),
(280,182,cs)
);
},
{
closed = 1;
nodes = (
(628,627,l),
(563,742,l),
(237,557,l),
(302,442,l)
);
}
);
width = 562;
},
{
associatedMasterId = "79167EE4-8C29-4BCE-A9E7-C1CFC4557E33";
background = {
shapes = (
{
closed = 1;
nodes = (
(435,-8,o),
(534,95,o),
(534,377,cs),
(534,609,o),
(467,780,o),
(266,780,cs),
(171,780,o),
(110,744,o),
(81,698,c),
(98,665,l),
(119,692,o),
(188,722,o),
(255,722,cs),
(432,722,o),
(499,616,o),
(498,356,c),
(505,351,l),
(463,449,o),
(386,498,o),
(281,498,cs),
(137,498,o),
(42,404,o),
(42,245,cs),
(42,86,o),
(137,-8,o),
(281,-8,cs)
);
},
{
closed = 1;
nodes = (
(150,46,o),
(72,128,o),
(72,256,cs),
(72,379,o),
(150,456,o),
(281,456,cs),
(410,456,o),
(487,380,o),
(487,256,cs),
(487,134,o),
(409,46,o),
(281,46,cs)
);
},
{
closed = 1;
nodes = (
(542,744,l),
(513,780,l),
(288,583,l),
(318,548,l)
);
}
);
};
layerId = "651DBA96-ECB6-46B1-B1F2-FA798B3FA2B8";
name = "15 déc. 24 à 19:29";
shapes = (
{
closed = 1;
nodes = (
(435,-8,o),
(534,95,o),
(534,377,cs),
(534,631,o),
(454,780,o),
(266,780,cs),
(171,780,o),
(110,744,o),
(81,698,c),
(98,665,l),
(119,692,o),
(188,722,o),
(255,722,cs),
(432,722,o),
(499,626,o),
(498,356,c),
(505,351,l),
(463,449,o),
(386,498,o),
(281,498,cs),
(137,498,o),
(42,404,o),
(42,245,cs),
(42,86,o),
(137,-8,o),
(281,-8,cs)
);
},
{
closed = 1;
nodes = (
(150,46,o),
(72,128,o),
(72,256,cs),
(72,379,o),
(150,456,o),
(281,456,cs),
(410,456,o),
(487,380,o),
(487,256,cs),
(487,134,o),
(409,46,o),
(281,46,cs)
);
},
{
closed = 1;
nodes = (
(542,744,l),
(513,780,l),
(288,583,l),
(318,548,l)
);
}
);
width = 585;
},
{
associatedMasterId = "41EDA971-A137-4972-81AF-7929AB7CAABF";
background = {
shapes = (
{
closed = 1;
nodes = (
(628,627,l),
(563,742,l),
(237,557,l),
(302,442,l)
);
}
);
};
layerId = "A8BC1995-AB46-4310-BBA3-AFCDEC9E94E9";
name = "15 déc. 24 à 19:35";
shapes = (
{
closed = 1;
nodes = (
(442,-16,o),
(539,73,o),
(539,346,cs),
(539,626,o),
(450,788,o),
(255,788,cs),
(176,788,o),
(90,759,o),
(31,700,c),
(79,503,l),
(125,530,o),
(185,540,o),
(242,540,cs),
(404,540,o),
(460,494,o),
(459,339,c),
(491,333,l),
(444,382,o),
(380,408,o),
(285,408,cs),
(107,408,o),
(22,336,o),
(22,198,cs),
(22,50,o),
(119,-16,o),
(271,-16,cs)
);
},
{
closed = 1;
nodes = (
(143,182,o),
(101,208,o),
(101,256,cs),
(101,295,o),
(143,326,o),
(280,326,cs),
(408,326,o),
(460,293,o),
(460,256,cs),
(460,208,o),
(418,182,o),
(280,182,cs)
);
},
{
closed = 1;
nodes = (
(615,610,l),
(569,678,l),
(290,484,l),
(336,416,l)
);
}
);
width = 562;
},
{
associatedMasterId = "41EDA971-A137-4972-81AF-7929AB7CAABF";
background = {
shapes = (
{
closed = 0;
nodes = (
(152,741,l),
(191,612,l)
);
},
{
closed = 0;
nodes = (
(178,775,l),
(151,724,l)
);
},
{
closed = 0;
nodes = (
(211,639,l),
(179,616,l)
);
}
);
};
layerId = "D2151FAC-1D33-4BE1-8D11-44A65ED0E6D3";
name = "15 déc. 24 à 20:19";
shapes = (
{
closed = 1;
nodes = (
(214,639,o),
(240,644,o),
(275,644,cs),
(375,644,o),
(460,549,o),
(460,405,cs),
(460,399,o),
(460,374,o),
(458,349,c),
(491,353,l),
(442,442,o),
(375,488,o),
(265,488,cs),
(104,488,o),
(22,402,o),
(22,238,cs),
(22,62,o),
(119,-16,o),
(271,-16,cs),
(442,-16,o),
(539,73,o),
(539,346,cs),
(539,646,o),
(469,788,o),
(283,788,cs),
(223,788,o),
(174,767,o),
(155,731,c),
(188,623,l)
);
},
{
closed = 1;
nodes = (
(605,610,l),
(578,687,l),
(277,580,l),
(304,503,l)
);
},
{
closed = 1;
nodes = (
(153,182,o),
(102,203,o),
(102,245,cs),
(102,287,o),
(153,308,o),
(273,308,cs),
(393,308,o),
(444,287,o),
(444,245,cs),
(444,203,o),
(393,182,o),
(273,182,cs)
);
}
);
width = 562;
},
{
layerId = "41EDA971-A137-4972-81AF-7929AB7CAABF";
name = Black;
shapes = (
{
closed = 1;
nodes = (
(385,-16,o),
(496,73,o),
(560,388,cs),
(621,682,o),
(537,788,o),
(369,788,cs),
(309,788,o),
(256,769,o),
(227,740,c),
(229,606,l),
(258,620,o),
(295,628,o),
(338,628,cs),
(458,628,o),
(515,561,o),
(477,365,c),
(486,353,l),
(474,442,o),
(416,488,o),
(306,488,cs),
(145,488,o),
(46,402,o),
(14,238,cs),
(-20,62,o),
(62,-16,o),
(214,-16,cs)
);
},
{
closed = 1;
nodes = (
(134,182,o),
(87,203,o),
(96,245,cs),
(104,287,o),
(159,308,o),
(279,308,cs),
(399,308,o),
(446,287,o),
(438,245,cs),
(429,203,o),
(374,182,o),
(254,182,cs)
);
},
{
closed = 1;
nodes = (
(680,605,l),
(664,681,l),
(354,567,l),
(368,491,l)
);
}
);
width = 562;
},
{
associatedMasterId = "41EDA971-A137-4972-81AF-7929AB7CAABF";
background = {
shapes = (
{
closed = 1;
nodes = (
(538,430,l),
(542,665,o),
(464,788,o),
(284,788,cs),
(249,788,o),
(206,777,o),
(179,754,c),
(192,647,l),
(207,652,o),
(226,654,o),
(250,654,cs),
(365,654,o),
(447,593,o),
(460,395,c)
);
}
);
};
layerId = "721C9E79-FD0D-41F9-BFC1-121AC95FC304";
name = "15 déc. 24 à 20:22";
shapes = (
{
closed = 1;
nodes = (
(195,654,o),
(219,654,o),
(242,651,cs),
(378,637,o),
(460,551,o),
(460,405,cs),
(460,399,o),
(460,374,o),
(458,349,c),
(491,353,l),
(442,442,o),
(375,488,o),
(265,488,cs),
(104,488,o),
(22,402,o),
(22,238,cs),
(22,62,o),
(119,-16,o),
(271,-16,cs),
(442,-16,o),
(539,73,o),
(539,346,cs),
(539,623,o),
(469,796,o),
(282,794,cs),
(253,794,o),
(225,787,o),
(206,772,c),
(170,653,l)
);
},
{
closed = 1;
nodes = (
(605,610,l),
(578,687,l),
(277,580,l),
(304,503,l)
);
},
{
closed = 1;
nodes = (
(153,182,o),
(102,203,o),
(102,245,cs),
(102,287,o),
(153,308,o),
(273,308,cs),
(393,308,o),
(444,287,o),
(444,245,cs),
(444,203,o),
(393,182,o),
(273,182,cs)
);
}
);
width = 562;
},
{
associatedMasterId = "41EDA971-A137-4972-81AF-7929AB7CAABF";
background = {
shapes = (
{
pos = (90,-31);
ref = gravecomb;
}
);
};
layerId = "2BCCD5D1-CA9F-446A-A529-3652E05F5580";
name = "15 déc. 24 à 20:23";
shapes = (
{
closed = 1;
nodes = (
(442,-16,o),
(536,73,o),
(539,388,cs),
(542,686,o),
(454,788,o),
(284,788,cs),
(249,788,o),
(206,777,o),
(179,754,c),
(192,647,l),
(207,652,o),
(226,654,o),
(250,654,cs),
(371,654,o),
(460,580,o),
(460,365,c),
(491,353,l),
(442,442,o),
(375,488,o),
(265,488,cs),
(104,488,o),
(22,402,o),
(22,238,cs),
(22,62,o),
(119,-16,o),
(271,-16,cs)
);
},
{
closed = 1;
nodes = (
(153,182,o),
(102,203,o),
(102,245,cs),
(102,287,o),
(153,308,o),
(273,308,cs),
(393,308,o),
(444,287,o),
(444,245,cs),
(444,203,o),
(393,182,o),
(273,182,cs)
);
},
{
closed = 1;
nodes = (
(605,610,l),
(578,687,l),
(277,580,l),
(304,503,l)
);
}
);
width = 562;
}
);
metricLeft = "=o";
unicode = 240;
},
{
color = 3;
glyphname = e;
lastChange = "2025-02-28 10:13:28 +0000";
layers = (
{
anchors = (
{
name = bottom;
pos = (230,0);
},
{
name = ogonek;
pos = (357,0);
},
{
name = top;
pos = (339,548);
}
);
layerId = "79167EE4-8C29-4BCE-A9E7-C1CFC4557E33";
shapes = (
{
closed = 1;
nodes = (
(333,-8,o),
(406,29,o),
(443,76,c),
(432,111,l),
(395,72,o),
(338,45,o),
(272,45,cs),
(145,45,o),
(66,107,o),
(66,223,cs),
(66,370,o),
(169,502,o),
(332,502,cs),
(418,502,o),
(483,462,o),
(483,402,cs),
(483,304,o),
(358,266,o),
(58,301,c),
(51,266,l),
(378,219,o),
(518,270,o),
(518,419,cs),
(518,502,o),
(449,556,o),
(343,556,cs),
(159,556,o),
(35,392,o),
(35,212,cs),
(35,82,o),
(102,-8,o),
(255,-8,cs)
);
}
);
width = 542;
},
{
anchors = (
{
name = bottom;
pos = (230,0);
},
{
name = ogonek;
pos = (375,0);
},
{
name = top;
pos = (344,556);
}
);
layerId = "41EDA971-A137-4972-81AF-7929AB7CAABF";
shapes = (
{
closed = 1;
nodes = (
(339,-16,o),
(415,18,o),
(456,74,c),
(439,211,l),
(399,185,o),
(344,172,o),
(266,172,cs),
(153,172,o),
(104,202,o),
(104,256,cs),
(104,322,o),
(140,346,o),
(274,346,cs),
(363,346,o),
(383,337,o),
(383,320,cs),
(383,298,o),
(333,275,o),
(103,295,c),
(91,231,l),
(403,189,o),
(531,247,o),
(531,412,cs),
(531,500,o),
(462,572,o),
(337,572,cs),
(126,572,o),
(15,399,o),
(15,201,cs),
(15,56,o),
(99,-16,o),
(242,-16,cs)
);
}
);
width = 522;
},
{
anchors = (
{
name = ogonek;
pos = (357,0);
},
{
name = top;
pos = (339,548);
}
);
associatedMasterId = "79167EE4-8C29-4BCE-A9E7-C1CFC4557E33";
layerId = "CB3F0559-8B39-4053-816B-1EE8AD6EF879";
name = "3 févr. 25 à 15:08";
shapes = (
{
closed = 1;
nodes = (
(318,-8,o),
(397,34,o),
(439,87,c),
(428,117,l),
(388,72,o),
(322,45,o),
(250,46,cs),
(114,47,o),
(42,120,o),
(70,265,cs),
(97,404,o),
(205,500,o),
(343,500,cs),
(445,500,o),
(494,457,o),
(482,397,cs),
(469,332,o),
(398,270,o),
(56,284,c),
(49,249,l),
(401,227,o),
(495,293,o),
(516,402,cs),
(534,496,o),
(471,556,o),
(360,556,cs),
(210,556,o),
(75,442,o),
(41,268,cs),
(10,111,o),
(64,-8,o),
(236,-8,cs)
);
}
);
width = 542;
},
{
anchors = (
{
name = ogonek;
pos = (357,0);
},
{
name = top;
pos = (339,548);
}
);
associatedMasterId = "79167EE4-8C29-4BCE-A9E7-C1CFC4557E33";
background = {
shapes = (
{
closed = 1;
nodes = (
(333,-8,o),
(405,30,o),
(442,81,c),
(432,111,l),
(397,69,o),
(340,45,o),
(276,45,cs),
(145,45,o),
(66,107,o),
(66,223,cs),
(66,370,o),
(169,502,o),
(324,502,cs),
(418,502,o),
(483,462,o),
(483,402,cs),
(483,304,o),
(358,266,o),
(58,301,c),
(51,266,l),
(378,219,o),
(518,270,o),
(518,419,cs),
(518,502,o),
(449,556,o),
(339,556,cs),
(159,556,o),
(35,390,o),
(35,208,cs),
(35,83,o),
(102,-8,o),
(257,-8,cs)
);
}
);
};
layerId = "E0D61949-0766-49E9-B5CF-A8FAC72C251B";
name = "4 févr. 25 à 11:41";
shapes = (
{
closed = 1;
nodes = (
(333,-8,o),
(405,30,o),
(442,81,c),
(432,111,l),
(395,71,o),
(338,45,o),
(272,45,cs),
(145,45,o),
(66,107,o),
(66,223,cs),
(66,370,o),
(169,502,o),
(332,502,cs),
(418,502,o),
(483,462,o),
(483,402,cs),
(483,304,o),
(358,266,o),
(58,301,c),
(51,266,l),
(378,219,o),
(518,270,o),
(518,419,cs),
(518,502,o),
(449,556,o),
(343,556,cs),
(159,556,o),
(35,392,o),
(35,212,cs),
(35,82,o),
(102,-8,o),
(255,-8,cs)
);
}
);
width = 542;
},
{
anchors = (
{
name = ogonek;
pos = (372,0);
},
{
name = top;
pos = (341,565);
}
);
associatedMasterId = "41EDA971-A137-4972-81AF-7929AB7CAABF";
background = {
shapes = (
{
closed = 0;
nodes = (
(489,70,l),
(444,221,l)
);
},
{
closed = 0;
nodes = (
(455,27,l),
(490,90,l)
);
},
{
closed = 0;
nodes = (
(416,188,l),
(457,216,l)
);
}
);
};
layerId = "2007BEE6-F98F-4CB9-817F-05CB206390EF";
name = "4 févr. 25 à 12:44";
shapes = (
{
closed = 1;
nodes = (
(314,-18,o),
(398,27,o),
(453,99,c),
(430,229,l),
(388,196,o),
(327,172,o),
(243,173,cs),
(118,174,o),
(90,210,o),
(103,280,cs),
(111,319,o),
(162,345,o),
(315,345,cs),
(373,345,o),
(383,335,o),
(381,322,cs),
(378,307,o),
(312,279,o),
(100,284,c),
(88,219,l),
(422,197,o),
(505,278,o),
(526,392,cs),
(547,506,o),
(482,582,o),
(359,582,cs),
(196,582,o),
(60,475,o),
(21,275,cs),
(-17,78,o),
(61,-18,o),
(206,-18,cs)
);
}
);
width = 519;
},
{
anchors = (
{
name = ogonek;
pos = (377,0);
},
{
name = top;
pos = (346,565);
}
);
associatedMasterId = "41EDA971-A137-4972-81AF-7929AB7CAABF";
background = {
shapes = (
{
closed = 1;
nodes = (
(335,-16,o),
(409,24,o),
(459,89,c),
(436,219,l),
(400,192,o),
(350,172,o),
(268,172,cs),
(155,172,o),
(106,202,o),
(106,264,cs),
(106,324,o),
(141,345,o),
(270,345,cs),
(367,345,o),
(385,337,o),
(385,319,cs),
(385,294,o),
(320,275,o),
(105,295,c),
(93,231,l),
(405,189,o),
(533,245,o),
(533,418,cs),
(533,510,o),
(464,572,o),
(339,572,cs),
(128,572,o),
(17,399,o),
(17,201,cs),
(17,56,o),
(102,-16,o),
(238,-16,cs)
);
}
);
};
layerId = "7A7195E2-D160-4274-8593-8E0147FBA899";
name = "4 févr. 25 à 16:01";
shapes = (
{
closed = 1;
nodes = (
(335,-16,o),
(409,24,o),
(459,89,c),
(436,219,l),
(400,192,o),
(350,172,o),
(268,172,cs),
(155,172,o),
(106,202,o),
(106,264,cs),
(106,324,o),
(141,345,o),
(270,345,cs),
(367,345,o),
(385,337,o),
(385,319,cs),
(385,294,o),
(320,275,o),
(105,295,c),
(93,231,l),
(405,189,o),
(533,245,o),
(533,418,cs),
(533,510,o),
(464,572,o),
(339,572,cs),
(128,572,o),
(17,399,o),
(17,201,cs),
(17,56,o),
(102,-16,o),
(238,-16,cs)
);
}
);
width = 524;
},
{
anchors = (
{
name = ogonek;
pos = (375,0);
},
{
name = top;
pos = (344,565);
}
);
associatedMasterId = "41EDA971-A137-4972-81AF-7929AB7CAABF";
background = {
shapes = (
{
closed = 1;
nodes = (
(333,-16,o),
(407,24,o),
(457,89,c),
(434,219,l),
(398,192,o),
(348,172,o),
(266,172,cs),
(153,172,o),
(104,202,o),
(104,264,cs),
(104,324,o),
(139,345,o),
(268,345,cs),
(365,345,o),
(383,337,o),
(383,319,cs),
(383,294,o),
(318,275,o),
(103,295,c),
(91,231,l),
(403,189,o),
(531,245,o),
(531,418,cs),
(531,510,o),
(462,572,o),
(337,572,cs),
(126,572,o),
(15,399,o),
(15,201,cs),
(15,56,o),
(100,-16,o),
(236,-16,cs)
);
}
);
};
layerId = "014AE0B8-5E7F-4060-BE13-3FE569C6B5B0";
name = "25 févr. 25 à 12:24";
shapes = (
{
closed = 1;
nodes = (
(333,-16,o),
(407,24,o),
(457,89,c),
(434,219,l),
(398,192,o),
(348,172,o),
(266,172,cs),
(153,172,o),
(104,202,o),
(104,256,cs),
(104,323,o),
(147,347,o),
(278,347,cs),
(360,347,o),
(383,337,o),
(383,321,cs),
(383,294,o),
(321,275,o),
(103,295,c),
(91,231,l),
(403,189,o),
(531,245,o),
(531,418,cs),
(531,510,o),
(462,572,o),
(337,572,cs),
(126,572,o),
(15,399,o),
(15,201,cs),
(15,56,o),
(100,-16,o),
(236,-16,cs)
);
}
);
width = 522;
},
{
anchors = (
{
name = ogonek;
pos = (375,0);
},
{
name = top;
pos = (344,565);
}
);
associatedMasterId = "41EDA971-A137-4972-81AF-7929AB7CAABF";
background = {
shapes = (
{
closed = 1;
nodes = (
(383,-18,o),
(458,27,o),
(499,99,c),
(451,229,l),
(415,196,o),
(359,172,o),
(274,173,cs),
(149,174,o),
(114,210,o),
(114,280,cs),
(114,319,o),
(160,345,o),
(313,345,cs),
(371,345,o),
(383,335,o),
(383,322,cs),
(383,307,o),
(323,279,o),
(110,284,c),
(110,219,l),
(449,197,o),
(516,278,o),
(515,392,cs),
(514,506,o),
(434,582,o),
(311,582,cs),
(148,582,o),
(33,475,o),
(33,275,cs),
(33,78,o),
(130,-18,o),
(275,-18,cs)
);
}
);
};
layerId = "22D6E7AE-6D6A-4F70-8F70-0EF797DC0550";
name = "25 févr. 25 à 13:26";
shapes = (
{
closed = 1;
nodes = (
(333,-16,o),
(407,24,o),
(457,89,c),
(434,219,l),
(398,192,o),
(349,172,o),
(266,172,cs),
(153,172,o),
(104,202,o),
(104,256,cs),
(104,323,o),
(157,348,o),
(278,348,cs),
(358,348,o),
(383,339,o),
(383,321,cs),
(383,296,o),
(321,275,o),
(103,295,c),
(91,231,l),
(403,189,o),
(531,247,o),
(531,412,cs),
(531,500,o),
(462,572,o),
(337,572,cs),
(126,572,o),
(15,399,o),
(15,201,cs),
(15,56,o),
(100,-16,o),
(236,-16,cs)
);
}
);
width = 522;
},
{
anchors = (
{
name = ogonek;
pos = (375,0);
},
{
name = top;
pos = (344,556);
}
);
associatedMasterId = "41EDA971-A137-4972-81AF-7929AB7CAABF";
background = {
shapes = (
{
closed = 1;
nodes = (
(124,330,o),
(168,346,o),
(274,346,cs),
(363,346,o),
(383,337,o),
(383,320,cs),
(383,298,o),
(333,275,o),
(111,295,c)
);
}
);
};
layerId = "DB468E7D-A213-41DC-BAD9-A218E80D808D";
name = "25 févr. 25 à 13:28";
shapes = (
{
closed = 1;
nodes = (
(333,-16,o),
(407,24,o),
(457,89,c),
(434,219,l),
(398,192,o),
(349,172,o),
(266,172,cs),
(153,172,o),
(104,202,o),
(104,256,cs),
(104,323,o),
(157,348,o),
(278,348,cs),
(358,348,o),
(383,339,o),
(383,321,cs),
(383,296,o),
(321,275,o),
(103,295,c),
(91,231,l),
(403,189,o),
(531,247,o),
(531,412,cs),
(531,500,o),
(462,572,o),
(337,572,cs),
(126,572,o),
(15,399,o),
(15,201,cs),
(15,56,o),
(100,-16,o),
(236,-16,cs)
);
}
);
width = 522;
},
{
anchors = (
{
name = ogonek;
pos = (375,0);
},
{
name = top;
pos = (344,556);
}
);
associatedMasterId = "41EDA971-A137-4972-81AF-7929AB7CAABF";
layerId = "AA3B88AC-7949-4119-9186-81512D339671";
name = "25 févr. 25 à 14:14";
shapes = (
{
closed = 1;
nodes = (
(333,-16,o),
(407,24,o),
(457,89,c),
(434,219,l),
(398,192,o),
(349,172,o),
(266,172,cs),
(153,172,o),
(104,202,o),
(104,256,cs),
(104,322,o),
(140,346,o),
(274,346,cs),
(363,346,o),
(383,337,o),
(383,320,cs),
(383,298,o),
(333,275,o),
(103,295,c),
(91,231,l),
(403,189,o),
(531,247,o),
(531,412,cs),
(531,500,o),
(462,572,o),
(337,572,cs),
(126,572,o),
(15,399,o),
(15,201,cs),
(15,56,o),
(100,-16,o),
(236,-16,cs)
);
}
);
width = 522;
}
);
metricLeft = "=o";
unicode = 101;
},
{
color = 3;
glyphname = eogonek;
lastChange = "2025-02-27 15:30:55 +0000";
layers = (
{
layerId = "79167EE4-8C29-4BCE-A9E7-C1CFC4557E33";
shapes = (
{
ref = e;
},
{
closed = 1;
nodes = (
(432,-203,o),
(462,-185,o),
(476,-160,c),
(468,-125,l),
(451,-140,o),
(428,-150,o),
(396,-150,cs),
(357,-150,o),
(335,-133,o),
(335,-100,cs),
(335,-66,o),
(358,-27,o),
(442,40,c),
(417,51,l),
(333,-13,o),
(296,-67,o),
(296,-120,cs),
(296,-175,o),
(329,-203,o),
(388,-203,cs)
);
}
);
width = 542;
},
{
background = {
shapes = (
{
closed = 1;
nodes = (
(419,-214,o),
(470,-185,o),
(489,-149,c),
(459,-64,l),
(433,-80,o),
(407,-88,o),
(387,-88,cs),
(358,-88,o),
(349,-80,o),
(349,-67,cs),
(349,-51,o),
(364,-29,o),
(446,0,c),
(383,25,l),
(278,-16,o),
(240,-57,o),
(240,-115,cs),
(240,-178,o),
(286,-214,o),
(360,-214,cs)
);
}
);
};
layerId = "41EDA971-A137-4972-81AF-7929AB7CAABF";
shapes = (
{
ref = e;
},
{
closed = 1;
nodes = (
(419,-214,o),
(470,-185,o),
(489,-149,c),
(459,-64,l),
(433,-80,o),
(407,-88,o),
(387,-88,cs),
(358,-88,o),
(349,-77,o),
(349,-61,cs),
(349,-40,o),
(364,-19,o),
(439,35,c),
(376,60,l),
(278,-16,o),
(240,-57,o),
(240,-115,cs),
(240,-178,o),
(286,-214,o),
(360,-214,cs)
);
}
);
width = 560;
}
);
metricLeft = "=e";
metricRight = "=e@274";
unicode = 281;
},
{
color = 3;
glyphname = schwa;
lastChange = "2025-02-28 10:13:28 +0000";
layers = (
{
background = {
shapes = (
{
closed = 0;
nodes = (
(93,421,l),
(59,486,l)
);
},
{
closed = 0;
nodes = (
(118,469,l),
(83,424,l)
);
},
{
closed = 0;
nodes = (
(100,509,l),
(66,456,l)
);
}
);
};
layerId = "79167EE4-8C29-4BCE-A9E7-C1CFC4557E33";
shapes = (
{
closed = 1;
nodes = (
(355,-8,o),
(474,91,o),
(510,276,cs),
(545,453,o),
(493,556,o),
(332,556,cs),
(213,556,o),
(146,509,o),
(108,463,c),
(118,430,l),
(156,469,o),
(234,499,o),
(314,498,cs),
(449,496,o),
(511,432,o),
(480,275,cs),
(477,261,ls),
(452,131,o),
(354,46,o),
(243,46,cs),
(97,46,o),
(49,131,o),
(78,278,c),
(54,242,l),
(482,242,l),
(489,278,l),
(49,278,l),
(5,81,o),
(84,-8,o),
(222,-8,cs)
);
}
);
width = 550;
},
{
background = {
anchors = (
{
name = bottom;
pos = (238,0);
},
{
name = ogonek;
pos = (89,564);
}
);
};
layerId = "41EDA971-A137-4972-81AF-7929AB7CAABF";
shapes = (
{
closed = 1;
nodes = (
(357,-16,o),
(458,98,o),
(495,289,cs),
(538,510,o),
(454,580,o),
(312,580,cs),
(207,580,o),
(123,545,o),
(68,477,c),
(77,303,l),
(119,328,o),
(179,346,o),
(266,346,cs),
(380,346,o),
(423,318,o),
(414,271,cs),
(407,238,ls),
(399,198,o),
(360,172,o),
(223,172,cs),
(100,172,o),
(75,196,o),
(81,232,c),
(50,226,l),
(406,226,l),
(418,290,l),
(19,290,l),
(-35,78,o),
(25,-16,o),
(196,-16,cs)
);
}
);
width = 515;
},
{
associatedMasterId = "79167EE4-8C29-4BCE-A9E7-C1CFC4557E33";
layerId = "2A61007C-2116-43DB-8B3C-AAFF2285E828";
name = "13 déc. 24 à 15:02";
shapes = (
{
closed = 1;
nodes = (
(394,-8,o),
(494,91,o),
(494,276,cs),
(494,450,o),
(418,556,o),
(256,556,cs),
(152,556,o),
(84,513,o),
(57,464,c),
(69,429,l),
(108,473,o),
(179,499,o),
(249,498,cs),
(383,496,o),
(464,432,o),
(464,275,cs),
(464,261,ls),
(464,131,o),
(382,46,o),
(271,46,cs),
(125,46,o),
(61,131,o),
(61,278,c),
(44,242,l),
(472,242,l),
(472,278,l),
(32,278,l),
(27,81,o),
(123,-8,o),
(261,-8,cs)
);
}
);
width = 536;
}
);
metricLeft = "=|e";
metricRight = "=o";
unicode = 601;
},
{
glyphname = f;
lastChange = "2025-02-27 15:33:01 +0000";
layers = (
{
anchors = (
{
name = top;
pos = (347,772);
}
);
background = {
shapes = (
{
closed = 1;
nodes = (
(28,-204,o),
(75,-160,o),
(95,-56,cs),
(205,518,l),
(179,518,l),
(69,-55,ls),
(56,-123,o),
(29,-151,o),
(-11,-151,cs),
(-42,-151,o),
(-69,-138,o),
(-80,-123,c),
(-104,-162,l),
(-90,-192,o),
(-55,-204,o),
(-24,-204,cs)
);
},
{
closed = 1;
nodes = (
(345,494,l),
(355,548,l),
(97,548,l),
(87,494,l)
);
},
{
closed = 1;
nodes = (
(210,541,l),
(228,679,o),
(263,726,o),
(341,726,cs),
(380,726,o),
(415,712,o),
(430,694,c),
(448,739,l),
(432,765,o),
(400,780,o),
(355,780,cs),
(274,780,o),
(203,722,o),
(184,541,c)
);
}
);
};
layerId = "79167EE4-8C29-4BCE-A9E7-C1CFC4557E33";
shapes = (
{
closed = 1;
nodes = (
(34,-204,o),
(75,-161,o),
(93,-66,cs),
(205,518,l),
(179,518,l),
(67,-65,ls),
(56,-124,o),
(29,-151,o),
(-11,-151,cs),
(-42,-151,o),
(-69,-138,o),
(-80,-123,c),
(-104,-162,l),
(-90,-192,o),
(-55,-204,o),
(-24,-204,cs)
);
},
{
closed = 1;
nodes = (
(345,494,l),
(355,548,l),
(97,548,l),
(87,494,l)
);
},
{
closed = 1;
nodes = (
(210,541,l),
(228,679,o),
(263,726,o),
(344,726,cs),
(380,726,o),
(415,712,o),
(430,694,c),
(448,739,l),
(432,765,o),
(400,780,o),
(355,780,cs),
(256,780,o),
(203,708,o),
(184,541,c)
);
}
);
width = 333;
},
{
anchors = (
{
name = top;
pos = (384,772);
}
);
layerId = "41EDA971-A137-4972-81AF-7929AB7CAABF";
shapes = (
{
closed = 1;
nodes = (
(43,-212,o),
(108,-165,o),
(130,-53,cs),
(201,315,l),
(109,315,l),
(61,65,ls),
(47,-8,o),
(15,-25,o),
(-25,-25,cs),
(-56,-25,o),
(-85,-12,o),
(-102,4,c),
(-172,-127,l),
(-151,-183,o),
(-103,-212,o),
(-38,-212,cs)
);
},
{
closed = 1;
nodes = (
(353,268,l),
(404,531,l),
(71,531,l),
(20,268,l)
);
},
{
closed = 1;
nodes = (
(231,508,l),
(233,551,o),
(261,571,o),
(344,571,cs),
(390,571,o),
(420,561,o),
(434,550,c),
(523,723,l),
(508,761,o),
(468,788,o),
(373,788,cs),
(238,788,o),
(153,702,o),
(150,507,c)
);
}
);
width = 385;
},
{
associatedMasterId = "79167EE4-8C29-4BCE-A9E7-C1CFC4557E33";
layerId = "E4DFDB8F-E7EF-4C73-9616-E292BC0D7DD1";
name = "3 févr. 25 à 15:21";
shapes = (
{
closed = 1;
nodes = (
(25,-200,o),
(75,-155,o),
(96,-46,cs),
(205,518,l),
(179,518,l),
(70,-47,ls),
(56,-117,o),
(28,-146,o),
(-16,-146,cs),
(-46,-146,o),
(-72,-136,o),
(-81,-123,c),
(-105,-162,l),
(-93,-189,o),
(-60,-200,o),
(-32,-200,cs)
);
},
{
closed = 1;
nodes = (
(345,494,l),
(355,548,l),
(97,548,l),
(87,494,l)
);
},
{
closed = 1;
nodes = (
(210,541,l),
(229,680,o),
(268,724,o),
(355,724,cs),
(390,724,o),
(419,713,o),
(432,698,c),
(450,744,l),
(436,766,o),
(409,780,o),
(373,780,cs),
(284,780,o),
(205,722,o),
(184,541,c)
);
}
);
width = 333;
},
{
associatedMasterId = "41EDA971-A137-4972-81AF-7929AB7CAABF";
layerId = "72CF1E8C-C71B-4E0D-A4AA-4FC383D4F108";
name = "4 févr. 25 à 13:46";
shapes = (
{
closed = 1;
nodes = (
(33,-210,o),
(112,-150,o),
(141,-2,cs),
(202,315,l),
(107,315,l),
(61,76,ls),
(53,35,o),
(23,15,o),
(-20,15,cs),
(-58,15,o),
(-85,21,o),
(-99,32,c),
(-191,-148,l),
(-177,-189,o),
(-137,-210,o),
(-63,-210,cs)
);
},
{
closed = 1;
nodes = (
(353,268,l),
(404,531,l),
(71,531,l),
(20,268,l)
);
},
{
closed = 1;
nodes = (
(230,501,l),
(231,548,o),
(280,572,o),
(358,572,cs),
(396,572,o),
(423,566,o),
(437,555,c),
(529,735,l),
(515,776,o),
(475,797,o),
(401,797,cs),
(260,797,o),
(154,713,o),
(149,501,c)
);
}
);
width = 385;
},
{
associatedMasterId = "41EDA971-A137-4972-81AF-7929AB7CAABF";
background = {
shapes = (
{
closed = 1;
nodes = (
(32,-212,o),
(110,-163,o),
(138,-16,cs),
(202,315,l),
(107,315,l),
(61,78,ls),
(51,27,o),
(23,12,o),
(-20,12,cs),
(-55,12,o),
(-84,22,o),
(-98,33,c),
(-189,-146,l),
(-174,-185,o),
(-134,-212,o),
(-45,-212,cs)
);
},
{
closed = 1;
nodes = (
(353,268,l),
(404,531,l),
(71,531,l),
(20,268,l)
);
},
{
closed = 1;
nodes = (
(231,508,l),
(232,547,o),
(263,571,o),
(336,571,cs),
(393,571,o),
(420,561,o),
(434,550,c),
(523,723,l),
(508,761,o),
(468,788,o),
(373,788,cs),
(238,788,o),
(153,702,o),
(150,507,c)
);
}
);
};
layerId = "D46875D3-1316-4741-A848-A33ABDA8C53C";
name = "25 févr. 25 à 12:06";
shapes = (
{
closed = 1;
nodes = (
(32,-212,o),
(110,-163,o),
(138,-16,cs),
(202,315,l),
(107,315,l),
(61,78,ls),
(51,27,o),
(23,12,o),
(-20,12,cs),
(-55,12,o),
(-84,22,o),
(-98,33,c),
(-189,-146,l),
(-174,-185,o),
(-134,-212,o),
(-45,-212,cs)
);
},
{
closed = 1;
nodes = (
(353,268,l),
(404,531,l),
(71,531,l),
(20,268,l)
);
},
{
closed = 1;
nodes = (
(231,508,l),
(232,547,o),
(263,571,o),
(336,571,cs),
(393,571,o),
(420,561,o),
(434,550,c),
(523,723,l),
(508,761,o),
(468,788,o),
(373,788,cs),
(238,788,o),
(153,702,o),
(150,507,c)
);
}
);
width = 385;
},
{
associatedMasterId = "41EDA971-A137-4972-81AF-7929AB7CAABF";
background = {
shapes = (
{
closed = 1;
nodes = (
(32,-212,o),
(110,-163,o),
(138,-16,cs),
(202,315,l),
(107,315,l),
(61,78,ls),
(51,27,o),
(23,12,o),
(-20,12,cs),
(-55,12,o),
(-84,22,o),
(-98,33,c),
(-189,-146,l),
(-174,-185,o),
(-134,-212,o),
(-45,-212,cs)
);
},
{
closed = 1;
nodes = (
(353,268,l),
(404,531,l),
(71,531,l),
(20,268,l)
);
},
{
closed = 1;
nodes = (
(231,508,l),
(232,547,o),
(263,571,o),
(336,571,cs),
(393,571,o),
(420,561,o),
(434,550,c),
(523,723,l),
(508,761,o),
(468,788,o),
(373,788,cs),
(238,788,o),
(153,702,o),
(150,507,c)
);
}
);
};
layerId = "8B4CB3B6-85F2-46E5-9B79-9E2452202E00";
name = "25 févr. 25 à 13:32";
shapes = (
{
closed = 1;
nodes = (
(32,-212,o),
(109,-163,o),
(137,-16,cs),
(201,315,l),
(109,315,l),
(63,80,ls),
(53,27,o),
(24,12,o),
(-20,12,cs),
(-55,12,o),
(-84,22,o),
(-98,33,c),
(-189,-146,l),
(-174,-185,o),
(-134,-212,o),
(-45,-212,cs)
);
},
{
closed = 1;
nodes = (
(353,268,l),
(404,531,l),
(71,531,l),
(20,268,l)
);
},
{
closed = 1;
nodes = (
(231,508,l),
(232,547,o),
(263,571,o),
(336,571,cs),
(393,571,o),
(420,561,o),
(434,550,c),
(523,723,l),
(508,761,o),
(468,788,o),
(373,788,cs),
(238,788,o),
(153,702,o),
(150,507,c)
);
}
);
width = 385;
},
{
associatedMasterId = "41EDA971-A137-4972-81AF-7929AB7CAABF";
layerId = "635183F9-B137-4159-912A-3F29CE3C3836";
name = "25 févr. 25 à 13:33";
shapes = (
{
closed = 1;
nodes = (
(32,-212,o),
(109,-163,o),
(137,-16,cs),
(201,315,l),
(109,315,l),
(63,80,ls),
(53,27,o),
(24,12,o),
(-20,12,cs),
(-55,12,o),
(-84,22,o),
(-98,33,c),
(-189,-146,l),
(-174,-185,o),
(-134,-212,o),
(-45,-212,cs)
);
},
{
closed = 1;
nodes = (
(353,268,l),
(404,531,l),
(71,531,l),
(20,268,l)
);
},
{
closed = 1;
nodes = (
(231,508,l),
(233,551,o),
(261,571,o),
(344,571,cs),
(390,571,o),
(420,561,o),
(434,550,c),
(523,723,l),
(508,761,o),
(468,788,o),
(373,788,cs),
(238,788,o),
(153,702,o),
(150,507,c)
);
}
);
width = 385;
},
{
associatedMasterId = "41EDA971-A137-4972-81AF-7929AB7CAABF";
layerId = "910FA944-01B8-4F65-8CF6-B79D8EA1CB80";
name = "25 févr. 25 à 14:20";
shapes = (
{
closed = 1;
nodes = (
(43,-212,o),
(108,-165,o),
(130,-53,cs),
(201,315,l),
(109,315,l),
(61,65,ls),
(47,-8,o),
(15,-25,o),
(-25,-25,cs),
(-57,-25,o),
(-86,-12,o),
(-105,4,c),
(-175,-142,l),
(-160,-184,o),
(-116,-212,o),
(-38,-212,cs)
);
},
{
closed = 1;
nodes = (
(353,268,l),
(404,531,l),
(71,531,l),
(20,268,l)
);
},
{
closed = 1;
nodes = (
(231,508,l),
(233,551,o),
(261,571,o),
(344,571,cs),
(390,571,o),
(420,561,o),
(434,550,c),
(523,723,l),
(508,761,o),
(468,788,o),
(373,788,cs),
(238,788,o),
(153,702,o),
(150,507,c)
);
}
);
width = 385;
},
{
associatedMasterId = "41EDA971-A137-4972-81AF-7929AB7CAABF";
background = {
shapes = (
{
closed = 1;
nodes = (
(43,-212,o),
(108,-165,o),
(130,-53,cs),
(201,315,l),
(109,315,l),
(61,65,ls),
(47,-8,o),
(15,-25,o),
(-25,-25,cs),
(-57,-25,o),
(-86,-12,o),
(-105,4,c),
(-175,-142,l),
(-160,-184,o),
(-116,-212,o),
(-38,-212,cs)
);
},
{
closed = 1;
nodes = (
(353,268,l),
(404,531,l),
(71,531,l),
(20,268,l)
);
},
{
closed = 1;
nodes = (
(231,508,l),
(233,551,o),
(261,571,o),
(344,571,cs),
(390,571,o),
(420,561,o),
(434,550,c),
(523,723,l),
(508,761,o),
(468,788,o),
(373,788,cs),
(238,788,o),
(153,702,o),
(150,507,c)
);
}
);
};
layerId = "241115CA-E92A-48A6-9F7E-A49D37225360";
name = "25 févr. 25 à 14:22";
shapes = (
{
closed = 1;
nodes = (
(43,-212,o),
(108,-165,o),
(130,-53,cs),
(201,315,l),
(109,315,l),
(61,65,ls),
(47,-8,o),
(15,-25,o),
(-25,-25,cs),
(-56,-25,o),
(-85,-12,o),
(-103,4,c),
(-173,-132,l),
(-159,-180,o),
(-115,-212,o),
(-38,-212,cs)
);
},
{
closed = 1;
nodes = (
(353,268,l),
(404,531,l),
(71,531,l),
(20,268,l)
);
},
{
closed = 1;
nodes = (
(231,508,l),
(233,551,o),
(261,571,o),
(344,571,cs),
(390,571,o),
(420,561,o),
(434,550,c),
(523,723,l),
(508,761,o),
(468,788,o),
(373,788,cs),
(238,788,o),
(153,702,o),
(150,507,c)
);
}
);
width = 385;
}
);
unicode = 102;
},
{
glyphname = g;
lastChange = "2025-02-27 15:33:01 +0000";
layers = (
{
anchors = (
{
name = top;
pos = (337,548);
}
);
layerId = "79167EE4-8C29-4BCE-A9E7-C1CFC4557E33";
shapes = (
{
closed = 1;
nodes = (
(333,-204,o),
(418,-120,o),
(450,46,cs),
(537,492,l),
(506,483,l),
(447,182,l),
(426,76,ls),
(393,-95,o),
(325,-151,o),
(210,-151,cs),
(111,-151,o),
(39,-111,o),
(13,-60,c),
(-11,-94,l),
(17,-163,o),
(97,-204,o),
(199,-204,cs)
);
},
{
closed = 1;
nodes = (
(318,-8,o),
(399,48,o),
(446,141,c),
(462,261,l),
(426,90,o),
(327,45,o),
(243,45,cs),
(131,45,o),
(69,107,o),
(69,218,cs),
(69,378,o),
(165,501,o),
(322,501,cs),
(405,501,o),
(484,468,o),
(507,437,c),
(537,492,l),
(498,524,o),
(423,556,o),
(343,556,cs),
(153,556,o),
(36,387,o),
(36,200,cs),
(36,63,o),
(108,-8,o),
(231,-8,cs)
);
}
);
width = 561;
},
{
anchors = (
{
name = top;
pos = (337,556);
}
);
layerId = "41EDA971-A137-4972-81AF-7929AB7CAABF";
shapes = (
{
closed = 1;
nodes = (
(353,-212,o),
(442,-134,o),
(479,56,cs),
(565,495,l),
(477,516,l),
(403,138,l),
(394,90,ls),
(378,7,o),
(321,-32,o),
(208,-32,cs),
(134,-32,o),
(67,-11,o),
(24,36,c),
(-46,-95,l),
(-22,-167,o),
(68,-212,o),
(198,-212,cs)
);
},
{
closed = 1;
nodes = (
(298,13,o),
(391,49,o),
(432,181,c),
(423,241,l),
(414,195,o),
(350,180,o),
(257,180,cs),
(135,180,o),
(89,210,o),
(89,248,cs),
(89,291,o),
(130,317,o),
(258,317,cs),
(366,317,o),
(415,295,o),
(447,268,c),
(565,495,l),
(509,550,o),
(409,572,o),
(326,572,cs),
(98,572,o),
(4,386,o),
(6,212,cs),
(8,74,o),
(90,13,o),
(222,13,cs)
);
}
);
width = 571;
},
{
associatedMasterId = "79167EE4-8C29-4BCE-A9E7-C1CFC4557E33";
layerId = "1B7D4F7D-3E64-42DE-B182-1B957F90138A";
name = "3 févr. 25 à 15:28";
shapes = (
{
closed = 1;
nodes = (
(540,503,l),
(511,531,o),
(438,556,o),
(370,556,cs),
(209,556,o),
(74,442,o),
(41,252,cs),
(7,59,o),
(98,-8,o),
(214,-8,cs),
(305,-8,o),
(398,52,o),
(449,160,c),
(466,274,l),
(437,136,o),
(359,46,o),
(226,46,cs),
(105,46,o),
(48,122,o),
(72,255,cs),
(102,417,o),
(202,500,o),
(349,500,cs),
(424,500,o),
(482,474,o),
(501,455,c)
);
},
{
closed = 1;
nodes = (
(395,-91,o),
(319,-146,o),
(197,-146,cs),
(97,-146,o),
(31,-113,o),
(11,-62,c),
(-13,-102,l),
(5,-161,o),
(74,-200,o),
(183,-200,cs),
(318,-200,o),
(418,-124,o),
(456,71,cs),
(540,503,l),
(511,504,l),
(448,182,l),
(428,80,ls)
);
}
);
width = 568;
},
{
associatedMasterId = "79167EE4-8C29-4BCE-A9E7-C1CFC4557E33";
background = {
shapes = (
{
closed = 1;
nodes = (
(334,-204,o),
(419,-120,o),
(453,54,cs),
(537,487,l),
(507,483,l),
(448,182,l),
(425,66,ls),
(394,-95,o),
(326,-151,o),
(220,-151,cs),
(112,-151,o),
(39,-112,o),
(14,-56,c),
(-10,-96,l),
(16,-166,o),
(98,-204,o),
(204,-204,cs)
);
},
{
closed = 1;
nodes = (
(109,-8,o),
(232,-8,cs),
(319,-8,o),
(400,50,o),
(446,148,c),
(463,261,l),
(427,90,o),
(330,45,o),
(244,45,cs),
(132,45,o),
(70,107,o),
(70,212,cs),
(70,378,o),
(166,501,o),
(323,501,cs),
(406,501,o),
(487,465,o),
(506,431,c),
(537,487,l),
(509,519,o),
(425,556,o),
(348,556,cs),
(155,556,o),
(37,387,o),
(37,192,cs),
(37,63,o)
);
}
);
};
layerId = "150E133B-B69C-445A-B69E-135E4F7F6C1B";
name = "4 févr. 25 à 11:42";
shapes = (
{
closed = 1;
nodes = (
(334,-204,o),
(419,-120,o),
(453,54,cs),
(537,487,l),
(507,483,l),
(448,182,l),
(425,66,ls),
(394,-95,o),
(326,-151,o),
(211,-151,cs),
(112,-151,o),
(39,-112,o),
(14,-56,c),
(-10,-96,l),
(16,-166,o),
(98,-204,o),
(200,-204,cs)
);
},
{
closed = 1;
nodes = (
(319,-8,o),
(400,50,o),
(446,148,c),
(463,261,l),
(427,90,o),
(330,45,o),
(244,45,cs),
(132,45,o),
(70,107,o),
(70,218,cs),
(70,378,o),
(166,501,o),
(323,501,cs),
(406,501,o),
(487,465,o),
(506,431,c),
(537,487,l),
(508,519,o),
(424,556,o),
(344,556,cs),
(154,556,o),
(37,387,o),
(37,200,cs),
(37,63,o),
(109,-8,o),
(232,-8,cs)
);
}
);
width = 568;
},
{
associatedMasterId = "41EDA971-A137-4972-81AF-7929AB7CAABF";
layerId = "734EA1B2-83AC-4000-8814-C46774612FAF";
name = "4 févr. 25 à 13:50";
shapes = (
{
closed = 1;
nodes = (
(342,-210,o),
(444,-130,o),
(484,75,cs),
(570,516,l),
(473,516,l),
(400,137,l),
(388,82,ls),
(371,0,o),
(315,-29,o),
(204,-29,cs),
(113,-29,o),
(61,-9,o),
(23,34,c),
(-50,-97,l),
(-28,-163,o),
(34,-210,o),
(173,-210,cs)
);
},
{
closed = 1;
nodes = (
(295,12,o),
(392,61,o),
(434,195,c),
(422,253,l),
(412,200,o),
(332,180,o),
(241,180,cs),
(142,180,o),
(78,199,o),
(86,248,cs),
(95,301,o),
(167,317,o),
(265,317,cs),
(356,317,o),
(419,301,o),
(449,257,c),
(570,516,l),
(529,555,o),
(449,582,o),
(359,582,cs),
(180,582,o),
(50,495,o),
(10,275,cs),
(-25,80,o),
(64,12,o),
(197,12,cs)
);
}
);
width = 600;
},
{
associatedMasterId = "41EDA971-A137-4972-81AF-7929AB7CAABF";
layerId = "8F9C3869-59C5-4164-8852-96D38F847658";
name = "25 févr. 25 à 12:06";
shapes = (
{
closed = 1;
nodes = (
(354,-212,o),
(444,-134,o),
(481,56,cs),
(567,495,l),
(474,516,l),
(401,137,l),
(386,70,ls),
(371,-3,o),
(326,-32,o),
(239,-32,cs),
(142,-32,o),
(75,-13,o),
(28,41,c),
(-45,-90,l),
(-17,-166,o),
(68,-212,o),
(206,-212,cs)
);
},
{
closed = 1;
nodes = (
(298,13,o),
(391,49,o),
(432,181,c),
(420,240,l),
(411,194,o),
(353,178,o),
(279,178,cs),
(142,178,o),
(89,212,o),
(89,249,cs),
(89,290,o),
(125,318,o),
(220,318,cs),
(339,318,o),
(417,291,o),
(447,244,c),
(567,495,l),
(511,550,o),
(410,572,o),
(326,572,cs),
(92,572,o),
(4,386,o),
(6,212,cs),
(8,74,o),
(90,13,o),
(222,13,cs)
);
}
);
width = 573;
},
{
associatedMasterId = "41EDA971-A137-4972-81AF-7929AB7CAABF";
layerId = "EF686421-BBE0-437D-AC5A-DDCFAEBD9A0A";
name = "25 févr. 25 à 12:29";
shapes = (
{
closed = 1;
nodes = (
(298,13,o),
(391,49,o),
(432,181,c),
(423,241,l),
(414,194,o),
(355,178,o),
(279,178,cs),
(142,178,o),
(89,212,o),
(89,249,cs),
(89,290,o),
(125,318,o),
(220,318,cs),
(339,318,o),
(417,291,o),
(447,244,c),
(565,495,l),
(509,550,o),
(409,572,o),
(326,572,cs),
(92,572,o),
(4,386,o),
(6,212,cs),
(8,74,o),
(90,13,o),
(222,13,cs)
);
},
{
closed = 1;
nodes = (
(353,-212,o),
(442,-134,o),
(479,56,cs),
(565,495,l),
(477,516,l),
(403,138,l),
(390,70,ls),
(376,-2,o),
(326,-32,o),
(239,-32,cs),
(142,-32,o),
(75,-13,o),
(28,41,c),
(-45,-90,l),
(-17,-166,o),
(68,-212,o),
(206,-212,cs)
);
}
);
width = 571;
},
{
associatedMasterId = "41EDA971-A137-4972-81AF-7929AB7CAABF";
layerId = "0A417A08-9F76-448D-B9F0-6952972BE7E3";
name = "25 févr. 25 à 12:30";
shapes = (
{
closed = 1;
nodes = (
(298,13,o),
(391,49,o),
(432,181,c),
(423,241,l),
(414,195,o),
(350,180,o),
(257,180,cs),
(135,180,o),
(89,210,o),
(89,248,cs),
(89,291,o),
(130,317,o),
(258,317,cs),
(366,317,o),
(415,295,o),
(447,268,c),
(565,495,l),
(509,550,o),
(409,572,o),
(326,572,cs),
(98,572,o),
(4,386,o),
(6,212,cs),
(8,74,o),
(90,13,o),
(222,13,cs)
);
},
{
closed = 1;
nodes = (
(353,-212,o),
(442,-134,o),
(479,56,cs),
(565,495,l),
(477,516,l),
(403,138,l),
(390,70,ls),
(376,-2,o),
(326,-32,o),
(239,-32,cs),
(142,-32,o),
(75,-13,o),
(28,41,c),
(-45,-90,l),
(-17,-166,o),
(68,-212,o),
(206,-212,cs)
);
}
);
width = 571;
},
{
associatedMasterId = "41EDA971-A137-4972-81AF-7929AB7CAABF";
background = {
shapes = (
{
closed = 1;
nodes = (
(298,13,o),
(391,49,o),
(432,181,c),
(423,241,l),
(414,195,o),
(350,180,o),
(257,180,cs),
(135,180,o),
(89,210,o),
(89,248,cs),
(89,291,o),
(130,317,o),
(258,317,cs),
(366,317,o),
(415,295,o),
(447,268,c),
(565,495,l),
(509,550,o),
(409,572,o),
(326,572,cs),
(98,572,o),
(4,386,o),
(6,212,cs),
(8,74,o),
(90,13,o),
(222,13,cs)
);
},
{
closed = 1;
nodes = (
(353,-212,o),
(442,-134,o),
(479,56,cs),
(565,495,l),
(477,516,l),
(403,138,l),
(390,70,ls),
(376,-2,o),
(326,-32,o),
(239,-32,cs),
(142,-32,o),
(75,-13,o),
(28,41,c),
(-45,-90,l),
(-17,-166,o),
(68,-212,o),
(206,-212,cs)
);
}
);
};
layerId = "F698B342-1240-437A-80CB-BB8FDB0DEBF6";
name = "25 févr. 25 à 14:21";
shapes = (
{
closed = 1;
nodes = (
(353,-212,o),
(442,-134,o),
(479,56,cs),
(565,495,l),
(477,516,l),
(403,138,l),
(394,90,ls),
(378,7,o),
(321,-32,o),
(208,-32,cs),
(134,-32,o),
(67,-11,o),
(25,36,c),
(-45,-90,l),
(-17,-166,o),
(68,-212,o),
(206,-212,cs)
);
},
{
closed = 1;
nodes = (
(298,13,o),
(391,49,o),
(432,181,c),
(423,241,l),
(414,195,o),
(350,180,o),
(257,180,cs),
(135,180,o),
(89,210,o),
(89,248,cs),
(89,291,o),
(130,317,o),
(258,317,cs),
(366,317,o),
(415,295,o),
(447,268,c),
(565,495,l),
(509,550,o),
(409,572,o),
(326,572,cs),
(98,572,o),
(4,386,o),
(6,212,cs),
(8,74,o),
(90,13,o),
(222,13,cs)
);
}
);
width = 571;
}
);
metricLeft = "=a";
metricRight = "=n";
unicode = 103;
},
{
glyphname = h;
lastChange = "2025-02-27 15:33:01 +0000";
layers = (
{
anchors = (
{
name = bottom;
pos = (35,0);
},
{
name = top;
pos = (184,772);
}
);
background = {
anchors = (
{
name = bottom;
pos = (221,0);
}
);
};
layerId = "79167EE4-8C29-4BCE-A9E7-C1CFC4557E33";
shapes = (
{
closed = 1;
nodes = (
(50,0,l),
(114,328,ls),
(138,452,o),
(214,499,o),
(318,499,cs),
(450,499,o),
(484,434,o),
(459,307,cs),
(399,0,l),
(429,0,l),
(488,306,ls),
(519,467,o),
(485,556,o),
(333,556,cs),
(237,556,o),
(159,507,o),
(122,419,c),
(124,382,l),
(199,772,l),
(169,772,l),
(20,0,l)
);
}
);
width = 548;
},
{
anchors = (
{
name = bottom;
pos = (45,0);
},
{
name = top;
pos = (194,772);
}
);
background = {
anchors = (
{
name = top;
pos = (194,772);
}
);
};
layerId = "41EDA971-A137-4972-81AF-7929AB7CAABF";
shapes = (
{
closed = 1;
nodes = (
(91,0,l),
(129,200,ls),
(144,280,o),
(186,309,o),
(270,309,cs),
(387,309,o),
(414,265,o),
(397,180,cs),
(362,0,l),
(454,0,l),
(516,319,ls),
(548,478,o),
(511,572,o),
(350,572,cs),
(265,572,o),
(203,537,o),
(168,463,c),
(175,439,l),
(240,772,l),
(148,772,l),
(-1,0,l)
);
}
);
width = 556;
},
{
anchors = (
{
name = top;
pos = (183,772);
}
);
associatedMasterId = "79167EE4-8C29-4BCE-A9E7-C1CFC4557E33";
layerId = "96DE580D-1577-4345-A641-C0558981E10D";
name = "3 févr. 25 à 15:57";
shapes = (
{
closed = 1;
nodes = (
(360,0,l),
(438,104,o),
(479,221,o),
(498,318,cs),
(534,506,o),
(461,556,o),
(358,556,cs),
(247,556,o),
(176,496,o),
(124,413,c),
(109,319,l),
(129,420,o),
(213,500,o),
(340,500,cs),
(448,500,o),
(493,444,o),
(468,315,cs),
(449,217,o),
(403,101,o),
(327,0,c)
);
},
{
closed = 1;
nodes = (
(47,0,l),
(197,772,l),
(169,772,l),
(19,0,l)
);
}
);
width = 555;
},
{
anchors = (
{
name = top;
pos = (183,772);
}
);
associatedMasterId = "79167EE4-8C29-4BCE-A9E7-C1CFC4557E33";
layerId = "F7B46A18-25E6-4782-86B8-60A41C3D7B4D";
name = "4 févr. 25 à 10:22";
shapes = (
{
closed = 1;
nodes = (
(363,0,l),
(451,115,o),
(504,280,o),
(504,392,cs),
(504,515,o),
(434,556,o),
(337,556,cs),
(239,556,o),
(175,502,o),
(127,427,c),
(111,333,l),
(131,428,o),
(205,501,o),
(319,501,cs),
(415,501,o),
(472,459,o),
(472,372,cs),
(472,283,o),
(421,116,o),
(328,0,c)
);
},
{
closed = 1;
nodes = (
(47,0,l),
(197,772,l),
(169,772,l),
(19,0,l)
);
}
);
width = 555;
},
{
anchors = (
{
name = top;
pos = (200,787);
}
);
associatedMasterId = "41EDA971-A137-4972-81AF-7929AB7CAABF";
layerId = "C54937C1-01BF-4752-8ACD-4941BD9FC6A8";
name = "4 févr. 25 à 14:47";
shapes = (
{
closed = 1;
nodes = (
(402,0,l),
(466,96,o),
(506,202,o),
(529,320,cs),
(563,496,o),
(525,581,o),
(385,581,cs),
(263,581,o),
(178,511,o),
(152,390,c),
(132,196,l),
(153,304,o),
(222,317,o),
(303,317,cs),
(388,317,o),
(415,278,o),
(401,205,cs),
(389,146,o),
(348,65,o),
(305,0,c)
);
},
{
closed = 1;
nodes = (
(94,0,l),
(247,787,l),
(151,787,l),
(-2,0,l)
);
}
);
width = 569;
},
{
anchors = (
{
name = top;
pos = (196,772);
}
);
associatedMasterId = "41EDA971-A137-4972-81AF-7929AB7CAABF";
layerId = "A3E82F4E-1BAA-4C49-ABDA-3F5929CF555D";
name = "25 févr. 25 à 12:07";
shapes = (
{
closed = 1;
nodes = (
(91,0,l),
(130,200,ls),
(145,280,o),
(186,309,o),
(270,309,cs),
(387,309,o),
(414,265,o),
(397,180,cs),
(362,0,l),
(454,0,l),
(516,319,ls),
(548,478,o),
(511,572,o),
(350,572,cs),
(265,572,o),
(203,537,o),
(168,463,c),
(176,439,l),
(240,772,l),
(148,772,l),
(-1,0,l)
);
}
);
width = 556;
}
);
metricLeft = "=n";
metricRight = "=n";
unicode = 104;
},
{
color = 3;
glyphname = hbar;
lastChange = "2025-02-27 15:31:52 +0000";
layers = (
{
layerId = "79167EE4-8C29-4BCE-A9E7-C1CFC4557E33";
shapes = (
{
closed = 1;
nodes = (
(316,644,l),
(316,680,l),
(-6,680,l),
(-6,644,l)
);
},
{
alignment = -1;
ref = h;
}
);
width = 563;
},
{
layerId = "41EDA971-A137-4972-81AF-7929AB7CAABF";
shapes = (
{
closed = 1;
nodes = (
(331,629,l),
(331,711,l),
(-47,711,l),
(-47,629,l)
);
},
{
alignment = -1;
ref = h;
}
);
width = 538;
},
{
associatedMasterId = "41EDA971-A137-4972-81AF-7929AB7CAABF";
layerId = "24CC54DF-D3F3-45FF-BD49-66CE25F688EA";
name = "15 déc. 24 à 19:25";
shapes = (
{
closed = 1;
nodes = (
(331,604,l),
(331,736,l),
(-47,736,l),
(-47,604,l)
);
},
{
alignment = -1;
ref = h;
}
);
width = 538;
},
{
associatedMasterId = "79167EE4-8C29-4BCE-A9E7-C1CFC4557E33";
layerId = "36D6B51A-6A9C-4FD5-9771-7135BC2F5F56";
name = "15 déc. 24 à 19:27";
shapes = (
{
closed = 1;
nodes = (
(316,637,l),
(316,687,l),
(-6,687,l),
(-6,637,l)
);
},
{
alignment = -1;
ref = h;
}
);
width = 563;
}
);
unicode = 295;
},
{
glyphname = i;
lastChange = "2025-02-27 15:33:01 +0000";
layers = (
{
layerId = "79167EE4-8C29-4BCE-A9E7-C1CFC4557E33";
shapes = (
{
closed = 1;
nodes = (
(212,686,o),
(236,712,o),
(236,739,cs),
(236,762,o),
(220,780,o),
(195,780,cs),
(167,780,o),
(143,756,o),
(143,727,cs),
(143,705,o),
(159,686,o),
(183,686,cs)
);
},
{
ref = dotlessi;
}
);
width = 220;
},
{
layerId = "41EDA971-A137-4972-81AF-7929AB7CAABF";
shapes = (
{
closed = 1;
nodes = (
(311,580,o),
(376,626,o),
(376,712,cs),
(376,775,o),
(328,808,o),
(262,808,cs),
(187,808,o),
(120,763,o),
(120,679,cs),
(120,614,o),
(169,580,o),
(234,580,cs)
);
},
{
ref = dotlessi;
}
);
width = 343;
},
{
anchors = (
{
name = ogonek;
pos = (182,0);
}
);
associatedMasterId = "41EDA971-A137-4972-81AF-7929AB7CAABF";
layerId = "26B6A975-A51E-49D9-9B46-E8ED604C9977";
name = "4 févr. 25 à 13:55";
shapes = (
{
closed = 1;
nodes = (
(233,0,l),
(341,556,l),
(80,556,l),
(29,293,l),
(198,293,l),
(141,0,l)
);
},
{
closed = 1;
nodes = (
(294,580,o),
(356,620,o),
(371,695,cs),
(385,769,o),
(338,808,o),
(266,808,cs),
(196,808,o),
(131,769,o),
(117,695,cs),
(102,620,o),
(152,580,o),
(222,580,cs)
);
}
);
width = 338;
}
);
metricLeft = "=dotlessi@548";
metricRight = "=dotlessi@548";
unicode = 105;
},
{
glyphname = dotlessi;
lastChange = "2025-02-27 15:33:01 +0000";
layers = (
{
anchors = (
{
name = ogonek;
pos = (74,0);
},
{
name = top;
pos = (146,548);
}
);
layerId = "79167EE4-8C29-4BCE-A9E7-C1CFC4557E33";
shapes = (
{
closed = 1;
nodes = (
(90,0,l),
(196,548,l),
(69,548,l),
(59,494,l),
(156,494,l),
(60,0,l)
);
}
);
width = 220;
},
{
anchors = (
{
name = ogonek;
pos = (188,0);
},
{
name = top;
pos = (219,556);
}
);
background = {
anchors = (
{
name = ogonek;
pos = (188,0);
},
{
name = top;
pos = (219,556);
}
);
shapes = (
{
closed = 1;
nodes = (
(235,0,l),
(343,556,l),
(82,556,l),
(31,293,l),
(200,293,l),
(143,0,l)
);
}
);
};
layerId = "41EDA971-A137-4972-81AF-7929AB7CAABF";
shapes = (
{
closed = 1;
nodes = (
(235,0,l),
(343,556,l),
(82,556,l),
(31,293,l),
(200,293,l),
(143,0,l)
);
}
);
width = 343;
},
{
anchors = (
{
name = ogonek;
pos = (74,0);
},
{
name = top;
pos = (146,548);
}
);
associatedMasterId = "79167EE4-8C29-4BCE-A9E7-C1CFC4557E33";
background = {
anchors = (
{
name = ogonek;
pos = (74,0);
},
{
name = top;
pos = (146,548);
}
);
shapes = (
{
closed = 1;
nodes = (
(90,0,l),
(196,548,l),
(69,548,l),
(59,494,l),
(156,494,l),
(60,0,l)
);
}
);
};
layerId = "B4E6AEF8-57F5-43D6-8468-75DACD64BEA9";
name = "27 févr. 25 à 15:39";
shapes = (
{
closed = 1;
nodes = (
(90,0,l),
(196,548,l),
(69,548,l),
(59,494,l),
(156,494,l),
(60,0,l)
);
}
);
width = 220;
}
);
unicode = 305;
},
{
color = 3;
glyphname = iogonek;
lastChange = "2025-02-27 15:30:55 +0000";
layers = (
{
layerId = "79167EE4-8C29-4BCE-A9E7-C1CFC4557E33";
shapes = (
{
ref = i;
},
{
closed = 1;
nodes = (
(151,-203,o),
(181,-185,o),
(195,-160,c),
(187,-125,l),
(170,-140,o),
(146,-150,o),
(113,-150,cs),
(75,-150,o),
(54,-135,o),
(54,-105,cs),
(54,-75,o),
(73,-40,o),
(139,0,c),
(114,11,l),
(46,-27,o),
(15,-77,o),
(15,-125,cs),
(15,-177,o),
(50,-203,o),
(107,-203,cs)
);
}
);
width = 205;
},
{
layerId = "41EDA971-A137-4972-81AF-7929AB7CAABF";
shapes = (
{
ref = i;
},
{
closed = 1;
nodes = (
(258,-223,o),
(307,-187,o),
(326,-142,c),
(296,-56,l),
(274,-77,o),
(247,-95,o),
(221,-95,cs),
(201,-95,o),
(188,-85,o),
(188,-72,cs),
(188,-55,o),
(203,-31,o),
(289,0,c),
(222,25,l),
(117,-17,o),
(79,-61,o),
(79,-121,cs),
(79,-186,o),
(125,-223,o),
(199,-223,cs)
);
}
);
width = 338;
}
);
unicode = 303;
},
{
glyphname = j;
lastChange = "2025-02-27 15:33:01 +0000";
layers = (
{
layerId = "79167EE4-8C29-4BCE-A9E7-C1CFC4557E33";
shapes = (
{
closed = 1;
nodes = (
(225,686,o),
(250,711,o),
(250,739,cs),
(250,762,o),
(233,780,o),
(208,780,cs),
(181,780,o),
(157,756,o),
(157,727,cs),
(157,705,o),
(173,686,o),
(196,686,cs)
);
},
{
pos = (-5,0);
ref = dotlessj;
}
);
width = 235;
},
{
layerId = "41EDA971-A137-4972-81AF-7929AB7CAABF";
shapes = (
{
closed = 1;
nodes = (
(336,580,o),
(401,626,o),
(401,712,cs),
(401,775,o),
(353,808,o),
(287,808,cs),
(212,808,o),
(145,763,o),
(145,679,cs),
(145,614,o),
(194,580,o),
(259,580,cs)
);
},
{
pos = (5,0);
ref = dotlessj;
}
);
width = 368;
},
{
associatedMasterId = "79167EE4-8C29-4BCE-A9E7-C1CFC4557E33";
background = {
shapes = (
{
closed = 1;
nodes = (
(8,-207,o),
(72,-166,o),
(99,-28,cs),
(210,548,l),
(63,548,l),
(53,494,l),
(170,494,l),
(70,-21,ls),
(50,-122,o),
(18,-154,o),
(-42,-150,cs),
(-73,-148,o),
(-99,-135,o),
(-111,-114,c),
(-137,-150,l),
(-124,-179,o),
(-102,-200,o),
(-58,-203,cs)
);
},
{
closed = 1;
nodes = (
(225,686,o),
(249,708,o),
(252,733,cs),
(255,759,o),
(237,780,o),
(210,780,cs),
(185,780,o),
(162,759,o),
(159,733,cs),
(156,708,o),
(173,686,o),
(198,686,cs)
);
}
);
};
layerId = "1F181B77-E14E-4F2C-B379-C4EBA8733930";
name = "4 févr. 25 à 11:44";
shapes = (
{
closed = 1;
nodes = (
(13,-204,o),
(73,-161,o),
(99,-28,cs),
(210,548,l),
(63,548,l),
(53,494,l),
(170,494,l),
(70,-21,ls),
(51,-117,o),
(21,-151,o),
(-32,-151,cs),
(-68,-151,o),
(-98,-138,o),
(-111,-114,c),
(-137,-150,l),
(-123,-181,o),
(-99,-204,o),
(-49,-204,cs)
);
},
{
closed = 1;
nodes = (
(227,686,o),
(252,711,o),
(252,739,cs),
(252,762,o),
(235,780,o),
(210,780,cs),
(183,780,o),
(159,756,o),
(159,727,cs),
(159,705,o),
(175,686,o),
(198,686,cs)
);
}
);
width = 224;
},
{
associatedMasterId = "41EDA971-A137-4972-81AF-7929AB7CAABF";
background = {
shapes = (
{
closed = 0;
nodes = (
(1,-152,l),
(52,19,l)
);
},
{
closed = 0;
nodes = (
(37,-197,l),
(0,-131,l)
);
},
{
closed = 0;
nodes = (
(81,-15,l),
(38,14,l)
);
}
);
};
layerId = "9EC51E1E-637A-4777-9BCE-321500AB542C";
name = "4 févr. 25 à 13:56";
shapes = (
{
closed = 1;
nodes = (
(163,-212,o),
(230,-154,o),
(252,-42,cs),
(368,556,l),
(109,556,l),
(58,292,l),
(225,292,l),
(182,71,ls),
(167,-3,o),
(136,-25,o),
(92,-25,cs),
(55,-25,o),
(24,-15,o),
(-5,7,c),
(-76,-139,l),
(-58,-189,o),
(-16,-212,o),
(64,-212,cs)
);
},
{
closed = 1;
nodes = (
(318,581,o),
(381,621,o),
(395,695,cs),
(410,770,o),
(362,809,o),
(290,809,cs),
(219,809,o),
(156,770,o),
(141,695,cs),
(127,621,o),
(175,581,o),
(246,581,cs)
);
}
);
width = 362;
},
{
associatedMasterId = "41EDA971-A137-4972-81AF-7929AB7CAABF";
layerId = "49251598-0272-4D00-86C2-D6E0C97F44DA";
name = "25 févr. 25 à 14:22";
shapes = (
{
closed = 1;
nodes = (
(163,-212,o),
(228,-165,o),
(250,-53,cs),
(368,556,l),
(109,556,l),
(58,292,l),
(225,292,l),
(181,65,ls),
(166,-8,o),
(135,-25,o),
(95,-25,cs),
(59,-25,o),
(25,-11,o),
(-3,11,c),
(-73,-134,l),
(-55,-182,o),
(-12,-212,o),
(82,-212,cs)
);
},
{
closed = 1;
nodes = (
(331,580,o),
(396,626,o),
(396,712,cs),
(396,775,o),
(348,808,o),
(282,808,cs),
(207,808,o),
(140,763,o),
(140,679,cs),
(140,614,o),
(189,580,o),
(254,580,cs)
);
}
);
width = 362;
}
);
metricRight = "=i";
unicode = 106;
},
{
glyphname = dotlessj;
lastChange = "2025-02-27 15:33:01 +0000";
layers = (
{
anchors = (
{
name = top;
pos = (165,548);
}
);
layerId = "79167EE4-8C29-4BCE-A9E7-C1CFC4557E33";
shapes = (
{
closed = 1;
nodes = (
(22,-204,o),
(79,-160,o),
(103,-31,cs),
(215,548,l),
(68,548,l),
(58,494,l),
(175,494,l),
(75,-24,ls),
(57,-116,o),
(28,-150,o),
(-27,-150,cs),
(-60,-150,o),
(-90,-136,o),
(-105,-113,c),
(-131,-148,l),
(-116,-180,o),
(-92,-204,o),
(-36,-204,cs)
);
}
);
width = 239;
},
{
anchors = (
{
name = top;
pos = (239,556);
}
);
layerId = "41EDA971-A137-4972-81AF-7929AB7CAABF";
shapes = (
{
closed = 1;
nodes = (
(160,-211,o),
(223,-165,o),
(244,-57,cs),
(363,556,l),
(102,556,l),
(51,292,l),
(220,292,l),
(176,64,ls),
(161,-9,o),
(130,-25,o),
(95,-25,cs),
(57,-25,o),
(20,-10,o),
(-7,13,c),
(-78,-132,l),
(-59,-179,o),
(-13,-211,o),
(82,-211,cs)
);
}
);
width = 363;
}
);
metricRight = "=dotlessi";
unicode = 567;
},
{
color = 3;
glyphname = k;
lastChange = "2025-02-28 10:13:28 +0000";
layers = (
{
anchors = (
{
name = bottom;
pos = (205,0);
},
{
name = top;
pos = (184,772);
}
);
background = {
shapes = (
{
closed = 1;
nodes = (
(366,232,o),
(504,315,o),
(504,446,cs),
(504,510,o),
(460,556,o),
(366,556,cs),
(228,556,o),
(116,453,o),
(85,292,c),
(105,287,l),
(130,416,o),
(223,501,o),
(346,501,cs),
(435,501,o),
(469,466,o),
(469,425,cs),
(469,340,o),
(336,278,o),
(98,297,c),
(112,260,l)
);
},
{
closed = 1;
nodes = (
(390,-8,o),
(429,16,o),
(453,52,c),
(443,81,l),
(420,58,o),
(387,46,o),
(360,46,cs),
(283,46,o),
(233,85,o),
(128,285,c),
(92,282,l),
(215,43,o),
(273,-8,o),
(350,-8,cs)
);
},
{
closed = 1;
nodes = (
(49,0,l),
(199,772,l),
(169,772,l),
(19,0,l)
);
}
);
};
layerId = "79167EE4-8C29-4BCE-A9E7-C1CFC4557E33";
shapes = (
{
closed = 1;
nodes = (
(366,232,o),
(504,315,o),
(504,441,cs),
(504,510,o),
(460,556,o),
(366,556,cs),
(228,556,o),
(116,453,o),
(85,292,c),
(105,287,l),
(130,416,o),
(223,501,o),
(346,501,cs),
(435,501,o),
(469,466,o),
(469,425,cs),
(469,340,o),
(336,278,o),
(98,297,c),
(112,260,l)
);
},
{
closed = 1;
nodes = (
(390,-8,o),
(429,16,o),
(453,52,c),
(443,81,l),
(420,58,o),
(387,46,o),
(360,46,cs),
(283,46,o),
(233,85,o),
(128,285,c),
(92,282,l),
(215,43,o),
(273,-8,o),
(350,-8,cs)
);
},
{
closed = 1;
nodes = (
(49,0,l),
(199,772,l),
(169,772,l),
(19,0,l)
);
}
);
width = 509;
},
{
anchors = (
{
name = bottom;
pos = (211,0);
},
{
name = top;
pos = (194,772);
}
);
background = {
shapes = (
{
closed = 1;
nodes = (
(160,330,o),
(204,346,o),
(310,346,cs),
(399,346,o),
(419,337,o),
(419,320,cs),
(419,298,o),
(369,275,o),
(147,295,c)
);
}
);
};
layerId = "41EDA971-A137-4972-81AF-7929AB7CAABF";
shapes = (
{
closed = 1;
nodes = (
(459,176,o),
(569,270,o),
(569,413,cs),
(569,523,o),
(494,571,o),
(390,572,cs),
(256,573,o),
(185,515,o),
(159,425,c),
(147,295,l),
(154,328,o),
(204,346,o),
(310,346,cs),
(399,346,o),
(419,337,o),
(419,320,cs),
(419,298,o),
(368,272,o),
(103,299,c),
(111,234,l)
);
},
{
closed = 1;
nodes = (
(407,-16,o),
(464,13,o),
(495,74,c),
(479,206,l),
(443,183,o),
(402,171,o),
(352,171,cs),
(266,171,o),
(207,194,o),
(142,282,c),
(96,280,l),
(177,29,o),
(241,-16,o),
(343,-16,cs)
);
},
{
closed = 1;
nodes = (
(90,0,l),
(240,772,l),
(148,772,l),
(-2,0,l)
);
}
);
width = 562;
},
{
anchors = (
{
name = bottom;
pos = (213,0);
}
);
associatedMasterId = "41EDA971-A137-4972-81AF-7929AB7CAABF";
layerId = "76EB0B2D-EE7F-440B-A0EE-584D9D7E0D48";
name = "4 févr. 25 à 13:59";
shapes = (
{
closed = 1;
nodes = (
(401,201,o),
(542,241,o),
(571,389,cs),
(594,508,o),
(523,582,o),
(404,582,cs),
(264,582,o),
(186,515,o),
(159,412,c),
(149,283,l),
(156,318,o),
(206,345,o),
(360,345,cs),
(415,345,o),
(428,335,o),
(426,324,cs),
(421,300,o),
(333,277,o),
(106,285,c),
(114,220,l)
);
},
{
closed = 1;
nodes = (
(387,-18,o),
(457,20,o),
(498,99,c),
(475,229,l),
(438,192,o),
(384,173,o),
(342,173,cs),
(263,173,o),
(210,187,o),
(145,269,c),
(99,264,l),
(158,85,o),
(227,-18,o),
(329,-18,cs)
);
},
{
closed = 1;
nodes = (
(94,0,l),
(247,787,l),
(151,787,l),
(-2,0,l)
);
}
);
width = 564;
},
{
anchors = (
{
name = bottom;
pos = (213,0);
}
);
associatedMasterId = "41EDA971-A137-4972-81AF-7929AB7CAABF";
layerId = "DF503983-96EC-4BE7-A2E3-55266740ABD4";
name = "4 févr. 25 à 14:47";
shapes = (
{
closed = 1;
nodes = (
(461,176,o),
(571,270,o),
(571,413,cs),
(571,523,o),
(496,571,o),
(392,572,cs),
(258,573,o),
(187,515,o),
(161,425,c),
(152,296,l),
(158,329,o),
(192,346,o),
(289,346,cs),
(405,346,o),
(423,336,o),
(423,319,cs),
(423,300,o),
(378,273,o),
(105,301,c),
(113,234,l)
);
},
{
closed = 1;
nodes = (
(393,-16,o),
(459,18,o),
(497,91,c),
(474,220,l),
(446,192,o),
(397,171,o),
(354,171,cs),
(268,171,o),
(209,194,o),
(144,282,c),
(98,280,l),
(159,93,o),
(230,-16,o),
(336,-16,cs)
);
},
{
closed = 1;
nodes = (
(94,0,l),
(244,772,l),
(148,772,l),
(-2,0,l)
);
}
);
width = 564;
},
{
anchors = (
{
name = bottom;
pos = (213,0);
}
);
associatedMasterId = "41EDA971-A137-4972-81AF-7929AB7CAABF";
background = {
shapes = (
{
closed = 1;
nodes = (
(461,176,o),
(571,270,o),
(571,413,cs),
(571,523,o),
(496,571,o),
(392,572,cs),
(258,573,o),
(187,515,o),
(161,425,c),
(152,296,l),
(158,329,o),
(192,346,o),
(289,346,cs),
(405,346,o),
(423,336,o),
(423,319,cs),
(423,300,o),
(378,273,o),
(105,301,c),
(113,234,l)
);
},
{
closed = 1;
nodes = (
(393,-16,o),
(459,18,o),
(497,91,c),
(474,220,l),
(446,192,o),
(397,171,o),
(354,171,cs),
(268,171,o),
(209,194,o),
(144,282,c),
(98,280,l),
(159,93,o),
(230,-16,o),
(336,-16,cs)
);
},
{
closed = 1;
nodes = (
(94,0,l),
(244,772,l),
(148,772,l),
(-2,0,l)
);
}
);
};
layerId = "CB155239-8027-4076-806A-376A993518D9";
name = "25 févr. 25 à 12:07";
shapes = (
{
closed = 1;
nodes = (
(461,176,o),
(571,270,o),
(571,413,cs),
(571,523,o),
(496,571,o),
(392,572,cs),
(258,573,o),
(187,515,o),
(161,425,c),
(152,296,l),
(158,329,o),
(192,346,o),
(289,346,cs),
(405,346,o),
(423,336,o),
(423,320,cs),
(423,300,o),
(378,273,o),
(105,301,c),
(113,234,l)
);
},
{
closed = 1;
nodes = (
(413,-16,o),
(471,15,o),
(499,81,c),
(476,210,l),
(442,184,o),
(402,171,o),
(354,171,cs),
(268,171,o),
(209,194,o),
(144,282,c),
(98,280,l),
(179,29,o),
(243,-16,o),
(345,-16,cs)
);
},
{
closed = 1;
nodes = (
(94,0,l),
(244,772,l),
(148,772,l),
(-2,0,l)
);
}
);
width = 564;
},
{
anchors = (
{
name = bottom;
pos = (211,0);
}
);
associatedMasterId = "41EDA971-A137-4972-81AF-7929AB7CAABF";
background = {
shapes = (
{
closed = 1;
nodes = (
(459,176,o),
(569,270,o),
(569,413,cs),
(569,523,o),
(494,571,o),
(390,572,cs),
(256,573,o),
(185,515,o),
(159,425,c),
(150,296,l),
(156,329,o),
(190,346,o),
(287,346,cs),
(403,346,o),
(421,336,o),
(421,320,cs),
(421,300,o),
(376,273,o),
(103,301,c),
(111,234,l)
);
},
{
closed = 1;
nodes = (
(411,-16,o),
(469,15,o),
(497,81,c),
(474,210,l),
(440,184,o),
(400,171,o),
(352,171,cs),
(266,171,o),
(207,194,o),
(142,282,c),
(96,280,l),
(177,29,o),
(241,-16,o),
(343,-16,cs)
);
},
{
closed = 1;
nodes = (
(92,0,l),
(242,772,l),
(146,772,l),
(-4,0,l)
);
}
);
};
layerId = "735C6F2A-C8A3-4F01-B112-5B39FFC28D9D";
name = "25 févr. 25 à 13:28";
shapes = (
{
closed = 1;
nodes = (
(459,176,o),
(569,270,o),
(569,413,cs),
(569,523,o),
(494,571,o),
(390,572,cs),
(256,573,o),
(185,515,o),
(159,425,c),
(148,296,l),
(154,329,o),
(189,346,o),
(307,346,cs),
(405,346,o),
(421,336,o),
(421,320,cs),
(421,300,o),
(376,273,o),
(103,301,c),
(111,234,l)
);
},
{
closed = 1;
nodes = (
(411,-16,o),
(469,15,o),
(497,81,c),
(474,210,l),
(440,184,o),
(400,171,o),
(352,171,cs),
(266,171,o),
(207,194,o),
(142,282,c),
(96,280,l),
(177,29,o),
(241,-16,o),
(343,-16,cs)
);
},
{
closed = 1;
nodes = (
(90,0,l),
(240,772,l),
(148,772,l),
(-2,0,l)
);
}
);
width = 562;
},
{
anchors = (
{
name = bottom;
pos = (211,0);
}
);
associatedMasterId = "41EDA971-A137-4972-81AF-7929AB7CAABF";
background = {
shapes = (
{
closed = 1;
nodes = (
(160,330,o),
(204,346,o),
(310,346,cs),
(399,346,o),
(419,337,o),
(419,320,cs),
(419,298,o),
(369,275,o),
(147,295,c)
);
}
);
};
layerId = "D2AE9CFB-8791-49BB-B249-E26F6E13AFA9";
name = "25 févr. 25 à 14:23";
shapes = (
{
closed = 1;
nodes = (
(459,176,o),
(569,270,o),
(569,413,cs),
(569,523,o),
(494,571,o),
(390,572,cs),
(256,573,o),
(185,515,o),
(159,425,c),
(147,295,l),
(154,328,o),
(204,346,o),
(310,346,cs),
(399,346,o),
(419,337,o),
(419,320,cs),
(419,298,o),
(368,272,o),
(103,299,c),
(111,234,l)
);
},
{
closed = 1;
nodes = (
(411,-16,o),
(469,15,o),
(497,81,c),
(474,210,l),
(440,184,o),
(400,171,o),
(352,171,cs),
(266,171,o),
(207,194,o),
(142,282,c),
(96,280,l),
(177,29,o),
(241,-16,o),
(343,-16,cs)
);
},
{
closed = 1;
nodes = (
(90,0,l),
(240,772,l),
(148,772,l),
(-2,0,l)
);
}
);
width = 562;
}
);
metricLeft = "=n";
unicode = 107;
},
{
glyphname = l;
lastChange = "2025-02-27 15:33:01 +0000";
layers = (
{
anchors = (
{
name = bottom;
pos = (138,0);
},
{
name = caroncomb.alt;
pos = (228,772);
},
{
name = top;
pos = (150,772);
}
);
layerId = "79167EE4-8C29-4BCE-A9E7-C1CFC4557E33";
shapes = (
{
closed = 1;
nodes = (
(203,-8,o),
(237,7,o),
(269,45,c),
(258,80,l),
(235,56,o),
(207,45,o),
(177,45,cs),
(108,45,o),
(71,74,o),
(88,159,cs),
(208,772,l),
(81,772,l),
(70,714,l),
(167,714,l),
(57,149,ls),
(37,44,o),
(69,-8,o),
(160,-8,cs)
);
}
);
width = 313;
},
{
anchors = (
{
name = bottom;
pos = (244,0);
},
{
name = caroncomb.alt;
pos = (336,772);
},
{
name = top;
pos = (245,772);
}
);
layerId = "41EDA971-A137-4972-81AF-7929AB7CAABF";
shapes = (
{
closed = 1;
nodes = (
(320,-15,o),
(376,7,o),
(415,60,c),
(397,201,l),
(370,186,o),
(348,180,o),
(316,180,cs),
(251,180,o),
(228,209,o),
(238,260,cs),
(337,772,l),
(100,772,l),
(49,508,l),
(194,508,l),
(127,163,ls),
(104,44,o),
(155,-15,o),
(268,-15,cs)
);
}
);
width = 463;
},
{
anchors = (
{
name = bottom;
pos = (138,0);
},
{
name = caroncomb.alt;
pos = (228,772);
},
{
name = top;
pos = (150,772);
}
);
associatedMasterId = "79167EE4-8C29-4BCE-A9E7-C1CFC4557E33";
layerId = "BF0E1DA4-1AC7-43EA-B6C4-520B1A82D8EB";
name = "3 févr. 25 à 16:10";
shapes = (
{
closed = 1;
nodes = (
(200,-8,o),
(235,11,o),
(268,51,c),
(257,84,l),
(229,55,o),
(200,46,o),
(164,46,cs),
(99,46,o),
(72,74,o),
(87,153,cs),
(208,772,l),
(81,772,l),
(70,714,l),
(167,714,l),
(55,140,ls),
(34,31,o),
(71,-8,o),
(150,-8,cs)
);
}
);
width = 313;
},
{
anchors = (
{
name = bottom;
pos = (138,0);
},
{
name = caroncomb.alt;
pos = (228,772);
},
{
name = top;
pos = (150,772);
}
);
associatedMasterId = "79167EE4-8C29-4BCE-A9E7-C1CFC4557E33";
background = {
shapes = (
{
closed = 1;
nodes = (
(201,-10,o),
(236,7,o),
(269,46,c),
(258,80,l),
(230,51,o),
(201,44,o),
(165,47,cs),
(100,51,o),
(73,81,o),
(88,159,cs),
(208,772,l),
(81,772,l),
(70,714,l),
(167,714,l),
(57,149,ls),
(35,41,o),
(72,-1,o),
(151,-7,cs)
);
}
);
};
layerId = "F3006046-8A76-4C5F-8FB1-19CDF34F1CA4";
name = "4 févr. 25 à 11:44";
shapes = (
{
closed = 1;
nodes = (
(203,-8,o),
(237,7,o),
(269,46,c),
(258,80,l),
(235,56,o),
(207,45,o),
(177,45,cs),
(108,45,o),
(71,74,o),
(88,159,cs),
(208,772,l),
(81,772,l),
(70,714,l),
(167,714,l),
(57,149,ls),
(37,44,o),
(69,-8,o),
(160,-8,cs)
);
}
);
width = 313;
},
{
anchors = (
{
name = bottom;
pos = (244,0);
},
{
name = caroncomb.alt;
pos = (336,772);
},
{
name = top;
pos = (245,772);
}
);
associatedMasterId = "41EDA971-A137-4972-81AF-7929AB7CAABF";
background = {
shapes = (
{
closed = 0;
nodes = (
(457,57,l),
(409,220,l)
);
},
{
closed = 0;
nodes = (
(423,14,l),
(458,77,l)
);
},
{
closed = 0;
nodes = (
(381,187,l),
(422,215,l)
);
}
);
};
layerId = "AD624768-99DB-4803-9B25-78206499A34E";
name = "4 févr. 25 à 14:02";
shapes = (
{
closed = 1;
nodes = (
(318,-16,o),
(372,14,o),
(413,69,c),
(398,208,l),
(363,187,o),
(337,182,o),
(302,182,cs),
(249,182,o),
(227,205,o),
(237,256,cs),
(337,772,l),
(100,772,l),
(49,508,l),
(194,508,l),
(125,152,ls),
(101,32,o),
(152,-16,o),
(253,-16,cs)
);
}
);
width = 463;
},
{
anchors = (
{
name = bottom;
pos = (244,0);
},
{
name = caroncomb.alt;
pos = (336,772);
},
{
name = top;
pos = (245,772);
}
);
associatedMasterId = "41EDA971-A137-4972-81AF-7929AB7CAABF";
layerId = "16658CC2-C9CF-47FD-A8EE-897E039B2A64";
name = "25 févr. 25 à 14:24";
shapes = (
{
closed = 1;
nodes = (
(320,-15,o),
(373,7,o),
(414,60,c),
(399,201,l),
(371,186,o),
(349,180,o),
(316,180,cs),
(251,180,o),
(228,209,o),
(238,260,cs),
(337,772,l),
(100,772,l),
(49,508,l),
(194,508,l),
(127,163,ls),
(104,44,o),
(155,-15,o),
(268,-15,cs)
);
}
);
width = 463;
}
);
unicode = 108;
},
{
color = 3;
glyphname = ldot;
lastChange = "2025-02-27 15:31:52 +0000";
layers = (
{
layerId = "79167EE4-8C29-4BCE-A9E7-C1CFC4557E33";
shapes = (
{
ref = l;
},
{
closed = 1;
nodes = (
(280,334,o),
(300,356,o),
(300,381,cs),
(300,407,o),
(280,428,o),
(253,428,cs),
(226,428,o),
(206,407,o),
(206,381,cs),
(206,356,o),
(226,334,o),
(253,334,cs)
);
}
);
width = 313;
},
{
layerId = "41EDA971-A137-4972-81AF-7929AB7CAABF";
shapes = (
{
ref = l;
},
{
closed = 1;
nodes = (
(486,251,o),
(535,288,o),
(535,360,cs),
(535,430,o),
(486,467,o),
(424,467,cs),
(363,467,o),
(314,430,o),
(314,360,cs),
(314,288,o),
(363,251,o),
(424,251,cs)
);
}
);
width = 463;
}
);
metricLeft = "=l";
unicode = 320;
},
{
color = 3;
glyphname = lslash;
lastChange = "2025-02-27 15:31:52 +0000";
layers = (
{
background = {
shapes = (
{
closed = 1;
nodes = (
(288,492,l),
(268,522,l),
(-12,326,l),
(8,296,l)
);
}
);
};
layerId = "79167EE4-8C29-4BCE-A9E7-C1CFC4557E33";
shapes = (
{
alignment = -1;
ref = l;
},
{
closed = 1;
nodes = (
(286,495,l),
(268,522,l),
(-9,323,l),
(8,296,l)
);
}
);
width = 313;
},
{
layerId = "41EDA971-A137-4972-81AF-7929AB7CAABF";
shapes = (
{
alignment = -1;
ref = l;
},
{
closed = 1;
nodes = (
(403,442,l),
(358,511,l),
(29,287,l),
(72,217,l)
);
}
);
width = 463;
},
{
associatedMasterId = "41EDA971-A137-4972-81AF-7929AB7CAABF";
layerId = "02C9D56B-9EC4-4BFD-8AD2-AF99086F27AE";
name = "15 déc. 24 à 19:25";
shapes = (
{
alignment = -1;
ref = l;
},
{
closed = 1;
nodes = (
(424,438,l),
(354,550,l),
(15,322,l),
(85,209,l)
);
}
);
width = 463;
},
{
associatedMasterId = "79167EE4-8C29-4BCE-A9E7-C1CFC4557E33";
background = {
shapes = (
{
closed = 1;
nodes = (
(299,490,l),
(272,532,l),
(-8,336,l),
(19,294,l)
);
}
);
};
layerId = "8FEFBC35-CD85-4DF2-B38D-6452A09EB69C";
name = "15 déc. 24 à 19:27";
shapes = (
{
alignment = -1;
pos = (10,0);
ref = l;
},
{
closed = 1;
nodes = (
(299,490,l),
(272,532,l),
(-8,336,l),
(19,294,l)
);
}
);
width = 350;
}
);
metricLeft = "=l@100";
metricRight = "=l@100";
unicode = 322;
},
{
glyphname = m;
lastChange = "2025-02-27 15:33:01 +0000";
layers = (
{
anchors = (
{
name = top;
pos = (484,548);
}
);
background = {
shapes = (
{
closed = 1;
nodes = (
(49,0,l),
(112,327,ls),
(136,452,o),
(208,499,o),
(297,499,cs),
(414,499,o),
(449,441,o),
(423,308,cs),
(363,0,l),
(393,0,l),
(457,326,ls),
(480,451,o),
(552,499,o),
(641,499,cs),
(764,499,o),
(792,433,o),
(767,308,cs),
(707,0,l),
(737,0,l),
(797,307,ls),
(825,452,o),
(807,556,o),
(659,556,cs),
(568,556,o),
(491,501,o),
(454,402,c),
(465,388,l),
(471,516,o),
(410,556,o),
(318,556,cs),
(230,556,o),
(158,507,o),
(121,418,c),
(125,392,l),
(155,548,l),
(125,548,l),
(19,0,l)
);
}
);
};
layerId = "79167EE4-8C29-4BCE-A9E7-C1CFC4557E33";
shapes = (
{
closed = 1;
nodes = (
(49,0,l),
(112,327,ls),
(136,452,o),
(207,499,o),
(302,499,cs),
(412,499,o),
(449,441,o),
(423,308,cs),
(363,0,l),
(393,0,l),
(457,326,ls),
(480,451,o),
(551,499,o),
(644,499,cs),
(763,499,o),
(792,433,o),
(767,308,cs),
(707,0,l),
(737,0,l),
(797,307,ls),
(825,452,o),
(807,556,o),
(659,556,cs),
(568,556,o),
(490,501,o),
(450,402,c),
(466,398,l),
(468,509,o),
(416,556,o),
(318,556,cs),
(230,556,o),
(158,507,o),
(121,418,c),
(125,392,l),
(155,548,l),
(125,548,l),
(19,0,l)
);
}
);
width = 857;
},
{
anchors = (
{
name = top;
pos = (489,556);
}
);
background = {
shapes = (
{
closed = 1;
nodes = (
(90,0,l),
(130,207,ls),
(144,281,o),
(183,314,o),
(281,307,cs),
(364,301,o),
(386,263,o),
(372,189,cs),
(335,0,l),
(427,0,l),
(467,207,ls),
(481,281,o),
(520,314,o),
(618,307,cs),
(702,301,o),
(723,263,o),
(709,189,cs),
(672,0,l),
(764,0,l),
(827,320,ls),
(858,478,o),
(822,561,o),
(698,570,cs),
(610,576,o),
(530,546,o),
(487,438,c),
(500,417,l),
(500,514,o),
(457,564,o),
(361,571,cs),
(281,576,o),
(209,549,o),
(167,461,c),
(175,438,l),
(198,556,l),
(106,556,l),
(-2,0,l)
);
}
);
};
layerId = "41EDA971-A137-4972-81AF-7929AB7CAABF";
shapes = (
{
closed = 1;
nodes = (
(90,0,l),
(130,207,ls),
(143,275,o),
(176,308,o),
(257,308,cs),
(357,308,o),
(388,271,o),
(372,189,cs),
(335,0,l),
(427,0,l),
(467,207,ls),
(480,275,o),
(513,308,o),
(594,308,cs),
(696,308,o),
(725,270,o),
(709,189,cs),
(672,0,l),
(764,0,l),
(827,320,ls),
(859,485,o),
(819,572,o),
(677,572,cs),
(597,572,o),
(527,538,o),
(487,438,c),
(500,417,l),
(500,520,o),
(451,572,o),
(343,572,cs),
(270,572,o),
(206,542,o),
(167,461,c),
(175,438,l),
(198,556,l),
(106,556,l),
(-2,0,l)
);
}
);
width = 867;
},
{
anchors = (
{
name = top;
pos = (484,548);
}
);
associatedMasterId = "79167EE4-8C29-4BCE-A9E7-C1CFC4557E33";
background = {
anchors = (
{
name = bottom;
pos = (273,0);
},
{
name = top;
pos = (281,548);
}
);
shapes = (
{
closed = 1;
nodes = (
(446,0,l),
(446,319,ls),
(446,505,o),
(380,556,o),
(281,556,cs),
(184,556,o),
(113,502,o),
(93,405,c),
(102,382,l),
(102,548,l),
(72,548,l),
(72,0,l),
(102,0,l),
(102,314,ls),
(102,448,o),
(173,498,o),
(272,498,cs),
(377,498,o),
(416,443,o),
(416,318,cs),
(416,0,l)
);
}
);
};
layerId = "31D73A5B-AFBE-427F-93B6-0993E1349B6A";
name = "3 févr. 25 à 16:14";
shapes = (
{
closed = 1;
nodes = (
(49,0,l),
(110,314,ls),
(136,448,o),
(217,498,o),
(316,498,cs),
(421,498,o),
(449,443,o),
(425,318,cs),
(363,0,l),
(393,0,l),
(454,314,ls),
(480,448,o),
(561,498,o),
(660,498,cs),
(765,498,o),
(793,443,o),
(769,318,cs),
(707,0,l),
(737,0,l),
(799,319,ls),
(835,505,o),
(779,556,o),
(678,556,cs),
(576,556,o),
(492,496,o),
(451,389,c),
(466,378,l),
(479,516,o),
(424,556,o),
(334,556,cs),
(237,556,o),
(158,502,o),
(118,405,c),
(125,392,l),
(155,548,l),
(125,548,l),
(19,0,l)
);
}
);
width = 856;
},
{
anchors = (
{
name = top;
pos = (489,556);
}
);
associatedMasterId = "41EDA971-A137-4972-81AF-7929AB7CAABF";
layerId = "F5DAA1D6-48D6-4EFA-8EF7-45045A65F823";
name = "4 févr. 25 à 14:05";
shapes = (
{
closed = 1;
nodes = (
(90,0,l),
(128,198,ls),
(143,272,o),
(182,308,o),
(281,308,cs),
(366,308,o),
(388,272,o),
(373,197,cs),
(335,0,l),
(427,0,l),
(465,198,ls),
(480,272,o),
(519,308,o),
(618,308,cs),
(703,308,o),
(725,272,o),
(710,197,cs),
(672,0,l),
(764,0,l),
(829,333,ls),
(860,492,o),
(824,572,o),
(698,572,cs),
(610,572,o),
(529,536,o),
(486,426,c),
(501,429,l),
(501,525,o),
(457,572,o),
(361,572,cs),
(280,572,o),
(208,540,o),
(165,450,c),
(175,438,l),
(198,556,l),
(106,556,l),
(-2,0,l)
);
}
);
width = 866;
}
);
metricLeft = "=n";
metricRight = "=n";
unicode = 109;
},
